<svg width="400" height="400" viewBox="0 0 400 400" fill="none" xmlns="http://www.w3.org/2000/svg">
<path d="M287.88 199.112C287.256 199.579 286.558 199.938 285.816 200.176C283.774 200.881 281.551 200.853 279.528 200.096C278.126 199.584 276.865 198.748 275.848 197.656C274.678 196.395 273.868 194.842 273.504 193.16C273.299 192.255 273.234 191.325 273.312 190.4C273.379 189.433 273.597 188.483 273.96 187.584C274.715 185.676 276.061 184.06 277.802 182.972C279.543 181.885 281.586 181.385 283.632 181.544C285.534 181.694 287.349 182.404 288.848 183.584C290.198 184.65 291.237 186.059 291.856 187.664C292.393 189.056 292.593 190.556 292.44 192.04C292.226 194.191 291.273 196.201 289.744 197.728C289.203 198.289 288.574 198.757 287.88 199.112C288.482 198.642 289.056 198.137 289.6 197.6C291.027 196.064 291.895 194.091 292.064 192C292.189 190.579 291.978 189.148 291.448 187.824C290.842 186.305 289.842 184.974 288.552 183.968C287.86 183.426 287.092 182.989 286.272 182.672C285.419 182.329 284.517 182.126 283.6 182.072C281.667 181.926 279.738 182.4 278.093 183.426C276.449 184.452 275.174 185.976 274.456 187.776C274.109 188.626 273.899 189.525 273.832 190.44C273.751 191.315 273.805 192.197 273.992 193.056C274.306 194.555 274.989 195.952 275.98 197.119C276.97 198.287 278.237 199.189 279.664 199.744C281.612 200.502 283.759 200.584 285.76 199.976C287.2 199.536 287.848 199.056 287.88 199.112Z" fill="#E0E0E0"/>
<path d="M289.6 211.552L289.84 211.768L290.56 212.464L293.376 215.24H293.272L300.664 210.56L300.608 210.72C300.072 209.216 299.48 207.52 298.848 205.736V205.648L298.912 205.576C300.207 204.193 301.308 202.64 302.184 200.96L302.232 200.864H307.632L307.44 201.008C308.056 198.328 308.712 195.472 309.392 192.48L309.504 192.72L304.744 190.432L304.624 190.376V190.24C304.563 188.34 304.248 186.457 303.688 184.64L303.648 184.504L303.744 184.408C304.912 183.256 306.192 182.008 307.496 180.68V180.984L302.76 173.6L303.056 173.704L298.072 175.448L297.92 175.496L297.808 175.392C296.431 174.104 294.89 173.004 293.224 172.12L293.08 172.048V171.888C293.08 170.232 293.08 168.432 293.08 166.6L293.288 166.864L284.8 164.904L285.104 164.76L282.8 169.56L282.736 169.704H282.568C280.687 169.765 278.823 170.074 277.024 170.624L276.752 170.552L276.696 170.496L276.576 170.376L276.344 170.136L275.88 169.664L274.944 168.728L273.088 166.856L273.424 166.896L266 171.528L266.112 171.208C266.693 172.888 267.272 174.552 267.848 176.2L267.904 176.352L267.792 176.472C266.498 177.845 265.398 179.387 264.52 181.056L264.44 181.192H264.288H259L259.248 180.992C258.576 183.893 257.917 186.733 257.272 189.512L257.136 189.232L261.896 191.536L262.024 191.6V191.744C262.076 193.644 262.385 195.528 262.944 197.344L262.984 197.48L262.88 197.576L259.12 201.288V201.008L263.736 208.44L263.496 208.36L268.488 206.632L268.6 206.592L268.688 206.672C270.067 207.968 271.611 209.077 273.28 209.968L273.376 210.016V210.128C273.376 212.048 273.376 213.776 273.336 215.408L273.208 215.256L281.72 217.264L281.584 217.328L283.92 212.584V212.536H283.968C285.4 212.496 286.825 212.319 288.224 212.008L289.256 211.76L289.6 211.688L289.264 211.808C289.04 211.88 288.704 211.984 288.24 212.096C286.844 212.448 285.415 212.654 283.976 212.712L284.048 212.656L281.784 217.456L281.736 217.544H281.648L273.112 215.616H272.992V215.488C272.992 213.888 272.992 212.12 272.992 210.2L273.08 210.36C271.376 209.465 269.799 208.345 268.392 207.032L268.584 207.072L263.6 208.824L263.448 208.88L263.36 208.744L258.712 201.328L258.616 201.176L258.744 201.048L262.488 197.328L262.432 197.56C261.861 195.715 261.541 193.802 261.48 191.872L261.616 192.08L256.816 189.792L256.64 189.704L256.68 189.512L258.672 180.8L258.712 180.6H258.92H264.208L263.976 180.736C264.879 179.026 266.007 177.444 267.328 176.032L267.272 176.304C266.696 174.656 266.115 172.992 265.528 171.312L265.456 171.112L265.64 171L273.056 166.368L273.24 166.248L273.392 166.4L275.248 168.272L276.176 169.216L276.648 169.688L276.88 169.928L277 170.04L277.056 170.104C276.512 169.968 276.904 170.064 276.784 170.032C278.63 169.467 280.542 169.149 282.472 169.088L282.24 169.24L284.544 164.44L284.632 164.248L284.84 164.296L293.36 166.264L293.568 166.312V166.528C293.568 168.352 293.568 170.16 293.568 171.816L293.432 171.584C295.139 172.488 296.718 173.615 298.128 174.936L297.872 174.88L302.864 173.152L303.048 173.08L303.16 173.256L307.784 180.68L307.88 180.84L307.744 180.976C306.44 182.272 305.152 183.536 303.984 184.688L304.048 184.456C304.609 186.303 304.923 188.215 304.984 190.144L304.856 189.952L309.616 192.264L309.768 192.336L309.728 192.496C309.032 195.488 308.36 198.336 307.736 201.016V201.168H307.584H302.296L302.448 201.072C301.544 202.77 300.417 204.339 299.096 205.736V205.576C299.72 207.376 300.296 209.064 300.816 210.576L300.856 210.68L300.76 210.736L293.312 215.328H293.256L293.208 215.28L290.48 212.464L289.784 211.728C289.718 211.674 289.657 211.615 289.6 211.552Z" fill="#E0E0E0"/>
<path fill-rule="evenodd" clip-rule="evenodd" d="M307 148.256C304.42 149.051 301.746 149.498 299.048 149.584L295.792 156.312L283.744 153.528V146.048C281.355 144.79 279.145 143.216 277.176 141.368L270.12 143.832L263.576 133.336L268.88 128.08C268.087 125.497 267.643 122.82 267.56 120.12L260.824 116.872L263.648 104.8H271.12C272.384 102.412 273.96 100.203 275.808 98.2321L273.344 91.2001L283.84 84.6561L289.096 89.9601C291.676 89.1672 294.35 88.7232 297.048 88.6401L300.304 81.9041L312.352 84.6961V92.1681C314.737 93.43 316.943 95.0039 318.912 96.8481L325.968 94.3921L332.52 104.88L327.2 110.176C327.999 112.755 328.446 115.43 328.528 118.128L335.256 121.384L332.472 133.432H325C323.736 135.817 322.159 138.023 320.312 139.992L322.776 147.048L312.256 153.6L307 148.288V148.256ZM304.6 130.656C306.827 129.266 308.591 127.247 309.67 124.854C310.749 122.461 311.095 119.802 310.663 117.213C310.231 114.624 309.041 112.222 307.243 110.309C305.445 108.396 303.121 107.059 300.564 106.468C298.006 105.876 295.331 106.056 292.876 106.984C290.421 107.913 288.296 109.549 286.771 111.685C285.245 113.821 284.388 116.361 284.306 118.985C284.224 121.608 284.922 124.197 286.312 126.424C287.233 127.905 288.437 129.19 289.854 130.205C291.272 131.22 292.876 131.946 294.574 132.342C296.272 132.737 298.032 132.794 299.752 132.509C301.473 132.223 303.12 131.602 304.6 130.68V130.656Z" fill="#E0E0E0"/>
<path fill-rule="evenodd" clip-rule="evenodd" d="M335.384 188.112C334.01 188.532 332.588 188.768 331.152 188.816L329.424 192.392L323.024 190.912V186.912C321.754 186.241 320.578 185.404 319.528 184.424L315.776 185.728L312.296 180.128L315.12 177.336C314.694 175.964 314.457 174.54 314.416 173.104L310.832 171.368L312.312 164.968H316.312C316.988 163.702 317.828 162.529 318.808 161.48L317.496 157.728L323.096 154.24L325.896 157.064C327.27 156.644 328.693 156.408 330.128 156.36L331.856 152.776L338.256 154.264V158.264C339.525 158.934 340.698 159.77 341.744 160.752L345.504 159.448L348.984 165.048L346.16 167.848C346.586 169.22 346.823 170.644 346.864 172.08L350.448 173.808L348.968 180.208H344.968C344.294 181.478 343.454 182.654 342.472 183.704L343.784 187.456L338.184 190.944L335.384 188.12V188.112ZM334.112 178.76C335.298 178.021 336.238 176.947 336.814 175.674C337.389 174.4 337.574 172.985 337.345 171.607C337.116 170.228 336.484 168.949 335.527 167.93C334.571 166.911 333.334 166.199 331.973 165.883C330.611 165.567 329.187 165.662 327.88 166.156C326.573 166.65 325.442 167.521 324.629 168.658C323.817 169.795 323.36 171.147 323.316 172.544C323.273 173.94 323.644 175.319 324.384 176.504C325.375 178.093 326.957 179.223 328.781 179.646C330.605 180.069 332.523 179.75 334.112 178.76Z" fill="#EBEBEB"/>
<path d="M89.888 117.32C89.976 117.4 86.224 121.248 81.512 125.904C76.8 130.56 72.92 134.272 72.84 134.192C72.76 134.112 76.512 130.264 81.224 125.608C85.936 120.952 89.808 117.24 89.888 117.32Z" fill="#E0E0E0"/>
<path d="M89.9279 134.152C89.8479 134.232 85.9279 130.536 81.2239 125.904C76.5199 121.272 72.7199 117.448 72.7999 117.36C72.8799 117.272 76.7999 120.968 81.5119 125.608C86.2239 130.248 90.0159 134.064 89.9279 134.152Z" fill="#E0E0E0"/>
<path d="M106.856 223.792C106.856 223.904 102.056 223.488 96.1679 222.872C90.2799 222.256 85.5119 221.648 85.5199 221.536C85.5279 221.424 90.3199 221.832 96.2079 222.456C102.096 223.08 106.872 223.672 106.856 223.792Z" fill="#E0E0E0"/>
<path d="M106.008 231.824C106.008 231.936 101.208 231.528 95.3199 230.904C89.4319 230.28 84.6559 229.688 84.6719 229.576C84.6879 229.464 89.4719 229.872 95.3599 230.488C101.248 231.104 106.024 231.712 106.008 231.824Z" fill="#E0E0E0"/>
<path d="M48.32 206.152C48.32 206.152 41.9839 205.696 42.5679 219.912C43.1519 234.128 44.5999 241.688 44.5999 241.688C44.5999 241.688 44.4159 244.84 41.976 244.224C39.5359 243.608 34.9439 240.536 32.6719 242.832C30.3999 245.128 31.1599 248.856 34.2719 253.152C37.3839 257.448 43.872 267.104 44.4639 267.976C45.056 268.848 45.2639 270.448 43.5359 270.296C41.8079 270.144 30.1279 266.184 28.5839 271.84C27.0399 277.496 37.6959 288 38.8399 289.2C39.9839 290.4 40.0479 291.12 39.5839 291.832C39.1199 292.544 35.3199 290.84 31.9519 289.848C28.5839 288.856 24.5039 288.304 23.8879 291.64C23.2719 294.976 27.9599 304.736 45.5359 315L53.9919 319.2L61.9919 314.096C78.4479 302.096 82.1439 291.944 81.1919 288.68C80.2399 285.416 76.2399 286.384 72.9919 287.712C69.7439 289.04 66.1279 291.104 65.5999 290.44C65.0719 289.776 65.0559 289.04 66.0719 287.752C67.0879 286.464 76.6399 274.952 74.5359 269.448C72.4319 263.944 61.2079 269.088 59.5039 269.448C57.7999 269.808 57.9039 268.144 58.3519 267.232C58.7999 266.32 64.3279 256.032 67.0079 251.456C69.6879 246.88 70.1439 243.16 67.5679 241.056C64.9919 238.952 60.7999 242.48 58.4639 243.336C56.1279 244.192 55.5999 241.08 55.5999 241.08C55.5999 241.08 56.2799 233.4 55.4399 219.208C54.5999 205.016 48.1919 206.152 48.1919 206.152" fill="#EBEBEB"/>
<path d="M48.7999 218.88C48.8062 218.979 48.8062 219.077 48.7999 219.176C48.7999 219.392 48.7999 219.68 48.8639 220.048C48.9199 220.848 48.9919 221.96 49.0959 223.408C49.2879 226.32 49.5359 230.544 49.8239 235.752C50.3999 246.152 51.0799 260.6 51.7759 276.552C52.4719 292.504 53.1119 306.896 53.6319 317.352C53.8959 322.552 54.1119 326.776 54.2639 329.704C54.3359 331.152 54.3919 332.28 54.4319 333.064C54.4319 333.432 54.4319 333.728 54.4319 333.936C54.4373 334.035 54.4373 334.133 54.4319 334.232C54.4319 334.232 54.4319 334.136 54.4319 333.936C54.4319 333.736 54.4319 333.44 54.3679 333.064C54.3119 332.264 54.2319 331.16 54.1359 329.712C53.9439 326.8 53.6959 322.576 53.4079 317.36C52.8239 306.96 52.1519 292.52 51.4559 276.56C50.7599 260.6 50.1199 246.224 49.5919 235.76C49.3279 230.552 49.1119 226.336 48.9679 223.408C48.8959 221.96 48.8399 220.832 48.7999 220.048C48.7999 219.672 48.7999 219.384 48.7999 219.176C48.7999 218.968 48.7999 218.88 48.7999 218.88Z" fill="#E0E0E0"/>
<path d="M38.928 247.376C39.1182 247.502 39.2927 247.649 39.448 247.816C39.776 248.112 40.248 248.552 40.792 249.104C41.904 250.208 43.408 251.776 45.032 253.536L49.168 258.064L50.424 259.424C50.5932 259.58 50.7411 259.758 50.864 259.952C50.6731 259.827 50.4961 259.682 50.336 259.52C50.016 259.216 49.536 258.776 49 258.216C47.896 257.104 46.4 255.52 44.8 253.76L40.632 249.264L39.368 247.904C39.1974 247.75 39.0493 247.572 38.928 247.376Z" fill="#E0E0E0"/>
<path d="M51.704 259.672C51.64 259.608 54.736 256.368 58.608 252.472C62.48 248.576 65.688 245.4 65.752 245.464C65.816 245.528 62.72 248.768 58.84 252.664C54.96 256.56 51.768 259.736 51.704 259.672Z" fill="#E0E0E0"/>
<path d="M51.672 284.176C51.8506 284.027 52.0467 283.901 52.256 283.8L53.912 282.872C55.312 282.072 57.232 281 59.312 279.72C61.392 278.44 63.24 277.224 64.568 276.336L66.168 275.288C66.3523 275.144 66.5538 275.023 66.768 274.928C66.6101 275.1 66.4329 275.253 66.24 275.384C65.888 275.664 65.368 276.056 64.72 276.528C63.416 277.464 61.584 278.72 59.496 279.992C57.408 281.264 55.496 282.336 54.04 283.072C53.32 283.432 52.744 283.72 52.336 283.912C52.1238 284.021 51.9014 284.11 51.672 284.176Z" fill="#E0E0E0"/>
<path d="M37.6639 275.6C37.8699 275.664 38.0664 275.756 38.2479 275.872C38.6159 276.064 39.1359 276.36 39.7839 276.728C41.0639 277.456 42.8319 278.488 44.7759 279.64C46.7199 280.792 48.4639 281.856 49.7199 282.64L51.1999 283.576C51.3898 283.68 51.5647 283.809 51.7199 283.96C51.5158 283.891 51.3199 283.8 51.1359 283.688C50.7759 283.488 50.2479 283.2 49.6079 282.832C48.3199 282.104 46.5519 281.072 44.6079 279.92C42.6639 278.768 40.9199 277.704 39.6639 276.92L38.1839 276C37.9948 275.889 37.8202 275.754 37.6639 275.6Z" fill="#E0E0E0"/>
<path d="M34.8879 297.224C35.1433 297.322 35.3896 297.443 35.6239 297.584L37.5999 298.672C39.2559 299.6 41.5359 300.904 43.9999 302.36C46.4639 303.816 48.7599 305.144 50.3999 306.128L52.3199 307.304C52.5604 307.437 52.788 307.593 52.9999 307.768C52.7378 307.68 52.4878 307.559 52.2559 307.408L50.2879 306.328C48.6319 305.4 46.3599 304.096 43.8879 302.64C41.4159 301.184 39.1279 299.848 37.4879 298.872L35.5759 297.696C35.3278 297.568 35.0967 297.409 34.8879 297.224Z" fill="#E0E0E0"/>
<path d="M52.6479 307.4C52.8719 307.205 53.1191 307.039 53.384 306.904L55.432 305.656C57.168 304.592 59.56 303.128 62.152 301.432C64.744 299.736 67.0639 298.152 68.736 296.992L70.712 295.624C70.939 295.436 71.189 295.277 71.456 295.152C71.2506 295.362 71.0256 295.553 70.784 295.72C70.336 296.08 69.68 296.576 68.864 297.184C67.264 298.392 64.936 300.016 62.3359 301.704C59.7359 303.392 57.32 304.84 55.552 305.848C54.664 306.352 53.952 306.752 53.44 307.016C53.1864 307.165 52.9216 307.293 52.6479 307.4Z" fill="#E0E0E0"/>
<path d="M65.352 321.992H41.96L49.592 379.784H57.72L65.352 321.992Z" fill="#E0E0E0"/>
<path d="M43.2 329.096C43.2 329.096 43.2 329.176 43.32 329.296C43.474 329.475 43.6687 329.615 43.888 329.704C44.2962 329.843 44.7307 329.888 45.1588 329.836C45.587 329.783 45.9976 329.634 46.36 329.4C47.304 328.88 48.128 327.856 49.392 327.4C50.7965 326.95 52.311 326.981 53.696 327.488C55.102 327.971 56.4449 328.621 57.696 329.424C58.734 330.09 59.8165 330.683 60.9359 331.2C61.7005 331.54 62.508 331.775 63.336 331.896C63.5612 331.928 63.7884 331.944 64.0159 331.944C64.1679 331.944 64.2479 331.944 64.2479 331.944C63.1413 331.772 62.0642 331.446 61.0479 330.976C59.9492 330.435 58.8809 329.834 57.8479 329.176C56.5805 328.338 55.2124 327.663 53.776 327.168C52.3106 326.637 50.7082 326.62 49.232 327.12C48.6096 327.376 48.0338 327.732 47.528 328.176C47.104 328.553 46.655 328.9 46.184 329.216C45.8568 329.443 45.4839 329.596 45.0914 329.664C44.6989 329.732 44.2963 329.713 43.912 329.608C43.644 329.485 43.4023 329.311 43.2 329.096Z" fill="#F5F5F5"/>
<path d="M44 339.736C44 339.736 44.184 339.496 44.544 339.12C45.0764 338.594 45.7145 338.188 46.416 337.928C47.4583 337.551 48.565 337.385 49.672 337.44C51.0366 337.546 52.3937 337.733 53.736 338C55.1091 338.264 56.5141 338.321 57.904 338.168C59.0383 338.024 60.1442 337.708 61.184 337.232C61.897 336.918 62.5731 336.526 63.2 336.064C63.4353 335.907 63.6456 335.716 63.824 335.496C62.9584 336.054 62.0549 336.552 61.12 336.984C60.0956 337.398 59.0186 337.667 57.92 337.784C56.5629 337.917 55.1936 337.849 53.856 337.584C52.4962 337.315 51.1197 337.139 49.736 337.056C48.5845 337.019 47.4378 337.22 46.368 337.648C45.645 337.935 45.0025 338.394 44.496 338.984C44.3613 339.147 44.2409 339.321 44.136 339.504C44.048 339.664 44 339.728 44 339.736Z" fill="#F5F5F5"/>
<path d="M62.7039 345.432C62.5093 345.285 62.2898 345.174 62.0559 345.104C61.4352 344.869 60.7825 344.729 60.1199 344.688C59.1407 344.623 58.1572 344.679 57.1919 344.856C56.0959 345.032 54.9279 345.328 53.7039 345.592C52.5608 345.86 51.39 345.991 50.2159 345.984C49.264 345.958 48.3252 345.755 47.4479 345.384C46.6458 345.002 45.932 344.457 45.3519 343.784C45.4436 344.011 45.5796 344.218 45.7519 344.392C46.1965 344.898 46.7413 345.307 47.3519 345.592C48.2495 346.017 49.2236 346.256 50.2159 346.296C51.4187 346.326 52.6205 346.203 53.7919 345.928C55.0399 345.664 56.1919 345.352 57.2639 345.128C58.2039 344.941 59.1617 344.858 60.1199 344.88C61.0002 344.96 61.8678 345.145 62.7039 345.432Z" fill="#F5F5F5"/>
<path d="M46.096 353.448C46.8124 353.142 47.6056 353.064 48.368 353.224C49.199 353.425 50.0042 353.72 50.768 354.104C51.7348 354.573 52.7782 354.863 53.848 354.96C55.8045 355.127 57.7639 354.674 59.448 353.664C59.9349 353.355 60.3881 352.996 60.8 352.592C61.08 352.288 61.232 352.112 61.208 352.096C60.5891 352.576 59.9427 353.019 59.272 353.424C57.618 354.337 55.7302 354.738 53.848 354.576C51.632 354.448 49.928 353.128 48.392 352.976C47.8014 352.875 47.1947 352.93 46.632 353.136C46.248 353.264 46.08 353.44 46.096 353.448Z" fill="#F5F5F5"/>
<path d="M47.4 364.544C48.0717 364.56 48.7386 364.426 49.352 364.152C50.528 363.76 51.976 362.864 53.68 362.184C54.4722 361.866 55.3145 361.69 56.168 361.664C56.8578 361.664 57.5388 361.82 58.16 362.12C58.7293 362.423 59.224 362.85 59.608 363.368C59.5765 363.186 59.4994 363.016 59.384 362.872C59.1011 362.46 58.7257 362.121 58.288 361.88C57.638 361.521 56.9103 361.326 56.168 361.312C55.2679 361.314 54.3768 361.491 53.544 361.832C51.784 362.528 50.344 363.432 49.248 363.904C48.152 364.376 47.392 364.48 47.4 364.544Z" fill="#F5F5F5"/>
<path d="M48.5439 369.704C49.0128 369.932 49.5108 370.093 50.0239 370.184C51.2424 370.479 52.4802 370.687 53.7279 370.808C54.9746 370.931 56.2282 370.968 57.4799 370.92C58.0033 370.93 58.5254 370.868 59.0319 370.736C59.0319 370.616 56.6319 370.736 53.7679 370.432C50.9039 370.128 48.5759 369.6 48.5439 369.704Z" fill="#F5F5F5"/>
<path d="M377.016 378.848C377.016 378.968 297.4 379.056 199.216 379.056C101.032 379.056 21.408 378.968 21.408 378.848C21.408 378.728 101 378.64 199.216 378.64C297.432 378.64 377.016 378.736 377.016 378.848Z" fill="#263238"/>
<path d="M121.888 128.8C121.888 128.8 124.064 115.752 124.584 114.76C125.104 113.768 131.112 107.672 131.824 107.56C132.536 107.448 142.016 104.456 141.488 105.96C140.96 107.464 134.288 109.432 134.288 109.432L133.656 110.232C133.656 110.232 139.344 108.376 140.752 108.424C142.16 108.472 142.288 109.824 141.272 110.208C140.256 110.592 135.248 112.056 135.056 112.376C134.864 112.696 140.656 111.04 141.36 111.072C142.336 111.112 143.04 112.344 142.048 112.768C141.456 113.008 135.888 114.288 135.888 114.288C137.605 114.062 139.333 113.929 141.064 113.888C141.92 114.12 141.864 115.16 140.904 115.408C140.256 115.576 136.856 115.728 135.992 115.96C135.992 115.96 135.344 116.504 135.368 118.232C135.392 119.96 133.152 124.544 133.152 124.544L121.888 128.8Z" fill="#FFBE9D"/>
<path d="M141.48 105.92C141.098 106.409 140.626 106.819 140.088 107.128C139.527 107.506 138.932 107.833 138.312 108.104C137.608 108.368 136.824 108.64 136.008 108.904L134.256 109.496L134.352 109.44C133.352 110.523 132.269 111.526 131.112 112.44C132.001 111.272 132.98 110.176 134.04 109.16V109.12H134.096L135.824 108.512L138.12 107.712C138.726 107.466 139.314 107.177 139.88 106.848C140.888 106.312 141.44 105.864 141.48 105.92Z" fill="#EB996E"/>
<path d="M267.792 272.096L138.656 258.792C136.763 258.59 135.027 257.647 133.828 256.169C132.629 254.691 132.063 252.798 132.256 250.904L154.6 33.7999C154.881 31.1079 156.217 28.637 158.317 26.9289C160.416 25.2209 163.107 24.4149 165.8 24.6879L288.936 37.3679C291.628 37.6485 294.099 38.985 295.807 41.0845C297.515 43.184 298.321 45.8751 298.048 48.5679L275.648 265.672C275.452 267.563 274.516 269.3 273.044 270.503C271.572 271.707 269.684 272.279 267.792 272.096Z" fill="#00B071"/>
<path opacity="0.4" d="M267.792 272.096L138.656 258.792C136.763 258.59 135.027 257.647 133.828 256.169C132.629 254.691 132.063 252.798 132.256 250.904L154.6 33.7999C154.881 31.1079 156.217 28.637 158.317 26.9289C160.416 25.2209 163.107 24.4149 165.8 24.6879L288.936 37.3679C291.628 37.6485 294.099 38.985 295.807 41.0845C297.515 43.184 298.321 45.8751 298.048 48.5679L275.648 265.672C275.452 267.563 274.516 269.3 273.044 270.503C271.572 271.707 269.684 272.279 267.792 272.096Z" fill="black"/>
<path d="M254.76 270.752L125.6 257.456C123.706 257.254 121.968 256.31 120.769 254.83C119.569 253.35 119.005 251.455 119.2 249.56L141.6 32.4559C141.737 31.1222 142.135 29.8284 142.772 28.6486C143.409 27.4688 144.272 26.426 145.312 25.5799C146.353 24.7337 147.549 24.1007 148.834 23.7171C150.119 23.3334 151.466 23.2066 152.8 23.344L275.904 35.9999C277.238 36.1369 278.532 36.5352 279.711 37.1722C280.891 37.8092 281.934 38.6723 282.78 39.7124C283.626 40.7525 284.259 41.949 284.643 43.2338C285.027 44.5185 285.153 45.8662 285.016 47.1999L262.616 264.312C262.424 266.206 261.49 267.947 260.017 269.154C258.545 270.36 256.655 270.935 254.76 270.752Z" fill="#00B071"/>
<path d="M189.103 211.658L144.571 207.072C143.507 206.962 142.556 207.735 142.447 208.799L140.642 226.322C140.532 227.386 141.306 228.337 142.369 228.447L186.902 233.033C187.965 233.142 188.916 232.369 189.026 231.305L190.831 213.782C190.94 212.718 190.167 211.767 189.103 211.658Z" fill="#00B071"/>
<g opacity="0.4">
<path d="M189.103 211.658L144.571 207.072C143.507 206.962 142.556 207.735 142.447 208.799L140.642 226.322C140.532 227.386 141.306 228.337 142.369 228.447L186.902 233.033C187.965 233.142 188.916 232.369 189.026 231.305L190.831 213.782C190.94 212.718 190.167 211.767 189.103 211.658Z" fill="black"/>
</g>
<path d="M150.564 47.6153L145.609 95.7208L268.241 108.35L273.195 60.2447L150.564 47.6153Z" fill="#FAFAFA"/>
<path d="M268.248 108.352C268.248 108.352 268.248 108.056 268.32 107.496C268.392 106.936 268.456 106.096 268.56 105.008C268.776 102.816 269.096 99.6 269.512 95.448C270.312 87.152 271.552 75.144 273.056 60.248L273.184 60.408L150.552 47.824L150.784 47.64C149.048 64.44 147.368 80.72 145.816 95.744L145.64 95.52L233.52 104.672L259.04 107.352L265.88 108.088L267.648 108.28L268.256 108.352C268.256 108.352 268.056 108.352 267.664 108.304L265.92 108.136L259.12 107.464L233.6 104.896L145.6 95.92H145.4V95.728C146.944 80.696 148.6 64.44 150.344 47.616V47.408H150.552L273.216 60.104H273.36V60.248C271.76 75.184 270.52 87.224 269.648 95.536C269.208 99.664 268.848 102.872 268.632 105.048C268.512 106.128 268.424 106.952 268.36 107.512L268.248 108.352Z" fill="#263238"/>
<path d="M169.677 117.576L152.146 115.77C151.232 115.676 150.414 116.341 150.32 117.255L148.515 134.786C148.42 135.7 149.085 136.518 149.999 136.612L167.531 138.417C168.445 138.511 169.262 137.847 169.356 136.933L171.162 119.401C171.256 118.487 170.591 117.67 169.677 117.576Z" fill="#00B071"/>
<g opacity="0.4">
<path d="M169.677 117.576L152.146 115.77C151.232 115.676 150.414 116.341 150.32 117.255L148.515 134.786C148.42 135.7 149.085 136.518 149.999 136.612L167.531 138.417C168.445 138.511 169.262 137.847 169.356 136.933L171.162 119.401C171.256 118.487 170.591 117.67 169.677 117.576Z" fill="black"/>
</g>
<path d="M166.464 117.248L148.932 115.442C148.018 115.348 147.201 116.013 147.107 116.927L145.301 134.458C145.207 135.373 145.872 136.19 146.786 136.284L164.317 138.09C165.231 138.184 166.049 137.519 166.143 136.605L167.948 119.074C168.043 118.159 167.378 117.342 166.464 117.248Z" fill="#263238"/>
<path d="M158.544 122.488L157.656 131.2L155.64 130.992L156.368 123.92L154.632 123.736L154.8 122.136L158.544 122.488Z" fill="white"/>
<path d="M198.745 120.577L181.214 118.772C180.299 118.678 179.482 119.342 179.388 120.257L177.582 137.788C177.488 138.702 178.153 139.519 179.067 139.614L196.598 141.419C197.513 141.513 198.33 140.848 198.424 139.934L200.23 122.403C200.324 121.489 199.659 120.671 198.745 120.577Z" fill="#00B071"/>
<g opacity="0.4">
<path d="M198.745 120.577L181.214 118.772C180.299 118.678 179.482 119.342 179.388 120.257L177.582 137.788C177.488 138.702 178.153 139.519 179.067 139.614L196.598 141.419C197.513 141.513 198.33 140.848 198.424 139.934L200.23 122.403C200.324 121.489 199.659 120.671 198.745 120.577Z" fill="black"/>
</g>
<path d="M195.524 120.242L177.993 118.436C177.079 118.342 176.261 119.007 176.167 119.921L174.362 137.452C174.268 138.366 174.932 139.184 175.846 139.278L193.378 141.083C194.292 141.178 195.109 140.513 195.203 139.599L197.009 122.067C197.103 121.153 196.438 120.336 195.524 120.242Z" fill="#263238"/>
<path d="M190.024 132.856L189.856 134.456L183.296 133.784L183.432 132.48L187.104 129.656C187.952 129.008 188.136 128.576 188.176 128.152C188.248 127.472 187.816 127.024 186.896 126.928C186.549 126.879 186.195 126.916 185.866 127.036C185.537 127.156 185.242 127.355 185.008 127.616L183.64 126.52C184.092 126.028 184.659 125.656 185.29 125.437C185.921 125.217 186.596 125.158 187.256 125.264C189.192 125.464 190.384 126.584 190.216 128.16C190.136 129.008 189.816 129.76 188.488 130.752L186.296 132.432L190.024 132.856Z" fill="white"/>
<path d="M228.876 123.68L211.345 121.875C210.431 121.781 209.613 122.445 209.519 123.359L207.714 140.891C207.62 141.805 208.284 142.622 209.198 142.716L226.73 144.522C227.644 144.616 228.461 143.951 228.555 143.037L230.361 125.506C230.455 124.592 229.79 123.774 228.876 123.68Z" fill="#00B071"/>
<g opacity="0.4">
<path d="M228.876 123.68L211.345 121.875C210.431 121.781 209.613 122.445 209.519 123.359L207.714 140.891C207.62 141.805 208.284 142.622 209.199 142.716L226.73 144.522C227.644 144.616 228.461 143.951 228.556 143.037L230.361 125.506C230.455 124.592 229.79 123.774 228.876 123.68Z" fill="black"/>
</g>
<path d="M225.664 123.344L208.132 121.539C207.218 121.445 206.401 122.11 206.307 123.024L204.501 140.555C204.407 141.469 205.072 142.287 205.986 142.381L223.517 144.186C224.431 144.28 225.249 143.616 225.343 142.701L227.148 125.17C227.242 124.256 226.578 123.439 225.664 123.344Z" fill="#263238"/>
<path d="M220.192 134.928C220.04 136.392 218.776 137.616 216.304 137.368C215.137 137.263 214.025 136.821 213.104 136.096L214.04 134.632C214.71 135.223 215.55 135.587 216.44 135.672C217.448 135.776 218.112 135.432 218.184 134.72C218.256 134.008 217.808 133.608 216.672 133.488L215.752 133.392L215.888 132.064L217.88 130.224L214.184 129.848L214.352 128.248L220.432 128.872L220.296 130.176L218.104 132.208C218.735 132.305 219.305 132.642 219.694 133.149C220.083 133.656 220.261 134.293 220.192 134.928Z" fill="white"/>
<path d="M259.016 126.783L241.484 124.978C240.57 124.883 239.753 125.548 239.659 126.462L237.853 143.994C237.759 144.908 238.424 145.725 239.338 145.819L256.869 147.625C257.783 147.719 258.601 147.054 258.695 146.14L260.501 128.609C260.595 127.695 259.93 126.877 259.016 126.783Z" fill="#00B071"/>
<g opacity="0.4">
<path d="M259.016 126.783L241.484 124.978C240.57 124.883 239.753 125.548 239.659 126.462L237.853 143.994C237.759 144.908 238.424 145.725 239.338 145.819L256.869 147.625C257.783 147.719 258.601 147.054 258.695 146.14L260.501 128.609C260.595 127.695 259.93 126.877 259.016 126.783Z" fill="black"/>
</g>
<path d="M255.867 126.446L238.335 124.641C237.421 124.546 236.604 125.211 236.51 126.125L234.704 143.657C234.61 144.571 235.275 145.388 236.189 145.482L253.72 147.288C254.634 147.382 255.452 146.717 255.546 145.803L257.351 128.272C257.446 127.358 256.781 126.54 255.867 126.446Z" fill="#263238"/>
<path d="M241.307 134.743L241.225 135.539L250.536 136.498L250.618 135.702L241.307 134.743Z" fill="white"/>
<path d="M247.864 131.728C247.834 132.027 247.716 132.311 247.525 132.543C247.334 132.775 247.078 132.945 246.79 133.032C246.502 133.118 246.195 133.118 245.907 133.03C245.62 132.942 245.365 132.771 245.175 132.538C244.984 132.305 244.867 132.021 244.839 131.722C244.81 131.423 244.87 131.122 245.013 130.857C245.155 130.592 245.373 130.375 245.638 130.234C245.903 130.093 246.205 130.034 246.504 130.064C246.905 130.104 247.273 130.302 247.528 130.614C247.784 130.926 247.904 131.327 247.864 131.728Z" fill="white"/>
<path d="M247.024 139.848C246.994 140.147 246.875 140.431 246.684 140.663C246.492 140.895 246.236 141.065 245.948 141.152C245.659 141.238 245.352 141.237 245.064 141.148C244.777 141.059 244.522 140.887 244.332 140.654C244.142 140.42 244.026 140.136 243.998 139.836C243.97 139.536 244.032 139.235 244.176 138.971C244.319 138.706 244.538 138.49 244.804 138.35C245.071 138.21 245.373 138.152 245.672 138.184C246.072 138.226 246.438 138.425 246.691 138.737C246.945 139.049 247.064 139.448 247.024 139.848Z" fill="white"/>
<path d="M166.533 148.117L149.002 146.311C148.088 146.217 147.27 146.882 147.176 147.796L145.371 165.327C145.277 166.242 145.941 167.059 146.856 167.153L164.387 168.959C165.301 169.053 166.118 168.388 166.213 167.474L168.018 149.943C168.112 149.028 167.447 148.211 166.533 148.117Z" fill="#00B071"/>
<g opacity="0.4">
<path d="M166.533 148.117L149.002 146.311C148.088 146.217 147.271 146.882 147.176 147.796L145.371 165.327C145.277 166.242 145.942 167.059 146.856 167.153L164.387 168.959C165.301 169.053 166.119 168.388 166.213 167.474L168.018 149.943C168.112 149.028 167.448 148.211 166.533 148.117Z" fill="black"/>
</g>
<path d="M163.32 147.789L145.789 145.984C144.874 145.889 144.057 146.554 143.963 147.468L142.157 165C142.063 165.914 142.728 166.731 143.642 166.825L161.173 168.631C162.088 168.725 162.905 168.06 162.999 167.146L164.805 149.615C164.899 148.701 164.234 147.883 163.32 147.789Z" fill="#263238"/>
<path d="M157.232 160.144L155.816 160L155.624 161.824L153.664 161.624L153.856 159.8L149.176 159.312L149.312 157.96L153.976 152.872L156.088 153.096L151.752 157.896L154.088 158.136L154.256 156.536L156.152 156.728L155.984 158.328L157.4 158.472L157.232 160.144Z" fill="white"/>
<path d="M195.601 151.11L178.07 149.305C177.156 149.211 176.338 149.876 176.244 150.79L174.439 168.321C174.344 169.235 175.009 170.053 175.923 170.147L193.455 171.952C194.369 172.046 195.186 171.382 195.28 170.467L197.086 152.936C197.18 152.022 196.515 151.205 195.601 151.11Z" fill="#00B071"/>
<g opacity="0.4">
<path d="M195.601 151.11L178.07 149.305C177.156 149.211 176.338 149.876 176.244 150.79L174.439 168.321C174.344 169.235 175.009 170.053 175.923 170.147L193.455 171.952C194.369 172.046 195.186 171.382 195.28 170.467L197.086 152.936C197.18 152.022 196.515 151.205 195.601 151.11Z" fill="black"/>
</g>
<path d="M192.388 150.775L174.857 148.969C173.943 148.875 173.126 149.54 173.031 150.454L171.226 167.985C171.132 168.9 171.797 169.717 172.711 169.811L190.242 171.617C191.156 171.711 191.974 171.046 192.068 170.132L193.873 152.601C193.967 151.686 193.303 150.869 192.388 150.775Z" fill="#263238"/>
<path d="M186.032 162.2C185.88 163.736 184.608 164.96 182.128 164.704C180.961 164.598 179.85 164.156 178.928 163.432L179.88 161.976C180.549 162.567 181.39 162.929 182.28 163.008C183.288 163.112 183.952 162.76 184.024 162.048C184.096 161.336 183.696 160.872 182.12 160.712L179.896 160.48L180.848 155.68L186.144 156.224L185.984 157.824L182.36 157.448L182.048 159.088L182.76 159.16C185.296 159.4 186.192 160.656 186.032 162.2Z" fill="white"/>
<path d="M225.74 154.213L208.209 152.408C207.295 152.314 206.478 152.979 206.383 153.893L204.578 171.424C204.484 172.338 205.149 173.156 206.063 173.25L223.594 175.055C224.508 175.149 225.326 174.485 225.42 173.57L227.225 156.039C227.319 155.125 226.655 154.308 225.74 154.213Z" fill="#00B071"/>
<g opacity="0.4">
<path d="M225.741 154.213L208.209 152.408C207.295 152.314 206.478 152.979 206.384 153.893L204.578 171.424C204.484 172.338 205.149 173.156 206.063 173.25L223.594 175.055C224.508 175.149 225.326 174.485 225.42 173.57L227.225 156.039C227.32 155.125 226.655 154.308 225.741 154.213Z" fill="black"/>
</g>
<path d="M222.52 153.878L204.989 152.072C204.074 151.978 203.257 152.643 203.163 153.557L201.357 171.088C201.263 172.002 201.928 172.82 202.842 172.914L220.373 174.719C221.288 174.814 222.105 174.149 222.199 173.235L224.005 155.703C224.099 154.789 223.434 153.972 222.52 153.878Z" fill="#263238"/>
<path d="M216.8 165.352C216.616 167.128 215.048 168.096 213.216 167.904C210.816 167.656 209.488 166 209.776 163.2C210.088 160.192 212.072 158.704 214.688 158.976C215.537 159.041 216.352 159.334 217.048 159.824L216.152 161.224C215.692 160.866 215.134 160.654 214.552 160.616C213.096 160.472 212.08 161.232 211.848 162.888C212.164 162.653 212.523 162.483 212.905 162.389C213.286 162.294 213.683 162.276 214.072 162.336C214.454 162.34 214.831 162.423 215.179 162.58C215.528 162.737 215.84 162.964 216.096 163.247C216.352 163.53 216.547 163.864 216.668 164.226C216.789 164.588 216.834 164.972 216.8 165.352ZM214.84 165.248C214.861 165.062 214.841 164.874 214.783 164.696C214.725 164.518 214.629 164.354 214.503 164.217C214.376 164.079 214.221 163.969 214.049 163.896C213.877 163.823 213.691 163.787 213.504 163.792C213.32 163.753 213.13 163.752 212.946 163.79C212.761 163.827 212.587 163.902 212.433 164.011C212.279 164.119 212.149 164.257 212.051 164.418C211.953 164.579 211.89 164.758 211.864 164.944C211.784 165.688 212.288 166.288 213.256 166.392C213.435 166.429 213.619 166.428 213.797 166.389C213.975 166.35 214.143 166.274 214.29 166.166C214.437 166.058 214.56 165.921 214.65 165.763C214.741 165.605 214.797 165.429 214.816 165.248H214.84Z" fill="white"/>
<path d="M255.864 157.316L238.333 155.51C237.419 155.416 236.601 156.081 236.507 156.995L234.702 174.526C234.607 175.44 235.272 176.258 236.186 176.352L253.718 178.157C254.632 178.251 255.449 177.587 255.543 176.673L257.349 159.141C257.443 158.227 256.778 157.41 255.864 157.316Z" fill="#00B071"/>
<g opacity="0.4">
<path d="M255.864 157.316L238.333 155.51C237.419 155.416 236.601 156.081 236.507 156.995L234.702 174.526C234.607 175.44 235.272 176.258 236.186 176.352L253.718 178.157C254.632 178.251 255.449 177.587 255.543 176.673L257.349 159.141C257.443 158.227 256.778 157.41 255.864 157.316Z" fill="black"/>
</g>
<path d="M252.651 156.98L235.12 155.174C234.206 155.08 233.389 155.745 233.294 156.659L231.489 174.19C231.395 175.105 232.059 175.922 232.974 176.016L250.505 177.822C251.419 177.916 252.236 177.251 252.331 176.337L254.136 158.806C254.23 157.891 253.566 157.074 252.651 156.98Z" fill="#263238"/>
<path d="M246.231 163.292L238.882 169.088L239.377 169.717L246.727 163.921L246.231 163.292Z" fill="white"/>
<path d="M240.17 162.654L239.55 163.159L245.455 170.421L246.076 169.916L240.17 162.654Z" fill="white"/>
<path d="M163.415 178.406L145.884 176.6C144.969 176.506 144.152 177.171 144.058 178.085L142.252 195.616C142.158 196.53 142.823 197.348 143.737 197.442L161.268 199.248C162.183 199.342 163 198.677 163.094 197.763L164.9 180.231C164.994 179.317 164.329 178.5 163.415 178.406Z" fill="#00B071"/>
<g opacity="0.4">
<path d="M163.415 178.406L145.884 176.6C144.969 176.506 144.152 177.171 144.058 178.085L142.252 195.616C142.158 196.53 142.823 197.348 143.737 197.442L161.268 199.248C162.183 199.342 163 198.677 163.094 197.763L164.9 180.231C164.994 179.317 164.329 178.5 163.415 178.406Z" fill="black"/>
</g>
<path d="M160.201 178.078L142.67 176.273C141.756 176.178 140.939 176.843 140.844 177.757L139.039 195.289C138.945 196.203 139.61 197.02 140.524 197.114L158.055 198.92C158.969 199.014 159.787 198.349 159.881 197.435L161.686 179.904C161.78 178.99 161.116 178.172 160.201 178.078Z" fill="#263238"/>
<path d="M153.664 183.448L153.528 184.752L149.528 191.808L147.344 191.576L151.184 184.848L148.304 184.552L148.16 185.968L146.368 185.784L146.688 182.736L153.664 183.448Z" fill="white"/>
<path d="M192.483 181.4L174.951 179.594C174.037 179.5 173.22 180.165 173.126 181.079L171.32 198.61C171.226 199.524 171.891 200.342 172.805 200.436L190.336 202.241C191.25 202.335 192.068 201.671 192.162 200.757L193.967 183.225C194.062 182.311 193.397 181.494 192.483 181.4Z" fill="#00B071"/>
<g opacity="0.4">
<path d="M192.483 181.4L174.951 179.594C174.037 179.5 173.22 180.165 173.126 181.079L171.32 198.61C171.226 199.524 171.891 200.342 172.805 200.436L190.336 202.241C191.25 202.335 192.068 201.671 192.162 200.757L193.967 183.225C194.062 182.311 193.397 181.494 192.483 181.4Z" fill="black"/>
</g>
<path d="M189.262 181.064L171.731 179.258C170.817 179.164 169.999 179.829 169.905 180.743L168.099 198.274C168.005 199.189 168.67 200.006 169.584 200.1L187.116 201.906C188.03 202 188.847 201.335 188.941 200.421L190.747 182.89C190.841 181.975 190.176 181.158 189.262 181.064Z" fill="#263238"/>
<path d="M183.6 192.8C183.432 194.4 181.864 195.32 179.656 195.088C177.448 194.856 176.112 193.68 176.28 192.048C176.318 191.614 176.483 191.201 176.755 190.861C177.027 190.521 177.393 190.268 177.808 190.136C177.517 189.92 177.29 189.631 177.149 189.297C177.008 188.964 176.96 188.599 177.008 188.24C177.168 186.712 178.608 185.904 180.6 186.104C182.592 186.304 183.864 187.408 183.712 188.936C183.68 189.298 183.55 189.646 183.338 189.941C183.125 190.237 182.837 190.47 182.504 190.616C182.881 190.832 183.187 191.154 183.382 191.542C183.577 191.931 183.653 192.368 183.6 192.8ZM181.568 192.528C181.648 191.728 181.064 191.224 180.064 191.12C179.064 191.016 178.4 191.424 178.32 192.192C178.24 192.96 178.808 193.512 179.808 193.616C180.808 193.72 181.496 193.264 181.6 192.496L181.568 192.528ZM178.976 188.528C178.904 189.184 179.384 189.648 180.2 189.736C181.016 189.824 181.608 189.464 181.68 188.808C181.752 188.152 181.248 187.656 180.424 187.576C179.6 187.496 179.04 187.824 178.976 188.504V188.528Z" fill="white"/>
<path d="M222.614 184.502L205.083 182.697C204.169 182.603 203.351 183.268 203.257 184.182L201.452 201.713C201.357 202.627 202.022 203.445 202.936 203.539L220.468 205.344C221.382 205.438 222.199 204.774 222.293 203.859L224.099 186.328C224.193 185.414 223.528 184.597 222.614 184.502Z" fill="#00B071"/>
<g opacity="0.4">
<path d="M222.614 184.502L205.083 182.697C204.169 182.603 203.351 183.268 203.257 184.182L201.452 201.713C201.357 202.627 202.022 203.445 202.936 203.539L220.468 205.344C221.382 205.438 222.199 204.774 222.293 203.859L224.099 186.328C224.193 185.414 223.528 184.597 222.614 184.502Z" fill="black"/>
</g>
<path d="M218.815 182.765L201.367 181.002C200.457 180.91 199.645 181.573 199.553 182.483L197.791 199.931C197.699 200.841 198.362 201.653 199.272 201.745L216.72 203.507C217.629 203.599 218.441 202.936 218.533 202.026L220.296 184.578C220.388 183.669 219.725 182.857 218.815 182.765Z" fill="#263238"/>
<path d="M213.6 193.824C213.288 196.832 211.32 198.32 208.688 198.048C207.845 197.986 207.035 197.696 206.344 197.208L207.24 195.808C207.699 196.167 208.258 196.377 208.84 196.408C210.28 196.552 211.312 195.792 211.544 194.128C211.226 194.365 210.865 194.536 210.48 194.632C210.096 194.728 209.696 194.747 209.304 194.688C208.924 194.681 208.549 194.595 208.203 194.437C207.857 194.279 207.548 194.051 207.293 193.769C207.039 193.486 206.846 193.154 206.725 192.793C206.604 192.432 206.559 192.051 206.592 191.672C206.776 189.896 208.344 188.928 210.184 189.12C212.576 189.368 213.896 191.024 213.6 193.824ZM211.512 192.08C211.584 191.336 211.08 190.736 210.128 190.632C209.948 190.597 209.763 190.6 209.584 190.641C209.406 190.683 209.238 190.761 209.091 190.871C208.944 190.981 208.822 191.12 208.733 191.28C208.644 191.44 208.589 191.617 208.572 191.799C208.555 191.982 208.577 192.166 208.635 192.34C208.694 192.513 208.788 192.673 208.912 192.808C209.036 192.943 209.187 193.05 209.355 193.123C209.523 193.196 209.705 193.233 209.888 193.232C210.071 193.271 210.261 193.272 210.445 193.234C210.629 193.197 210.803 193.121 210.956 193.013C211.109 192.905 211.239 192.766 211.336 192.605C211.433 192.445 211.495 192.266 211.52 192.08H211.512Z" fill="white"/>
<path d="M252.746 187.605L235.214 185.799C234.3 185.705 233.483 186.37 233.389 187.284L231.583 204.815C231.489 205.729 232.154 206.547 233.068 206.641L250.599 208.446C251.513 208.541 252.331 207.876 252.425 206.962L254.23 189.43C254.325 188.516 253.66 187.699 252.746 187.605Z" fill="#00B071"/>
<g opacity="0.4">
<path d="M252.746 187.605L235.214 185.799C234.3 185.705 233.483 186.37 233.389 187.284L231.583 204.815C231.489 205.729 232.154 206.547 233.068 206.641L250.599 208.446C251.513 208.541 252.331 207.876 252.425 206.962L254.23 189.43C254.325 188.516 253.66 187.699 252.746 187.605Z" fill="black"/>
</g>
<path d="M249.533 187.269L232.002 185.463C231.088 185.369 230.27 186.034 230.176 186.948L228.37 204.48C228.276 205.394 228.941 206.211 229.855 206.305L247.387 208.111C248.301 208.205 249.118 207.54 249.212 206.626L251.018 189.095C251.112 188.18 250.447 187.363 249.533 187.269Z" fill="#263238"/>
<path d="M235.081 195.929L234.999 196.725L244.31 197.684L244.392 196.888L235.081 195.929Z" fill="white"/>
<path d="M219.469 215.059L201.937 213.253C201.023 213.159 200.206 213.824 200.112 214.738L198.306 232.269C198.212 233.184 198.877 234.001 199.791 234.095L217.322 235.901C218.236 235.995 219.054 235.33 219.148 234.416L220.954 216.885C221.048 215.97 220.383 215.153 219.469 215.059Z" fill="#00B071"/>
<g opacity="0.4">
<path d="M219.469 215.059L201.937 213.253C201.023 213.159 200.206 213.824 200.112 214.738L198.306 232.269C198.212 233.184 198.877 234.001 199.791 234.095L217.322 235.901C218.236 235.995 219.054 235.33 219.148 234.416L220.954 216.885C221.048 215.97 220.383 215.153 219.469 215.059Z" fill="black"/>
</g>
<path d="M216.248 214.723L198.717 212.918C197.803 212.824 196.985 213.488 196.891 214.402L195.086 231.934C194.991 232.848 195.656 233.665 196.57 233.759L214.102 235.565C215.016 235.659 215.833 234.994 215.927 234.08L217.733 216.549C217.827 215.635 217.162 214.817 216.248 214.723Z" fill="#263238"/>
<path d="M249.6 218.162L232.069 216.356C231.155 216.262 230.337 216.927 230.243 217.841L228.438 235.372C228.344 236.286 229.008 237.104 229.922 237.198L247.454 239.004C248.368 239.098 249.185 238.433 249.279 237.519L251.085 219.987C251.179 219.073 250.514 218.256 249.6 218.162Z" fill="#00B071"/>
<g opacity="0.4">
<path d="M249.6 218.162L232.069 216.356C231.155 216.262 230.337 216.927 230.243 217.841L228.438 235.372C228.344 236.286 229.008 237.104 229.923 237.198L247.454 239.004C248.368 239.098 249.185 238.433 249.28 237.519L251.085 219.987C251.179 219.073 250.514 218.256 249.6 218.162Z" fill="black"/>
</g>
<path d="M246.388 217.826L228.856 216.021C227.942 215.926 227.125 216.591 227.031 217.505L225.225 235.037C225.131 235.951 225.796 236.768 226.71 236.862L244.241 238.668C245.155 238.762 245.973 238.097 246.067 237.183L247.872 219.652C247.966 218.738 247.302 217.92 246.388 217.826Z" fill="#455A64"/>
<path d="M232.056 225.349L231.974 226.145L241.285 227.104L241.366 226.308L232.056 225.349Z" fill="white"/>
<path d="M231.696 228.886L231.614 229.682L240.925 230.641L241.007 229.845L231.696 228.886Z" fill="white"/>
<path d="M185.128 211.246L138.789 206.474C137.69 206.361 136.708 207.16 136.594 208.258L134.803 225.654C134.69 226.753 135.489 227.735 136.587 227.849L182.926 232.621C184.025 232.734 185.008 231.935 185.121 230.836L186.912 213.44C187.025 212.342 186.226 211.359 185.128 211.246Z" fill="#263238"/>
<path d="M158.976 218.944C159.272 216.072 161.032 214.616 163.168 214.832C165.304 215.048 166.72 216.84 166.424 219.712C166.128 222.584 164.384 224.04 162.24 223.816C160.096 223.592 158.68 221.808 158.976 218.944ZM164.4 219.504C164.608 217.528 163.992 216.64 162.992 216.536C161.992 216.432 161.216 217.176 161.016 219.152C160.816 221.128 161.424 222.016 162.416 222.12C163.408 222.224 164.2 221.472 164.4 219.504Z" fill="white"/>
<path d="M206.555 219.543L205.458 228.839L206.253 228.933L207.35 219.637L206.555 219.543Z" fill="white"/>
<path d="M201.799 223.374L201.717 224.17L211.028 225.128L211.11 224.333L201.799 223.374Z" fill="white"/>
<path d="M197.44 76.9919L196.104 89.9759L195.488 89.9119L196.8 77.5039L193.536 77.1679L193.592 76.5919L197.44 76.9919Z" fill="#263238"/>
<path d="M208.112 90.6319L208.048 91.2079L199.248 90.3039L199.296 89.8559L205.44 84.8239C207.2 83.3919 207.624 82.4799 207.736 81.4239C207.912 79.6959 206.824 78.4639 204.536 78.2239C203.817 78.0946 203.078 78.1311 202.375 78.3307C201.672 78.5304 201.024 78.8879 200.48 79.3759L200.096 78.9279C200.708 78.3943 201.431 78.0028 202.213 77.7815C202.994 77.5602 203.815 77.5146 204.616 77.6479C207.096 77.9039 208.544 79.3439 208.328 81.4399C208.2 82.6719 207.704 83.7039 205.816 85.2319L200.216 89.8159L208.112 90.6319Z" fill="#263238"/>
<path d="M218.4 88.6319C218.176 90.7919 216.504 92.1519 213.648 91.8319C212.806 91.7867 211.984 91.5612 211.238 91.1706C210.491 90.78 209.837 90.2334 209.32 89.5679L209.704 89.1599C210.18 89.7773 210.784 90.2843 211.474 90.6461C212.165 91.0079 212.925 91.216 213.704 91.2559C216.184 91.5119 217.608 90.4559 217.808 88.5519C218.008 86.6479 216.864 85.3519 214.112 85.0399L213.392 84.9599L213.44 84.5199L218.024 79.6639L210.864 78.9279L210.92 78.3519L218.92 79.1519L218.872 79.5919L214.264 84.4639C217.272 84.7999 218.624 86.4639 218.4 88.6319Z" fill="#263238"/>
<path d="M231.2 89.8L228.376 89.512L227.992 93.264L227.376 93.2L227.76 89.448L220.304 88.648L220.352 88.2L228.44 80.152L229.16 80.224L221.16 88.176L227.808 88.864L228.144 85.56L228.76 85.624L228.416 88.92L231.24 89.216L231.2 89.8Z" fill="#263238"/>
<path d="M233.896 93.304C233.859 93.5365 233.797 93.7644 233.712 93.984L232.784 96.384L232.304 96.336L233.144 93.832C232.983 93.8054 232.839 93.7159 232.743 93.5832C232.648 93.4504 232.609 93.2852 232.636 93.124C232.662 92.9627 232.752 92.8186 232.885 92.7233C233.018 92.6281 233.183 92.5894 233.344 92.616C233.507 92.6361 233.657 92.7192 233.76 92.8477C233.863 92.9763 233.912 93.14 233.896 93.304Z" fill="#263238"/>
<path d="M246.76 91.4079L243.944 91.1199L243.56 94.8639L242.944 94.7999L243.328 91.0559L235.872 90.2559L235.92 89.8079L244 81.7839L244.72 81.8639L236.72 89.8159L243.368 90.4959L243.704 87.1919L244.32 87.2559L244 90.5599L246.824 90.8479L246.76 91.4079Z" fill="#263238"/>
<path d="M256.408 92.4799C256.184 94.5919 254.552 96.0719 251.608 95.7679C250.77 95.7199 249.953 95.4929 249.211 95.1024C248.468 94.7119 247.818 94.1668 247.304 93.5039L247.704 93.0959C248.178 93.7157 248.781 94.2244 249.472 94.5864C250.163 94.9485 250.925 95.1551 251.704 95.1919C254.24 95.4559 255.624 94.2479 255.816 92.4079C256.024 90.4079 254.952 89.0959 251.24 88.7119L248.72 88.4559L250 82.3999L256.696 83.0959L256.64 83.6719L250.456 83.0319L249.392 87.9439L251.392 88.1519C255.36 88.5599 256.64 90.1759 256.408 92.4799Z" fill="#263238"/>
<path d="M114.496 358.536L109.408 377.344L125.944 378.848L129.416 360.944L114.496 358.536Z" fill="#00B071"/>
<path d="M126.4 377.32C125.599 377.377 124.795 377.35 124 377.24C122.512 377.12 120.464 376.888 118.2 376.6L112.424 375.8C111.612 375.739 110.809 375.6 110.024 375.384C110.825 375.338 111.629 375.37 112.424 375.48C113.912 375.6 115.96 375.832 118.224 376.12L124 376.92C124.81 376.985 125.613 377.119 126.4 377.32Z" fill="#263238"/>
<g opacity="0.6">
<path d="M109.408 377.344L125.944 378.848L126.208 377.472L109.888 375.4L109.432 377.152" fill="white"/>
</g>
<path d="M117.6 376.504C118.529 371.674 119.704 366.894 121.12 362.184C120.713 364.61 120.179 367.014 119.52 369.384C119.003 371.789 118.363 374.165 117.6 376.504Z" fill="#263238"/>
<path d="M125.512 377.2C125.772 376.049 125.772 374.855 125.512 373.704C125.222 372.468 124.596 371.336 123.704 370.432C122.592 369.347 121.14 368.677 119.592 368.536C118.047 368.376 116.492 368.731 115.168 369.544C114.094 370.226 113.208 371.166 112.592 372.28C112.044 373.325 111.689 374.461 111.544 375.632C111.533 375.55 111.533 375.466 111.544 375.384C111.541 375.146 111.554 374.908 111.584 374.672C111.699 373.791 111.97 372.938 112.384 372.152C112.991 370.97 113.896 369.967 115.008 369.24C116.393 368.364 118.034 367.981 119.664 368.152C121.299 368.301 122.83 369.017 123.992 370.176C124.912 371.137 125.544 372.337 125.816 373.64C125.995 374.511 125.995 375.409 125.816 376.28C125.765 376.514 125.695 376.744 125.608 376.968C125.587 377.049 125.554 377.127 125.512 377.2Z" fill="#263238"/>
<path d="M182.696 356.392L181.712 371.2C181.712 371.2 196.448 376.088 196.536 378.84L167.736 379.048L168.32 355.912L182.696 356.392Z" fill="#00B071"/>
<g opacity="0.6">
<path d="M172.848 369.688C172.568 369.765 172.327 369.942 172.169 370.185C172.011 370.429 171.948 370.721 171.992 371.008C172.057 371.291 172.229 371.538 172.472 371.698C172.715 371.857 173.01 371.917 173.296 371.864C173.591 371.781 173.846 371.593 174.011 371.335C174.176 371.077 174.241 370.767 174.192 370.464C174.093 370.177 173.887 369.94 173.617 369.801C173.348 369.662 173.035 369.633 172.744 369.72" fill="white"/>
</g>
<g opacity="0.6">
<path d="M167.736 379.064L167.888 376.728L195.616 377.528C195.909 377.679 196.16 377.901 196.345 378.173C196.531 378.446 196.646 378.76 196.68 379.088L167.736 379.064Z" fill="white"/>
</g>
<path d="M182.184 371.072C182.184 371.216 181.472 371.256 180.76 371.688C180.048 372.12 179.672 372.696 179.544 372.64C179.416 372.584 179.648 371.776 180.512 371.264C181.376 370.752 182.216 370.944 182.184 371.072Z" fill="#263238"/>
<path d="M185.16 372.416C185.16 372.552 184.576 372.768 184.08 373.352C183.584 373.936 183.424 374.552 183.28 374.544C183.136 374.536 183.072 373.744 183.704 373.024C184.336 372.304 185.168 372.28 185.16 372.416Z" fill="#263238"/>
<path d="M186.768 376.08C186.64 376.08 186.464 375.392 186.848 374.64C187.232 373.888 187.904 373.592 187.96 373.712C188.016 373.832 187.592 374.232 187.288 374.856C186.984 375.48 186.912 376.072 186.768 376.08Z" fill="#263238"/>
<path d="M182.032 367.672C181.968 367.8 181.328 367.584 180.536 367.616C179.744 367.648 179.112 367.88 179.04 367.752C178.968 367.624 179.584 367.152 180.52 367.128C181.456 367.104 182.104 367.568 182.032 367.672Z" fill="#263238"/>
<g opacity="0.3">
<path d="M182.496 359.328L182.32 361.968L168.176 361.408L168.232 359.032L182.496 359.328Z" fill="black"/>
</g>
<path d="M182.176 364.68C181.7 364.792 181.203 364.776 180.736 364.632C180.218 364.523 179.716 364.351 179.24 364.12C178.962 363.986 178.694 363.831 178.44 363.656C178.279 363.564 178.136 363.445 178.016 363.304C177.926 363.201 177.873 363.071 177.865 362.935C177.858 362.798 177.897 362.664 177.976 362.552C178.05 362.458 178.145 362.381 178.253 362.329C178.361 362.276 178.48 362.248 178.6 362.248C178.783 362.252 178.963 362.284 179.136 362.344C179.442 362.427 179.74 362.539 180.024 362.68C180.505 362.912 180.945 363.22 181.328 363.592C181.976 364.232 182.192 364.76 182.128 364.784C182.064 364.808 181.752 364.384 181.088 363.848C180.702 363.54 180.277 363.284 179.824 363.088C179.566 362.972 179.298 362.878 179.024 362.808C178.72 362.72 178.464 362.704 178.376 362.808C178.288 362.912 178.376 362.88 178.376 362.968C178.468 363.069 178.573 363.158 178.688 363.232C178.939 363.403 179.187 363.555 179.432 363.688C179.872 363.922 180.332 364.115 180.808 364.264C181.272 364.374 181.729 364.513 182.176 364.68Z" fill="#263238"/>
<path d="M181.984 364.88C181.73 364.456 181.612 363.965 181.648 363.472C181.633 362.628 181.855 361.796 182.288 361.072C182.37 360.884 182.5 360.72 182.664 360.597C182.828 360.474 183.021 360.395 183.224 360.368C183.353 360.373 183.478 360.416 183.583 360.492C183.688 360.567 183.769 360.671 183.816 360.792C183.885 360.961 183.93 361.139 183.952 361.32C184.002 361.752 183.966 362.191 183.847 362.609C183.727 363.028 183.527 363.419 183.256 363.76C182.672 364.496 182.08 364.64 182.072 364.56C182.064 364.48 182.528 364.232 182.976 363.528C183.237 363.124 183.406 362.668 183.472 362.192C183.512 361.913 183.512 361.63 183.472 361.352C183.472 361.048 183.328 360.8 183.216 360.824C183.104 360.848 182.824 361.04 182.696 361.28C182.548 361.536 182.419 361.804 182.312 362.08C182.14 362.537 182.032 363.017 181.992 363.504C181.928 364.328 182.064 364.856 181.984 364.88Z" fill="#263238"/>
<path d="M120.248 125.712C120.248 125.712 117.12 142.752 114.648 153.064C112.696 161.064 107.656 176.088 116.784 180.448C125.912 184.808 138.152 167.2 138.152 167.2L143.36 127.088C139.736 127.768 135.624 131.976 131.248 138.16L132.048 122.96L120.248 125.712Z" fill="#455A64"/>
<path d="M245.864 150.888L241.064 153.176L236.64 146.24L239.224 140.888C239.472 140.392 239.736 139.84 240.024 139.2C240.344 138.451 240.536 137.653 240.592 136.84C240.703 135.839 240.679 134.827 240.52 133.832C240.28 132.936 241.224 132.232 241.864 132.728C242.504 133.224 243.224 135.688 242.752 138.64C242.28 141.592 245.704 138.464 246.976 137.344C248.248 136.224 252.336 132.96 252.984 133.088C253.92 133.272 253.896 134.344 252.6 135.424C251.304 136.504 247.648 140.048 248.248 140.704C248.997 140.788 249.702 141.104 250.264 141.607C250.826 142.11 251.218 142.776 251.384 143.512C251.704 144.96 251.968 146.968 251.152 147.632C249.461 148.83 247.695 149.917 245.864 150.888Z" fill="#FFBE9D"/>
<path d="M152.8 86.2319L152.672 127.92L170.544 128.8L171.064 118.664C171.064 118.664 177.416 119.928 179.064 114.024C180.112 110.256 179.864 81.1279 179.864 81.1279L152.8 86.2319Z" fill="#FFBE9D"/>
<path d="M183.88 85.2079C182.672 87.6959 176.936 92.2559 176.936 92.2559L174.344 99.1999C172.096 97.4399 169.072 97.5439 168.504 101.496C168.088 104.36 171.64 104.936 171.64 104.936C169.568 108.456 168.168 111.336 165.16 114.648C161.896 118.28 160.072 118.648 156.536 118.704H152.632C152.632 118.704 144.632 112.032 146.232 94.4719C147.832 76.9119 163.6 82.0399 167.368 77.6719C173.504 70.5039 187.904 76.8959 183.88 85.2079Z" fill="#263238"/>
<path d="M147.12 109.152H147.616C148.092 109.143 148.566 109.09 149.032 108.992C150.742 108.603 152.322 107.776 153.616 106.592C155.472 104.77 157.037 102.673 158.256 100.376C159.056 99.12 159.808 97.784 160.768 96.496C161.735 95.1424 162.922 93.9607 164.28 93C165.677 92.0952 167.22 91.4376 168.84 91.056C170.392 90.656 171.92 90.408 173.36 90.128C176.24 89.592 178.824 88.792 180.56 87.424C181.981 86.3846 183.01 84.8964 183.48 83.2C183.593 82.7391 183.653 82.2666 183.656 81.792C183.656 81.464 183.656 81.288 183.656 81.288C183.656 81.288 183.656 81.464 183.712 81.792C183.722 82.2707 183.674 82.749 183.568 83.216C183.113 84.9392 182.086 86.4567 180.656 87.52C178.88 88.912 176.272 89.736 173.392 90.272C171.944 90.56 170.424 90.808 168.88 91.216C167.278 91.5966 165.753 92.2458 164.368 93.136C163.031 94.0919 161.858 95.2592 160.896 96.592C159.944 97.872 159.152 99.2 158.392 100.456C157.158 102.761 155.574 104.86 153.696 106.68C152.385 107.875 150.782 108.703 149.048 109.08C148.576 109.172 148.097 109.218 147.616 109.216C147.288 109.176 147.12 109.152 147.12 109.152Z" fill="#455A64"/>
<path d="M146.2 94.8719C146.2 94.8719 146.48 94.7599 147 94.5839C147.796 94.3038 148.619 94.1081 149.456 93.9999C150.788 93.7969 152.148 94.0809 153.288 94.7999C153.64 95.034 153.942 95.3355 154.177 95.687C154.412 96.0386 154.575 96.4331 154.656 96.8479C154.751 97.3161 154.728 97.8007 154.588 98.2576C154.449 98.7145 154.197 99.1292 153.856 99.4639C153.467 99.8056 152.973 100.003 152.456 100.024C151.919 100.032 151.39 99.8907 150.928 99.6159C149.948 99.0347 149.219 98.1113 148.88 97.0239C148.495 95.878 148.442 94.6465 148.728 93.4719C149.022 92.2308 149.696 91.1122 150.656 90.2719C151.66 89.3718 152.923 88.8118 154.264 88.6719C155.653 88.5851 157.046 88.7644 158.368 89.1999C159.728 89.6364 161.118 89.9707 162.528 90.1999C163.983 90.392 165.457 90.392 166.912 90.1999C168.368 90.0266 169.79 89.6328 171.128 89.0319C171.782 88.7682 172.373 88.3677 172.86 87.8572C173.347 87.3467 173.719 86.738 173.952 86.0719C174.143 85.4197 174.156 84.7285 173.992 84.0692C173.827 83.4099 173.491 82.8062 173.016 82.3199C172.533 81.8837 171.933 81.6001 171.289 81.5047C170.646 81.4093 169.988 81.5065 169.4 81.7839C168.827 82.0354 168.358 82.476 168.072 83.0319C167.799 83.5785 167.699 84.195 167.784 84.7999C167.866 85.379 168.07 85.934 168.383 86.4278C168.696 86.9217 169.111 87.3431 169.6 87.6639C170.541 88.2413 171.624 88.546 172.728 88.5439C173.746 88.5622 174.76 88.4108 175.728 88.0959C177.405 87.5681 178.929 86.64 180.168 85.3919C181.11 84.4641 181.887 83.3818 182.464 82.1919C182.828 81.4239 183.11 80.6194 183.304 79.7919C183.408 79.2319 183.48 78.9359 183.48 78.9359L183.336 79.7999C183.158 80.6269 182.89 81.4318 182.536 82.1999C181.971 83.4117 181.197 84.514 180.248 85.4559C179.006 86.7232 177.474 87.668 175.784 88.2079C174.802 88.5249 173.776 88.6816 172.744 88.6719C171.615 88.679 170.507 88.3715 169.544 87.7839C169.036 87.454 168.605 87.0191 168.279 86.5085C167.954 85.9979 167.741 85.4235 167.656 84.8239C167.562 84.1895 167.665 83.5415 167.952 82.9679C168.256 82.382 168.749 81.9166 169.352 81.6479C169.968 81.3556 170.658 81.2527 171.333 81.3524C172.008 81.4521 172.638 81.7498 173.144 82.2079C173.638 82.7136 173.99 83.3413 174.163 84.0271C174.336 84.7129 174.324 85.4323 174.128 86.1119C173.888 86.801 173.504 87.4312 173.002 87.9608C172.5 88.4904 171.891 88.9073 171.216 89.1839C169.862 89.7891 168.424 90.1882 166.952 90.3679C165.481 90.556 163.991 90.556 162.52 90.3679C161.105 90.1367 159.71 89.8025 158.344 89.3679C157.04 88.9396 155.667 88.7579 154.296 88.8319C153.366 88.931 152.47 89.2373 151.674 89.7284C150.878 90.2195 150.202 90.8828 149.696 91.6695C149.191 92.4562 148.868 93.3463 148.751 94.2743C148.635 95.2024 148.728 96.1447 149.024 97.0319C149.353 98.0873 150.059 98.9844 151.008 99.5519C151.448 99.8153 151.951 99.9536 152.464 99.9519C152.954 99.9336 153.423 99.7472 153.792 99.4239C154.116 99.1004 154.355 98.7017 154.488 98.2634C154.62 97.8251 154.642 97.3608 154.552 96.9119C154.391 96.1043 153.92 95.3919 153.24 94.9279C152.118 94.2162 150.778 93.9322 149.464 94.1279C148.631 94.2282 147.811 94.4132 147.016 94.6799L146.2 94.8719Z" fill="#455A64"/>
<path d="M134.408 208.36L110.6 364.744L130.376 367.248L158.272 236.088L165.304 368.136L186.736 367.76L183.184 208.728L134.408 208.36Z" fill="#263238"/>
<path d="M164.92 368.536V368.152L158.056 239.128L130.688 367.696L110.144 365.088L134.064 208L183.576 208.368L187.144 368.192L164.92 368.536ZM158.52 233.04L165.72 367.728L186.368 367.368L182.832 209.128L134.752 208.8L111.056 364.392L130.056 366.792L158.52 233.04Z" fill="#263238"/>
<path d="M180.368 367.504C180.248 367.504 180.16 336.176 180.16 297.536C180.16 258.896 180.248 227.552 180.368 227.552C180.488 227.552 180.576 258.88 180.576 297.536C180.576 336.192 180.48 367.504 180.368 367.504Z" fill="#455A64"/>
<path d="M126.024 366.936C126.029 366.823 126.045 366.71 126.072 366.6C126.072 366.352 126.176 366.024 126.256 365.608C126.424 364.72 126.672 363.44 126.984 361.808C127.656 358.488 128.584 353.728 129.792 347.848C132.192 336.064 135.592 319.808 139.496 301.888C143.4 283.968 147.072 267.76 149.792 256.056C151.16 250.216 152.272 245.488 153.048 242.192C153.44 240.592 153.752 239.312 153.96 238.432C154.064 238.016 154.152 237.696 154.208 237.456C154.235 237.344 154.27 237.235 154.312 237.128C154.312 237.128 154.312 237.24 154.248 237.464C154.184 237.688 154.136 238.032 154.048 238.448C153.848 239.336 153.568 240.608 153.208 242.232C152.464 245.528 151.4 250.232 150.08 256.12C147.432 267.848 143.808 284.056 139.904 301.976C136 319.896 132.552 336.144 130.08 347.904C128.84 353.776 127.84 358.528 127.144 361.84C126.8 363.44 126.528 364.736 126.344 365.624L126.12 366.608C126.099 366.72 126.067 366.83 126.024 366.936Z" fill="#455A64"/>
<path d="M165.304 235.944C165.009 236.023 164.705 236.063 164.4 236.064L161.928 236.24C159.84 236.376 156.952 236.52 153.784 236.832C150.616 237.144 147.76 237.576 145.688 237.848L143.232 238.16C142.932 238.218 142.625 238.236 142.32 238.216C142.607 238.111 142.905 238.038 143.208 238C143.776 237.88 144.608 237.728 145.608 237.552C147.672 237.208 150.528 236.752 153.712 236.416C156.896 236.08 159.792 236.008 161.88 235.944C162.928 235.944 163.776 235.904 164.36 235.904C164.675 235.883 164.992 235.896 165.304 235.944Z" fill="#455A64"/>
<path d="M183.6 225.792C183.405 225.878 183.197 225.929 182.984 225.944C182.412 226.027 181.833 226.054 181.256 226.024C179.335 225.921 177.485 225.269 175.925 224.144C174.364 223.019 173.16 221.47 172.456 219.68C172.243 219.143 172.085 218.585 171.984 218.016C171.912 217.616 171.904 217.392 171.936 217.384C171.968 217.376 172.144 218.264 172.736 219.56C173.503 221.252 174.693 222.718 176.192 223.816C177.706 224.888 179.474 225.547 181.32 225.728C182.696 225.872 183.584 225.712 183.6 225.792Z" fill="#455A64"/>
<path d="M130.336 211.432L185.12 211.256L182.12 175.104C181.792 166.832 181.84 165.84 181.632 158.208C181.632 158.208 189.408 167.608 195.528 174.208C197.331 176.147 199.705 177.462 202.306 177.961C204.907 178.46 207.599 178.118 209.992 176.984L241.992 154.656L236 139.32L206.92 157.12C205.584 156.32 194.264 140.136 186.44 132.256C181.431 127.212 174.674 124.288 167.568 124.088C161.671 123.95 155.771 124.188 149.904 124.8C145.63 125.258 141.649 127.19 138.646 130.265C135.643 133.34 133.805 137.365 133.448 141.648C132.88 148.408 133.336 156.256 133.336 169.592L130.336 211.432Z" fill="#455A64"/>
<path d="M132.912 145.304C132.912 145.304 132.912 145.456 132.912 145.728C132.912 146 132.912 146.456 132.912 146.936C132.912 147.992 132.912 149.512 132.912 151.392C132.912 155.152 133.08 160.336 133.248 166.072C133.416 171.808 133.44 177.008 133.296 180.76C133.232 182.64 133.144 184.16 133.056 185.208C133.056 185.696 132.984 186.096 132.96 186.416C132.936 186.736 132.912 186.832 132.912 186.832C132.912 186.832 132.912 186.688 132.912 186.416C132.912 186.144 132.952 185.688 132.976 185.208C133.048 184.16 133.112 182.64 133.16 180.76C133.272 177 133.224 171.808 133.064 166.072C132.904 160.336 132.768 155.152 132.776 151.392C132.776 149.512 132.776 147.992 132.832 146.936C132.832 146.448 132.832 146.056 132.872 145.728C132.912 145.4 132.912 145.304 132.912 145.304Z" fill="#263238"/>
<path d="M205.72 162.296C205.729 162.042 205.767 161.79 205.832 161.544C205.928 161.08 206.064 160.44 206.232 159.744C206.4 159.048 206.552 158.408 206.672 157.96C206.719 157.709 206.797 157.464 206.904 157.232C206.894 157.486 206.854 157.739 206.784 157.984C206.696 158.448 206.552 159.08 206.392 159.784C206.232 160.488 206.072 161.112 205.952 161.568C205.901 161.818 205.824 162.062 205.72 162.296Z" fill="#263238"/>
<path d="M208.64 162.744C208.334 161.8 208.085 160.838 207.896 159.864C207.65 158.902 207.455 157.927 207.312 156.944C207.614 157.889 207.862 158.851 208.056 159.824C208.302 160.786 208.497 161.761 208.64 162.744Z" fill="#263238"/>
<path d="M182.984 159.56L182.688 159.288L181.848 158.488C181.128 157.784 180.088 156.752 178.84 155.432C177.377 153.897 176.014 152.27 174.76 150.56C173.209 148.466 171.957 146.167 171.04 143.728C170.113 141.284 169.696 138.675 169.816 136.064C169.856 133.931 170.324 131.828 171.192 129.88C171.813 128.577 172.738 127.441 173.888 126.568C174.196 126.334 174.52 126.12 174.856 125.928L175.216 125.728C175.216 125.728 174.72 126 173.928 126.616C172.805 127.5 171.904 128.634 171.296 129.928C170.451 131.868 170 133.956 169.968 136.072C169.856 138.663 170.275 141.249 171.2 143.672C172.112 146.095 173.35 148.383 174.88 150.472C176.128 152.18 177.48 153.81 178.928 155.352C180.16 156.68 181.184 157.752 181.896 158.448L182.696 159.248C182.896 159.456 182.984 159.56 182.984 159.56Z" fill="#263238"/>
<path d="M147.376 144.688C146.653 144.104 146.019 143.417 145.496 142.648C144.872 141.964 144.349 141.193 143.944 140.36C144.666 140.942 145.299 141.627 145.824 142.392C146.452 143.077 146.975 143.85 147.376 144.688Z" fill="#FAFAFA"/>
<path d="M159.824 158.816C159.066 159.866 158.197 160.831 157.232 161.696C156.364 162.66 155.396 163.529 154.344 164.288C155.971 162.274 157.808 160.44 159.824 158.816Z" fill="#FAFAFA"/>
<path d="M171.872 179.096C171.76 179.096 171.32 177.896 170.504 176.512C169.688 175.128 168.84 174.112 168.904 174.056C169.729 174.629 170.395 175.403 170.84 176.304C171.411 177.134 171.766 178.094 171.872 179.096Z" fill="#FAFAFA"/>
<path d="M140.64 176.8C139.423 174.246 138.925 171.408 139.2 168.592C139.328 168.592 139.36 170.464 139.768 172.72C140.176 174.976 140.8 176.752 140.64 176.8Z" fill="#FAFAFA"/>
<path d="M157.224 185.728C156.227 183.581 156.012 181.153 156.616 178.864C156.736 178.864 156.56 180.424 156.736 182.312C156.912 184.2 157.344 185.688 157.224 185.728Z" fill="#FAFAFA"/>
<path d="M150.664 198.696C149.344 198.121 148.085 197.416 146.904 196.592C145.648 195.887 144.461 195.065 143.36 194.136C144.682 194.712 145.944 195.417 147.128 196.24C148.382 196.944 149.566 197.767 150.664 198.696Z" fill="#FAFAFA"/>
<path d="M176.456 194.864C176.512 194.976 174.656 195.896 172.504 197.264C170.352 198.632 168.712 199.904 168.632 199.808C169.696 198.665 170.926 197.689 172.28 196.912C173.559 196.021 174.968 195.33 176.456 194.864Z" fill="#FAFAFA"/>
<path d="M144 209.528C142.65 209.465 141.31 209.267 140 208.936C138.651 208.737 137.327 208.4 136.048 207.928C137.398 207.992 138.738 208.193 140.048 208.528C141.396 208.726 142.72 209.061 144 209.528Z" fill="#FAFAFA"/>
<path d="M161.312 206.712C159.786 205.232 158.75 203.319 158.344 201.232C158.456 201.232 158.952 202.496 159.776 204C160.6 205.504 161.408 206.632 161.312 206.712Z" fill="#FAFAFA"/>
<path d="M180.8 208.064C180.5 208.741 180.076 209.357 179.552 209.88C178.752 210.808 178.08 211.48 177.952 211.432C178.246 210.747 178.67 210.124 179.2 209.6C180 208.688 180.68 208 180.8 208.064Z" fill="#FAFAFA"/>
<path d="M145.176 153.072C145.24 153.168 144.528 153.76 143.576 154.384C143.035 154.827 142.413 155.158 141.744 155.36C141.68 155.264 142.4 154.672 143.344 154.04C143.884 153.598 144.507 153.269 145.176 153.072Z" fill="#FAFAFA"/>
<path d="M158.68 137.992C158.038 136.681 157.555 135.298 157.24 133.872C156.807 132.481 156.539 131.045 156.44 129.592C156.942 130.954 157.349 132.349 157.656 133.768C158.097 135.15 158.439 136.561 158.68 137.992Z" fill="#FAFAFA"/>
<path d="M171.648 151.72C171.592 151.832 170.424 151.384 168.928 151.104C167.432 150.824 166.176 150.8 166.176 150.672C168.067 150.343 170.013 150.715 171.648 151.72Z" fill="#FAFAFA"/>
<path d="M180.56 140.056C179.566 140.346 178.515 140.382 177.504 140.16C176.473 140.071 175.482 139.722 174.624 139.144C174.672 139.032 175.936 139.504 177.568 139.744C179.2 139.984 180.544 139.936 180.56 140.056Z" fill="#FAFAFA"/>
<path d="M189.672 153.064C189.522 151.592 189.597 150.105 189.896 148.656C190.067 147.184 190.466 145.748 191.08 144.4C191.192 144.4 190.688 146.336 190.28 148.72C189.872 151.104 189.8 153.072 189.672 153.064Z" fill="#FAFAFA"/>
<path d="M200.392 168.392C198.398 166.725 196.59 164.848 195 162.792C196.989 164.464 198.796 166.341 200.392 168.392Z" fill="#FAFAFA"/>
<path d="M209.304 167.2C208.477 169.009 207.4 170.692 206.104 172.2C206.459 171.265 206.944 170.384 207.544 169.584C208.016 168.711 208.608 167.908 209.304 167.2Z" fill="#FAFAFA"/>
<path d="M219.648 162.168C218.951 161.217 218.371 160.185 217.92 159.096C217.344 158.064 216.891 156.969 216.568 155.832C217.264 156.787 217.844 157.821 218.296 158.912C218.871 159.941 219.324 161.034 219.648 162.168Z" fill="#FAFAFA"/>
<path d="M233.728 156.344C231.26 156.19 228.818 155.755 226.448 155.048C227.687 155.06 228.922 155.211 230.128 155.496C231.356 155.642 232.564 155.926 233.728 156.344Z" fill="#FAFAFA"/>
<path d="M121.888 171.328C122.742 168.843 123.864 166.459 125.232 164.216C124.866 165.479 124.368 166.699 123.744 167.856C123.25 169.076 122.627 170.239 121.888 171.328Z" fill="#FAFAFA"/>
<path d="M129.352 158.16C128.457 157.46 127.652 156.654 126.952 155.76C126.145 154.957 125.433 154.063 124.832 153.096C125.729 153.793 126.535 154.599 127.232 155.496C128.043 156.295 128.755 157.19 129.352 158.16Z" fill="#FAFAFA"/>
<path d="M128.728 179.304C128.8 179.392 128.248 179.976 127.496 180.608C126.744 181.24 126.064 181.672 125.984 181.584C125.904 181.496 126.472 180.912 127.224 180.288C127.976 179.664 128.656 179.2 128.728 179.304Z" fill="#FAFAFA"/>
<path d="M131.248 144.168C131.344 144.24 131.008 144.808 130.504 145.44C130 146.072 129.512 146.52 129.424 146.448C129.336 146.376 129.672 145.808 130.176 145.176C130.68 144.544 131.2 144.096 131.248 144.168Z" fill="#FAFAFA"/>
<g opacity="0.3">
<path d="M173.064 147.8C176.448 158.432 179.056 169.592 182.44 180.224L181.64 158.208C178.349 155.118 175.467 151.621 173.064 147.8Z" fill="black"/>
</g>
<path d="M118.016 161.712C118.044 161.624 118.079 161.538 118.12 161.456L118.44 160.712C118.728 160.072 119.152 159.16 119.696 158.032C120.784 155.776 122.352 152.696 124.24 149.368C126.128 146.04 127.96 143.112 129.336 141.024C130.024 139.976 130.592 139.136 130.992 138.568L131.456 137.912C131.568 137.76 131.624 137.68 131.632 137.688L131.488 137.928L131.048 138.6L129.448 141.088C128.096 143.192 126.248 146.128 124.4 149.448C122.552 152.768 120.928 155.848 119.824 158.08L118.52 160.744C118.384 161.016 118.264 161.256 118.168 161.464C118.126 161.552 118.075 161.635 118.016 161.712Z" fill="#263238"/>
<path d="M123.416 151.528C123.131 151.669 122.837 151.792 122.536 151.896C121.841 152.199 121.176 152.569 120.552 153C119.932 153.436 119.355 153.931 118.832 154.48C118.424 154.904 118.2 155.184 118.184 155.168C118.168 155.152 118.184 155.088 118.312 154.952C118.445 154.759 118.589 154.575 118.744 154.4C119.247 153.818 119.823 153.301 120.456 152.864C121.089 152.424 121.775 152.064 122.496 151.792C122.713 151.707 122.935 151.635 123.16 151.576C123.243 151.548 123.329 151.532 123.416 151.528Z" fill="#263238"/>
<path d="M124.168 135.12C123.483 136.43 122.68 137.676 121.768 138.84C120.955 140.083 120.025 141.245 118.992 142.312C119.68 141.006 120.484 139.764 121.392 138.6C122.206 137.356 123.136 136.191 124.168 135.12Z" fill="#FAFAFA"/>
<path d="M129.944 122.112C130.34 122.182 130.749 122.127 131.113 121.955C131.477 121.783 131.778 121.503 131.976 121.152C132.424 120.48 132.632 119.68 133.024 118.976C134.216 116.888 136.92 115.976 138.008 113.832C138.16 113.528 138.248 113.112 138.008 112.904C137.768 112.696 137.408 112.84 137.128 112.976L130.008 116.544" fill="#FFBE9D"/>
<path d="M129.992 116.544C130.212 116.356 130.457 116.2 130.72 116.08C131.2 115.808 131.912 115.432 132.792 114.968L135.88 113.368L136.784 112.912C137.12 112.673 137.536 112.572 137.944 112.632C138.069 112.68 138.177 112.764 138.254 112.874C138.331 112.984 138.374 113.114 138.376 113.248C138.38 113.47 138.33 113.689 138.232 113.888C138.058 114.24 137.844 114.571 137.592 114.872C136.59 115.884 135.521 116.828 134.392 117.696C133.94 118.092 133.549 118.553 133.232 119.064C132.944 119.552 132.76 120.056 132.536 120.512C132.394 120.897 132.17 121.247 131.878 121.536C131.586 121.825 131.235 122.046 130.848 122.184C130.707 122.24 130.556 122.263 130.405 122.252C130.254 122.241 130.107 122.196 129.976 122.12C130.247 122.13 130.517 122.095 130.776 122.016C131.114 121.862 131.418 121.641 131.668 121.366C131.919 121.09 132.11 120.767 132.232 120.416C132.424 119.906 132.643 119.407 132.888 118.92C133.21 118.366 133.615 117.864 134.088 117.432C135.209 116.559 136.277 115.622 137.288 114.624C137.511 114.348 137.707 114.05 137.872 113.736C138.016 113.44 138.016 113.128 137.872 113.088C137.728 113.048 137.36 113.184 137.072 113.336L136.168 113.784L133.032 115.304C132.136 115.728 131.432 116.104 130.896 116.288C130.61 116.419 130.305 116.506 129.992 116.544Z" fill="#EB996E"/>
<path d="M353.288 336.312H302.648V343.272H353.288V336.312Z" fill="#263238"/>
<path d="M353.368 343.352H302.56V336.224H353.368V343.352ZM302.736 343.2H353.192V336.416H302.736V343.2Z" fill="#263238"/>
<path d="M307.344 340.952L314.632 376.904H341.6L348.64 343.264L307.344 340.952Z" fill="#263238"/>
<path d="M307.344 373.504L311.232 378.848H344.008L348.64 373.504H307.344Z" fill="#455A64"/>
<path d="M326.064 342C325.96 342 325.832 325.344 325.776 304.8C325.72 284.256 325.776 267.592 325.856 267.592C325.936 267.592 326.08 284.248 326.136 304.8C326.192 325.352 326.16 342 326.064 342Z" fill="#263238"/>
<path d="M337.344 300.312C337.311 300.447 337.265 300.578 337.208 300.704L336.752 301.776C336.656 302.016 336.544 302.272 336.424 302.576L336.088 303.528C335.968 303.864 335.832 304.224 335.696 304.608C335.56 304.992 335.456 305.408 335.32 305.848C334.719 307.883 334.246 309.954 333.904 312.048C333.507 314.617 333.24 317.204 333.104 319.8C332.919 324.524 333.053 329.254 333.504 333.96C333.672 335.768 333.832 337.232 333.952 338.24C334.008 338.712 334.048 339.096 334.08 339.4C334.091 339.536 334.091 339.672 334.08 339.808C334.028 339.683 333.996 339.551 333.984 339.416C333.936 339.112 333.872 338.728 333.792 338.256C333.624 337.256 333.424 335.792 333.232 333.984C332.725 329.261 332.58 324.505 332.8 319.76C332.927 317.15 333.194 314.549 333.6 311.968C333.959 309.861 334.462 307.782 335.104 305.744C335.24 305.312 335.36 304.896 335.504 304.512L335.92 303.432C336.056 303.096 336.176 302.784 336.288 302.488C336.4 302.192 336.544 301.952 336.648 301.688L337.168 300.64C337.215 300.525 337.274 300.415 337.344 300.312Z" fill="#263238"/>
<path d="M336.048 286.84C336.006 287.027 335.952 287.211 335.888 287.392C335.752 287.776 335.576 288.288 335.36 288.936C335.24 289.28 335.112 289.648 334.976 290.056L334.568 291.4C334.272 292.368 333.928 293.456 333.624 294.696C333.456 295.304 333.288 295.952 333.112 296.616C332.936 297.28 332.8 298 332.64 298.728C332.288 300.176 332.032 301.752 331.704 303.392C331.144 306.704 330.656 310.36 330.312 314.216C329.968 318.072 329.856 321.768 329.808 325.128C329.76 328.488 329.808 331.528 329.976 334.04C330.024 335.312 330.104 336.44 330.168 337.464C330.232 338.488 330.288 339.336 330.352 340.048C330.416 340.76 330.448 341.272 330.48 341.648C330.499 341.837 330.499 342.027 330.48 342.216C330.434 342.032 330.405 341.845 330.392 341.656L330.2 340.056C330.112 339.352 330.024 338.456 329.952 337.48C329.88 336.504 329.768 335.328 329.704 334.056C329.536 331.52 329.464 328.456 329.456 325.12C329.448 321.784 329.616 318.056 329.936 314.192C330.256 310.328 330.784 306.648 331.36 303.336C331.696 301.688 331.96 300.136 332.328 298.656C332.504 297.928 332.664 297.224 332.824 296.552C332.984 295.88 333.192 295.24 333.36 294.624C333.68 293.392 334.04 292.296 334.36 291.336L334.792 290C334.944 289.6 335.088 289.2 335.208 288.888L335.8 287.368C335.872 287.187 335.955 287.011 336.048 286.84Z" fill="#263238"/>
<path d="M322.856 344.944V344.752C322.856 344.6 322.856 344.416 322.808 344.176C322.768 343.648 322.72 342.912 322.656 341.976C322.536 340.032 322.368 337.264 322.152 333.856C321.712 327.008 321.072 317.544 319.92 307.136C319.336 301.936 318.648 296.992 317.944 292.512C317.56 290.28 317.224 288.152 316.832 286.168C316.44 284.184 316.096 282.344 315.736 280.664C315.376 278.984 315.032 277.464 314.736 276.144C314.44 274.824 314.16 273.68 313.936 272.744C313.712 271.808 313.536 271.144 313.416 270.6C313.36 270.368 313.32 270.184 313.288 270.04C313.256 269.896 313.248 269.848 313.288 269.848C313.314 269.908 313.335 269.969 313.352 270.032C313.352 270.176 313.448 270.352 313.512 270.584C313.656 271.096 313.856 271.808 314.104 272.712C314.352 273.616 314.672 274.768 314.984 276.096C315.296 277.424 315.688 278.928 316.04 280.616C316.392 282.304 316.84 284.128 317.176 286.112C317.512 288.096 317.928 290.224 318.32 292.464C319.048 296.944 319.744 301.888 320.328 307.096C321.48 317.496 322.08 326.992 322.456 333.848C322.64 337.272 322.768 340.048 322.848 341.968C322.848 342.904 322.912 343.648 322.928 344.176C322.928 344.408 322.928 344.6 322.928 344.752C322.917 344.82 322.893 344.886 322.856 344.944Z" fill="#263238"/>
<path d="M325.648 275.6C325.432 273.24 323.048 271.456 320.672 271.432C319.486 271.485 318.327 271.807 317.283 272.374C316.239 272.941 315.338 273.738 314.648 274.704C313.285 276.652 312.299 278.84 311.744 281.152C310.014 286.691 309.407 292.52 309.96 298.296C310.64 304.04 312.968 309.696 317.088 313.752C317.76 314.416 318.632 315.072 319.552 314.88C320.046 314.731 320.493 314.455 320.848 314.08C324.881 310.384 328.079 305.869 330.225 300.837C332.372 295.806 333.419 290.373 333.296 284.904C333.232 282.72 332.944 280.448 331.736 278.632C330.528 276.816 327.736 274.88 325.648 275.608" fill="#00B071"/>
<path d="M307.952 256.696L304.616 262.744C304.536 262.88 304.432 263.04 304.272 263.056C304.112 263.072 303.968 262.904 303.872 262.76C300.928 258.243 297.995 253.725 295.072 249.208L297.104 248.056L307.952 256.696Z" fill="#00B071"/>
<g opacity="0.2">
<path d="M307.952 256.696L304.616 262.744C304.536 262.88 304.432 263.04 304.272 263.056C304.112 263.072 303.968 262.904 303.872 262.76C300.928 258.243 297.995 253.725 295.072 249.208L297.104 248.056L307.952 256.696Z" fill="black"/>
</g>
<path d="M325.856 267.592L295.752 249.824C295.42 249.684 295.156 249.42 295.016 249.088C294.896 248.64 295.232 248.216 295.552 247.88C297.622 245.732 300.13 244.055 302.907 242.965C305.683 241.874 308.662 241.395 311.64 241.56C314.616 241.776 317.495 242.712 320.029 244.288C322.563 245.865 324.675 248.034 326.184 250.608C329.088 255.8 329.184 262.664 325.856 267.592Z" fill="#00B071"/>
<path d="M300.088 244.16C300.215 244.123 300.347 244.104 300.48 244.104C300.744 244.104 301.128 244.048 301.616 244.056C303.018 244.037 304.418 244.147 305.8 244.384C310.385 245.16 314.653 247.229 318.104 250.346C321.554 253.464 324.044 257.501 325.28 261.984C325.654 263.332 325.906 264.711 326.032 266.104C326.047 266.397 326.047 266.691 326.032 266.984C326.012 267.219 325.932 267.445 325.8 267.64C325.893 267.139 325.909 266.626 325.848 266.12C325.674 264.745 325.39 263.386 325 262.056C323.487 256.988 320.408 252.53 316.204 249.32C312 246.111 306.887 244.316 301.6 244.192C300.632 244.168 300.088 244.192 300.088 244.16Z" fill="#263238"/>
<path d="M321.776 255.328C321.298 255.617 320.788 255.851 320.256 256.024C319.296 256.4 317.96 256.88 316.456 257.36C314.952 257.84 313.584 258.216 312.584 258.456C312.05 258.62 311.501 258.727 310.944 258.776C311.454 258.528 311.991 258.34 312.544 258.216L316.384 257.016L320.2 255.784C320.709 255.579 321.237 255.427 321.776 255.328Z" fill="#263238"/>
<path d="M317.04 242.592C317.307 243.691 317.425 244.821 317.392 245.952C317.479 247.081 317.417 248.216 317.208 249.328C317.058 248.212 316.999 247.086 317.032 245.96C316.946 244.839 316.948 243.713 317.04 242.592Z" fill="#263238"/>
<path d="M295.488 249.488C296.193 249.163 296.924 248.896 297.672 248.688C299.04 248.264 300.944 247.736 303.072 247.224C305.2 246.712 307.128 246.32 308.544 246.072C309.299 245.902 310.067 245.798 310.84 245.76C310.104 245.997 309.353 246.184 308.592 246.32C307.2 246.632 305.272 247.064 303.152 247.568C301.032 248.072 299.152 248.576 297.744 248.936C297.005 249.171 296.252 249.355 295.488 249.488Z" fill="#263238"/>
<path d="M313.152 270.48C310.568 268.512 307.824 268.128 304.584 268.256C301.334 268.465 298.152 269.279 295.2 270.656C290.12 272.88 285.352 276.152 282.32 280.792C279.288 285.432 278.224 291.576 280.496 296.624C280.674 297.153 281.042 297.597 281.528 297.872C282.09 298.038 282.693 297.992 283.224 297.744C289 295.864 294.816 293.96 300.12 291.008C305.424 288.056 310.264 283.96 313.112 278.6C313.843 277.334 314.308 275.932 314.48 274.48C314.557 273.757 314.478 273.026 314.249 272.336C314.02 271.646 313.646 271.013 313.152 270.48Z" fill="#00B071"/>
<path d="M313.208 269.872C313.073 269.936 312.934 269.992 312.792 270.04L311.584 270.456L310.704 270.744L309.68 271.144C308.952 271.44 308.08 271.736 307.208 272.168L305.792 272.816C305.304 273.04 304.816 273.32 304.296 273.616C303.248 274.128 302.192 274.784 301.096 275.456C296.252 278.448 291.946 282.234 288.36 286.656C287.56 287.696 286.76 288.656 286.12 289.632C285.792 290.112 285.456 290.56 285.168 291.024C284.88 291.488 284.608 291.92 284.368 292.344C283.824 293.144 283.416 293.944 283.032 294.664C282.848 295.008 282.664 295.328 282.504 295.632L282.104 296.432C281.872 296.896 281.688 297.28 281.544 297.576C281.478 297.712 281.404 297.843 281.32 297.968C281.356 297.822 281.407 297.68 281.472 297.544C281.605 297.24 281.773 296.848 281.976 296.368C282.096 296.112 282.216 295.824 282.352 295.52C282.488 295.216 282.672 294.888 282.856 294.536C283.224 293.84 283.616 293.024 284.144 292.184L284.944 290.84C285.224 290.376 285.56 289.92 285.888 289.432C286.52 288.44 287.304 287.464 288.104 286.416C289.913 284.199 291.893 282.126 294.024 280.216C296.186 278.341 298.495 276.643 300.928 275.136C302.064 274.472 303.136 273.824 304.2 273.32C304.72 273.056 305.216 272.784 305.712 272.56L307.144 271.936C308.056 271.512 308.912 271.232 309.648 270.96C310.024 270.824 310.368 270.688 310.688 270.584L311.576 270.32L312.808 269.968C312.938 269.922 313.072 269.89 313.208 269.872Z" fill="#263238"/>
<path d="M292.976 280.8C290.916 281.588 288.814 282.264 286.68 282.824C284.58 283.506 282.443 284.069 280.28 284.512C282.34 283.72 284.442 283.042 286.576 282.48C288.677 281.805 290.814 281.244 292.976 280.8Z" fill="#263238"/>
<path d="M292.72 294.72C292.611 294.073 292.566 293.416 292.584 292.76C292.544 291.544 292.544 289.872 292.584 288.016C292.624 286.16 292.736 284.488 292.84 283.28C292.857 282.623 292.94 281.969 293.088 281.328C293.142 281.983 293.142 282.641 293.088 283.296C293.04 284.624 292.992 286.24 292.936 288.024C292.88 289.808 292.856 291.432 292.816 292.76C292.838 293.415 292.806 294.07 292.72 294.72Z" fill="#263238"/>
<path d="M304.624 288.656C304.528 288.656 304.208 285.256 303.92 281.048C303.632 276.84 303.472 273.416 303.568 273.408C303.664 273.4 303.984 276.808 304.28 281.024C304.576 285.24 304.728 288.648 304.624 288.656Z" fill="#263238"/>
<path d="M289.808 273.08C290.477 272.998 291.152 272.977 291.824 273.016C293.072 273.016 294.784 273.064 296.68 273.128C298.576 273.192 300.296 273.264 301.544 273.336C302.218 273.335 302.891 273.402 303.552 273.536C302.883 273.612 302.208 273.631 301.536 273.592C300.288 273.592 298.568 273.552 296.672 273.488C294.776 273.424 293.056 273.344 291.816 273.272C291.142 273.269 290.47 273.205 289.808 273.08Z" fill="#263238"/>
<path d="M318.4 314.544C318.37 314.413 318.357 314.278 318.36 314.144C318.36 313.84 318.36 313.456 318.304 312.984C318.256 311.976 318.248 310.52 318.304 308.72C318.36 306.92 318.456 304.776 318.672 302.408C318.888 300.04 319.248 297.44 319.736 294.728C320.224 292.016 320.832 289.464 321.448 287.16C322.064 284.856 322.72 282.816 323.328 281.112C323.936 279.408 324.448 278.048 324.848 277.112L325.304 276.04C325.349 275.91 325.411 275.786 325.488 275.672C325.461 275.806 325.421 275.938 325.368 276.064L324.976 277.16C324.616 278.096 324.136 279.472 323.568 281.16C323 282.848 322.384 284.92 321.768 287.216C321.152 289.512 320.584 292.064 320.088 294.76C319.592 297.456 319.288 300.048 319.008 302.408C318.728 304.768 318.624 306.904 318.56 308.696C318.496 310.488 318.4 312 318.4 312.984C318.4 313.456 318.4 313.84 318.4 314.144C318.414 314.277 318.414 314.411 318.4 314.544Z" fill="#263238"/>
<path d="M320 294.832C319.655 295.319 319.252 295.763 318.8 296.152C318 296.952 316.92 297.968 315.656 299.08C314.392 300.192 313.256 301.144 312.344 301.816C311.896 302.209 311.405 302.55 310.88 302.832C311.274 302.385 311.711 301.978 312.184 301.616L315.384 298.808L318.584 295.968C319.022 295.548 319.495 295.168 320 294.832Z" fill="#263238"/>
<path d="M329.504 302.512C329.028 301.957 328.6 301.363 328.224 300.736L325.248 296.4C324.096 294.76 323.048 293.288 322.208 292.096C321.758 291.522 321.352 290.915 320.992 290.28C321.511 290.795 321.988 291.351 322.416 291.944C323.216 293.008 324.368 294.496 325.544 296.192C326.72 297.888 327.728 299.448 328.432 300.6C328.843 301.206 329.201 301.846 329.504 302.512Z" fill="#263238"/>
<path d="M324.512 278.4C324.56 278.488 321.4 280.616 317.44 283.2C313.48 285.784 310.24 287.744 310.176 287.656C310.112 287.568 313.288 285.44 317.24 282.856C321.192 280.272 324.456 278.288 324.512 278.4Z" fill="#263238"/>
<path d="M333.432 288C330.162 285.138 327.05 282.098 324.112 278.896C325.79 280.284 327.392 281.761 328.912 283.32C330.505 284.794 332.014 286.356 333.432 288Z" fill="#263238"/>
<path d="M335.68 287.808L338.392 287.584C340.321 287.427 342.194 286.854 343.88 285.904C344.704 285.42 345.559 284.993 346.44 284.624C349.8 283.272 353.552 283.512 357.16 283.328C363.082 283.029 368.885 281.547 374.224 278.968C374.535 278.825 374.794 278.591 374.968 278.296C375.52 277.28 374.488 276.376 373.592 275.824C369.016 273 364.36 270.144 359.192 268.744C354.024 267.344 348.104 267.584 343.672 270.632C338.472 274.208 336.584 281.56 335.672 287.808" fill="#00B071"/>
<path d="M375.024 277.96C374.865 277.903 374.712 277.831 374.568 277.744L373.28 277.072C372.16 276.488 370.552 275.616 368.48 274.672C366.115 273.513 363.652 272.565 361.12 271.84C358.023 270.945 354.779 270.674 351.576 271.04C348.369 271.398 345.341 272.698 342.872 274.776C340.944 276.58 339.403 278.757 338.344 281.176C337.605 282.795 336.949 284.451 336.376 286.136C336.168 286.704 336.008 287.16 335.888 287.504C335.841 287.668 335.777 287.826 335.696 287.976C335.724 287.808 335.765 287.642 335.816 287.48C335.928 287.128 336.064 286.68 336.24 286.088C336.761 284.379 337.386 282.704 338.112 281.072C339.157 278.611 340.705 276.396 342.656 274.568C345.162 272.427 348.253 271.087 351.528 270.72C354.776 270.331 358.068 270.604 361.208 271.52C363.756 272.262 366.228 273.242 368.592 274.448C370.616 275.456 372.208 276.352 373.304 276.984L374.56 277.712C374.722 277.78 374.877 277.863 375.024 277.96Z" fill="#263238"/>
<path d="M368.504 281.464C368.448 281.552 364.888 279.248 360.568 276.336C356.248 273.424 352.776 270.984 352.832 270.896C352.888 270.808 356.44 273.112 360.768 276.032C365.096 278.952 368.56 281.384 368.504 281.464Z" fill="#263238"/>
<path d="M364.712 270.712C363.876 270.996 363.002 271.152 362.12 271.176C361.248 271.307 360.36 271.307 359.488 271.176C360.349 271.02 361.221 270.932 362.096 270.912C362.961 270.776 363.836 270.709 364.712 270.712Z" fill="#263238"/>
<path d="M349.152 268.688C348.863 269.352 348.469 269.966 347.984 270.504C347.578 271.132 347.082 271.698 346.512 272.184C346.803 271.531 347.198 270.928 347.68 270.4C348.085 269.761 348.581 269.184 349.152 268.688Z" fill="#263238"/>
<path d="M352.336 283.56C351.735 283.31 351.162 282.999 350.624 282.632C349.6 282.008 348.224 281.096 346.728 280.024C345.232 278.952 343.944 277.928 343 277.184C342.473 276.807 341.98 276.384 341.528 275.92C342.094 276.22 342.63 276.574 343.128 276.976L346.92 279.728C348.392 280.8 349.752 281.744 350.744 282.416C351.305 282.754 351.837 283.136 352.336 283.56Z" fill="#263238"/>
<path d="M339.68 299.352C337.088 298.672 334 301.192 333.464 303.816C332.928 306.44 333.912 309.128 335.064 311.552C337.527 316.986 341.193 321.79 345.784 325.6C350.41 329.404 356.188 331.531 362.176 331.632C361.08 326.544 362.464 321.232 361.856 316.056C361.316 311.501 359.248 307.264 355.989 304.037C352.729 300.809 348.472 298.783 343.912 298.288C342.256 298.112 340.336 297.848 339.68 299.376" fill="#00B071"/>
<path d="M362.176 331.608C362.047 331.565 361.923 331.506 361.808 331.432C361.461 331.25 361.134 331.033 360.832 330.784C359.747 329.838 358.877 328.67 358.28 327.36C357.864 326.56 357.4 325.688 356.952 324.728L355.552 321.64C355.054 320.505 354.482 319.404 353.84 318.344C353.136 317.221 352.35 316.151 351.488 315.144C349.712 313.056 347.808 311.256 346.152 309.544C344.662 308.04 343.305 306.41 342.096 304.672C341.283 303.492 340.615 302.219 340.104 300.88C339.944 300.4 339.824 300.032 339.76 299.768C339.715 299.639 339.688 299.504 339.68 299.368C339.68 299.368 339.856 299.896 340.24 300.832C340.792 302.135 341.484 303.374 342.304 304.528C343.533 306.237 344.901 307.842 346.392 309.328C348.048 311.032 349.968 312.832 351.76 314.928C352.643 315.95 353.445 317.039 354.16 318.184C354.8 319.262 355.372 320.379 355.872 321.528L357.24 324.624C357.672 325.584 358.12 326.464 358.52 327.272C359.078 328.568 359.895 329.736 360.92 330.704C361.68 331.328 362.192 331.576 362.176 331.608Z" fill="#263238"/>
<path d="M348.8 327.376C348.822 326.788 348.902 326.204 349.04 325.632C349.248 324.568 349.576 323.104 350.024 321.504C350.472 319.904 350.96 318.488 351.344 317.504C351.521 316.947 351.757 316.411 352.048 315.904C351.947 316.483 351.791 317.05 351.584 317.6C351.264 318.632 350.824 320.064 350.376 321.648C349.928 323.232 349.576 324.688 349.288 325.736C349.181 326.298 349.017 326.847 348.8 327.376Z" fill="#263238"/>
<path d="M361.68 314.888C361.061 314.8 360.451 314.658 359.856 314.464C358.744 314.176 357.2 313.776 355.48 313.392C353.76 313.008 352.2 312.704 351.064 312.488C350.445 312.409 349.834 312.272 349.24 312.08C349.865 312.073 350.489 312.124 351.104 312.232C352.256 312.384 353.84 312.648 355.56 313.032C357.28 313.416 358.824 313.832 359.928 314.216C360.536 314.372 361.124 314.598 361.68 314.888Z" fill="#263238"/>
<path d="M339.152 318.512C339.182 317.833 339.276 317.158 339.432 316.496C339.664 315.256 340.024 313.56 340.512 311.696C341 309.832 341.512 308.168 341.912 306.984C342.102 306.328 342.351 305.691 342.656 305.08C342.546 305.751 342.381 306.412 342.16 307.056C341.816 308.264 341.36 309.928 340.856 311.784C340.352 313.64 339.976 315.32 339.68 316.544C339.564 317.215 339.388 317.873 339.152 318.512Z" fill="#263238"/>
<path d="M355.736 304C355.736 304.096 352.488 303.84 348.536 303.416C344.584 302.992 341.336 302.568 341.336 302.472C341.336 302.376 344.584 302.632 348.536 303.056C352.488 303.48 355.744 303.904 355.736 304Z" fill="#263238"/>
<path d="M353.368 343.24C353.368 343.336 341.992 343.416 327.968 343.416C313.944 343.416 302.56 343.336 302.56 343.24C302.56 343.144 313.936 343.056 327.968 343.056C342 343.056 353.368 343.136 353.368 343.24Z" fill="#455A64"/>
<path d="M345.456 357.872C345.456 357.976 337.792 358.056 328.336 358.056C318.88 358.056 311.224 357.976 311.224 357.872C311.224 357.768 318.888 357.696 328.336 357.696C337.784 357.696 345.456 357.776 345.456 357.872Z" fill="#455A64"/>
<path d="M345.152 360C345.152 360.096 337.624 360.176 328.352 360.176C319.08 360.176 311.552 360.096 311.552 360C311.552 359.904 319.08 359.816 328.352 359.816C337.624 359.816 345.152 359.864 345.152 360Z" fill="#455A64"/>
<path d="M345.752 356.152C345.752 356.248 337.824 356.328 328.048 356.328C318.272 356.328 310.344 356.248 310.344 356.152C310.344 356.056 318.272 355.968 328.048 355.968C337.824 355.968 345.752 356.048 345.752 356.152Z" fill="#455A64"/>
<path d="M342.4 47.896C342.4 48.016 337.032 48.08 330.4 48.048C323.768 48.016 318.4 47.888 318.4 47.776C318.4 47.664 323.768 47.592 330.4 47.624C337.032 47.656 342.4 47.784 342.4 47.896Z" fill="#263238"/>
<path d="M330.488 59.824C330.376 59.824 330.232 54.464 330.16 47.824C330.088 41.184 330.16 35.824 330.248 35.824C330.336 35.824 330.512 41.184 330.576 47.824C330.64 54.464 330.608 59.824 330.488 59.824Z" fill="#263238"/>
<path d="M355.008 226.944C352.497 225.896 350.04 224.721 347.648 223.424C345.182 222.248 342.779 220.945 340.448 219.52C340.496 219.424 343.792 221 347.808 223.048C351.824 225.096 355.064 226.848 355.008 226.944Z" fill="#263238"/>
<path d="M344.144 230.56C345.152 228.03 346.292 225.555 347.56 223.144C348.697 220.681 349.96 218.277 351.344 215.944C350.332 218.473 349.192 220.948 347.928 223.36C346.789 225.822 345.526 228.225 344.144 230.56Z" fill="#263238"/>
<path d="M67.8401 170.616C67.8401 170.728 64.0481 172.352 59.2881 174.248C54.5281 176.144 50.6241 177.6 50.5841 177.496C50.5441 177.392 54.3681 175.76 59.1361 173.864C63.904 171.968 67.7921 170.512 67.8401 170.616Z" fill="#263238"/>
<path d="M59.008 165.416C59.008 165.416 58.872 165.184 58.584 164.816C58.1761 164.307 57.6151 163.942 56.984 163.776C56.4768 163.641 55.9421 163.649 55.4394 163.8C54.9367 163.951 54.4858 164.239 54.1372 164.631C53.7885 165.024 53.5558 165.505 53.4649 166.022C53.3741 166.539 53.4287 167.071 53.6227 167.559C53.8167 168.047 54.1424 168.471 54.5635 168.784C54.9846 169.098 55.4845 169.288 56.0074 169.334C56.5303 169.379 57.0556 169.279 57.5247 169.043C57.9938 168.808 58.3883 168.447 58.664 168C59.0126 167.444 59.17 166.79 59.112 166.136C59.112 165.672 58.976 165.424 59.008 165.408C59.1542 165.619 59.245 165.864 59.272 166.12C59.4006 166.818 59.2758 167.538 58.92 168.152C58.6569 168.618 58.2795 169.01 57.8232 169.29C57.3669 169.57 56.8468 169.729 56.312 169.752C55.6521 169.776 55.0009 169.596 54.4476 169.235C53.8943 168.875 53.466 168.352 53.2216 167.739C52.9771 167.126 52.9283 166.451 53.082 165.809C53.2357 165.167 53.5843 164.588 54.08 164.152C54.4801 163.8 54.9634 163.556 55.4841 163.442C56.0048 163.329 56.5458 163.35 57.056 163.504C57.7367 163.701 58.3243 164.135 58.712 164.728C58.8637 164.931 58.9652 165.166 59.008 165.416Z" fill="#263238"/>
<path d="M65.008 180.464C64.968 180.464 64.872 180.232 64.584 179.864C64.1785 179.352 63.6166 178.987 62.984 178.824C62.5247 178.706 62.0433 178.704 61.5828 178.817C61.1222 178.93 60.6967 179.155 60.344 179.472C59.9158 179.858 59.6161 180.366 59.4853 180.928C59.3545 181.49 59.3988 182.078 59.6122 182.614C59.8256 183.15 60.198 183.607 60.6792 183.925C61.1605 184.243 61.7275 184.406 62.304 184.392C62.7838 184.388 63.2549 184.263 63.6741 184.03C64.0934 183.796 64.4474 183.461 64.704 183.056C65.0489 182.499 65.2059 181.845 65.152 181.192C65.152 180.728 65.008 180.48 65.048 180.464C65.1933 180.673 65.2841 180.915 65.312 181.168C65.4381 181.869 65.3105 182.592 64.952 183.208C64.6909 183.674 64.3149 184.066 63.8599 184.346C63.4049 184.626 62.8858 184.785 62.352 184.808C61.6922 184.832 61.0409 184.652 60.4876 184.292C59.9343 183.931 59.5061 183.408 59.2616 182.795C59.0171 182.182 58.9684 181.508 59.1221 180.865C59.2758 180.223 59.6244 179.644 60.12 179.208C60.5224 178.86 61.0053 178.618 61.5249 178.503C62.0446 178.388 62.5846 178.405 63.096 178.552C63.7751 178.756 64.3611 179.192 64.752 179.784C64.8908 179.987 64.9786 180.22 65.008 180.464Z" fill="#263238"/>
<path d="M112.568 87.456C112.568 87.456 112.656 87.672 112.808 88.088C112.96 88.504 113.184 89.136 113.472 89.936C114.048 91.536 114.896 93.936 115.976 97.04L116.032 97.184H115.872L105.6 95.76H105.704C102.12 98.5752 97.8767 100.428 93.376 101.144C92.1084 101.347 90.8276 101.457 89.544 101.472C88.888 101.472 88.224 101.416 87.552 101.4L86.552 101.352C86.216 101.352 85.88 101.256 85.544 101.208C82.7329 100.865 79.9991 100.054 77.456 98.808C74.7415 97.4931 72.2628 95.7388 70.12 93.616C67.2865 90.7869 65.1197 87.3614 63.7776 83.5889C62.4355 79.8165 61.9518 75.7921 62.3619 71.8091C62.7719 67.826 64.0653 63.9846 66.1478 60.5647C68.2303 57.1448 71.0495 54.2325 74.4 52.04C76.7933 50.4669 79.4282 49.2968 82.2 48.576L83.216 48.312L83.72 48.184L84.232 48.104L86.28 47.8C86.96 47.736 87.64 47.72 88.32 47.68C88.9911 47.632 89.6648 47.632 90.336 47.68C91 47.736 91.672 47.68 92.32 47.824L94.264 48.128C94.904 48.232 95.528 48.432 96.152 48.584L97.08 48.824C97.384 48.92 97.68 49.04 97.976 49.144C104.552 51.4243 109.98 56.1801 113.104 62.4C114.735 65.6412 115.693 69.1789 115.92 72.8C116.224 77.2813 115.364 81.765 113.424 85.816C113.16 86.352 112.952 86.752 112.808 87.008C112.664 87.264 112.568 87.408 112.568 87.408C112.568 87.408 112.624 87.272 112.76 87C112.896 86.728 113.104 86.32 113.344 85.784C114.059 84.2175 114.621 82.586 115.024 80.912C115.674 78.2658 115.896 75.5324 115.68 72.816C115.345 67.6026 113.476 62.6046 110.309 58.4498C107.142 54.2951 102.818 51.1689 97.88 49.464C97.584 49.36 97.296 49.248 96.992 49.152L96.08 48.912C95.464 48.768 94.848 48.568 94.216 48.472L92.296 48.176C91.656 48.064 91 48.088 90.336 48.04C89.6757 47.988 89.0123 47.988 88.352 48.04C87.688 48.04 87.016 48.096 86.344 48.152L84.328 48.464L83.824 48.544L83.32 48.672L82.32 48.928C79.5921 49.6407 77.0002 50.7975 74.648 52.352C70.7125 54.9137 67.5291 58.4759 65.4239 62.6733C63.3187 66.8708 62.3676 71.5525 62.668 76.2387C62.9685 80.9248 64.5096 85.4468 67.1335 89.341C69.7574 93.2353 73.3696 96.3618 77.6 98.4C80.1132 99.643 82.8176 100.454 85.6 100.8C85.928 100.848 86.256 100.912 86.592 100.944L87.584 100.992C88.248 100.992 88.896 101.088 89.544 101.072C90.8113 101.063 92.0762 100.958 93.328 100.76C97.782 100.075 101.987 98.2628 105.544 95.496H105.592H105.6L115.888 96.968L115.784 97.088C114.736 93.992 113.928 91.584 113.384 89.888L112.768 88.04C112.624 87.672 112.568 87.456 112.568 87.456Z" fill="#263238"/>
<path d="M90.528 68.3361C90.7097 68.4244 90.8631 68.5619 90.9705 68.733C91.078 68.9042 91.1353 69.102 91.136 69.3041V74.6321C91.1346 74.7967 91.0954 74.9588 91.0214 75.1058C90.9473 75.2529 90.8403 75.3809 90.7088 75.4799C90.5773 75.5789 90.4247 75.6463 90.263 75.6769C90.1012 75.7074 89.9345 75.7003 89.776 75.6561C89.3367 75.5438 88.8793 75.5213 88.4312 75.5901C87.983 75.6588 87.5534 75.8173 87.168 76.0561C86.8149 76.2615 86.5068 76.5359 86.2621 76.8631C86.0174 77.1902 85.8412 77.5633 85.744 77.9601C85.6767 78.3648 85.6901 78.7789 85.7835 79.1784C85.8769 79.5779 86.0483 79.9551 86.288 80.2881C86.5408 80.6636 86.8653 80.9855 87.2428 81.2354C87.6204 81.4852 88.0435 81.6581 88.488 81.7441C89.3907 81.8344 90.2973 81.6152 91.059 81.1224C91.8208 80.6296 92.3923 79.8925 92.68 79.0321C92.7777 78.7765 92.9694 78.5679 93.2159 78.4492C93.4624 78.3304 93.745 78.3104 94.0058 78.3932C94.2666 78.476 94.4859 78.6555 94.6186 78.8947C94.7514 79.134 94.7877 79.4149 94.72 79.6801C94.2731 81.0257 93.3756 82.176 92.179 82.9368C90.9825 83.6976 89.5601 84.0223 88.152 83.8561C87.4212 83.7265 86.7239 83.4516 86.1014 83.0476C85.4789 82.6436 84.9439 82.1187 84.528 81.5041C84.1198 80.9308 83.8315 80.2811 83.6803 79.5938C83.5291 78.9065 83.5181 78.1957 83.648 77.5041C83.8046 76.8221 84.098 76.179 84.5106 75.6138C84.9231 75.0486 85.4462 74.5731 86.048 74.2161C86.9364 73.6821 87.9555 73.4051 88.992 73.4161V69.3041C88.992 69.0211 89.1038 68.7497 89.3031 68.5489C89.5024 68.3481 89.773 68.2342 90.056 68.2321C90.2191 68.2312 90.3803 68.2667 90.528 68.3361Z" fill="#00B071"/>
<path d="M89.056 66.096C89.0513 65.9217 89.0984 65.7499 89.1915 65.6024C89.2846 65.455 89.4193 65.3385 89.5787 65.2678C89.7381 65.1971 89.9149 65.1753 90.0867 65.2052C90.2585 65.2351 90.4175 65.3154 90.5436 65.4358C90.6696 65.5563 90.7571 65.7115 90.7948 65.8817C90.8325 66.052 90.8188 66.2296 90.7555 66.392C90.6921 66.5545 90.5819 66.6944 90.4388 66.7941C90.2958 66.8938 90.1263 66.9488 89.952 66.952C89.7205 66.9542 89.4974 66.866 89.33 66.7061C89.1626 66.5462 89.0643 66.3273 89.056 66.096Z" fill="#00B071"/>
</svg>
