<svg width="400" height="400" viewBox="0 0 400 400" fill="none" xmlns="http://www.w3.org/2000/svg">
<path d="M359.92 318.792H333.424V318.992H359.92V318.792Z" fill="#EBEBEB"/>
<path d="M264.976 320.968H258.024V321.168H264.976V320.968Z" fill="#EBEBEB"/>
<path d="M332.624 311.368H317.272V311.568H332.624V311.368Z" fill="#EBEBEB"/>
<path d="M76.52 312.712H41.968V312.912H76.52V312.712Z" fill="#EBEBEB"/>
<path d="M88.712 312.712H83.6479V312.912H88.712V312.712Z" fill="#EBEBEB"/>
<path d="M180.12 316.088H105.176V316.288H180.12V316.088Z" fill="#EBEBEB"/>
<path d="M189.6 270.24H35.136C33.9245 270.24 32.7626 269.759 31.9059 268.902C31.0493 268.045 30.568 266.884 30.568 265.672V48.528C30.5785 47.3234 31.0645 46.1718 31.92 45.3238C32.7755 44.4757 33.9314 44 35.136 44H189.6C190.811 44 191.973 44.4813 192.83 45.3379C193.687 46.1946 194.168 47.3565 194.168 48.568V265.672C194.168 266.884 193.687 268.045 192.83 268.902C191.973 269.759 190.811 270.24 189.6 270.24ZM35.136 44.16C33.9782 44.1621 32.8684 44.623 32.0497 45.4417C31.231 46.2604 30.7701 47.3702 30.768 48.528V265.672C30.7701 266.83 31.231 267.94 32.0497 268.758C32.8684 269.577 33.9782 270.038 35.136 270.04H189.6C190.758 270.038 191.868 269.577 192.686 268.758C193.505 267.94 193.966 266.83 193.968 265.672V48.528C193.966 47.3702 193.505 46.2604 192.686 45.4417C191.868 44.623 190.758 44.1621 189.6 44.16H35.136Z" fill="#EBEBEB"/>
<path d="M362.648 270.24H208.168C206.957 270.238 205.796 269.756 204.94 268.9C204.084 268.044 203.602 266.883 203.6 265.672V48.528C203.613 47.3241 204.099 46.1737 204.954 45.3261C205.809 44.4785 206.964 44.002 208.168 44H362.648C363.85 44.0042 365.002 44.4818 365.854 45.3294C366.706 46.177 367.189 47.3262 367.2 48.528V265.672C367.2 266.881 366.721 268.04 365.868 268.896C365.014 269.753 363.857 270.236 362.648 270.24ZM208.168 44.16C207.01 44.1621 205.9 44.623 205.082 45.4417C204.263 46.2604 203.802 47.3702 203.8 48.528V265.672C203.802 266.83 204.263 267.94 205.082 268.758C205.9 269.577 207.01 270.038 208.168 270.04H362.648C363.806 270.038 364.916 269.577 365.734 268.758C366.553 267.94 367.014 266.83 367.016 265.672V48.528C367.014 47.3702 366.553 46.2604 365.734 45.4417C364.916 44.623 363.806 44.1621 362.648 44.16H208.168Z" fill="#EBEBEB"/>
<path d="M400 305.92H0V306.12H400V305.92Z" fill="#EBEBEB"/>
<path d="M302.264 172.128H348.896C350.381 172.125 351.842 171.752 353.147 171.044C354.452 170.335 355.561 169.313 356.373 168.07C357.185 166.826 357.674 165.4 357.798 163.92C357.921 162.44 357.675 160.953 357.08 159.592C353.984 152.48 347.4 148.624 341.448 153.992C332.496 161.992 332.92 146.448 322.208 148.632C312.84 150.544 314.128 159.768 308.392 161.664C302.656 163.56 294.736 170.008 302.264 172.128Z" fill="#FAFAFA"/>
<path d="M228.384 88.32H262.4C263.482 88.3194 264.547 88.0502 265.5 87.5364C266.452 87.0226 267.262 86.2804 267.857 85.3763C268.452 84.4723 268.813 83.4347 268.907 82.3567C269.002 81.2787 268.828 80.194 268.4 79.2C266.136 74.008 261.328 71.2 256.992 75.088C250.456 80.96 250.76 69.584 242.944 71.184C236.104 72.576 237.048 79.312 232.856 80.688C228.664 82.064 222.896 86.768 228.384 88.32Z" fill="#FAFAFA"/>
<path d="M295.744 306.016H290.144V126.936C290.148 122.116 292.064 117.494 295.472 114.085C298.879 110.676 303.5 108.758 308.32 108.752H313.272V114.352H308.32C304.985 114.356 301.787 115.684 299.429 118.043C297.072 120.402 295.746 123.601 295.744 126.936V306.016Z" fill="#F0F0F0"/>
<path d="M334.504 80H313.272V139.984H334.504V80Z" fill="#EBEBEB"/>
<path d="M313.272 140H334.504V140.112C334.504 141.209 334.068 142.261 333.293 143.037C332.517 143.812 331.465 144.248 330.368 144.248H317.408C316.311 144.248 315.259 143.812 314.483 143.037C313.708 142.261 313.272 141.209 313.272 140.112V140Z" fill="#E6E6E6"/>
<path d="M323.888 98.9839C327.524 98.9839 330.472 96.0362 330.472 92.3999C330.472 88.7637 327.524 85.8159 323.888 85.8159C320.252 85.8159 317.304 88.7637 317.304 92.3999C317.304 96.0362 320.252 98.9839 323.888 98.9839Z" fill="#F0F0F0"/>
<path d="M323.888 97.3841C327.524 97.3841 330.472 94.4363 330.472 90.8001C330.472 87.1638 327.524 84.2161 323.888 84.2161C320.252 84.2161 317.304 87.1638 317.304 90.8001C317.304 94.4363 320.252 97.3841 323.888 97.3841Z" fill="#FAFAFA"/>
<path d="M323.888 116.984C327.524 116.984 330.472 114.036 330.472 110.4C330.472 106.764 327.524 103.816 323.888 103.816C320.252 103.816 317.304 106.764 317.304 110.4C317.304 114.036 320.252 116.984 323.888 116.984Z" fill="#F0F0F0"/>
<path d="M323.888 115.384C327.524 115.384 330.472 112.436 330.472 108.8C330.472 105.164 327.524 102.216 323.888 102.216C320.252 102.216 317.304 105.164 317.304 108.8C317.304 112.436 320.252 115.384 323.888 115.384Z" fill="#FAFAFA"/>
<path d="M323.888 134.984C327.524 134.984 330.472 132.036 330.472 128.4C330.472 124.764 327.524 121.816 323.888 121.816C320.252 121.816 317.304 124.764 317.304 128.4C317.304 132.036 320.252 134.984 323.888 134.984Z" fill="#F0F0F0"/>
<path d="M323.888 133.384C327.524 133.384 330.472 130.436 330.472 126.8C330.472 123.164 327.524 120.216 323.888 120.216C320.252 120.216 317.304 123.164 317.304 126.8C317.304 130.436 320.252 133.384 323.888 133.384Z" fill="#FAFAFA"/>
<path d="M349.528 253.64H312.576V269.768H349.528V253.64Z" fill="#EBEBEB"/>
<path d="M315.144 251.408H310V272H315.144V251.408Z" fill="#F5F5F5"/>
<path d="M352.096 251.408H346.952V272H352.096V251.408Z" fill="#F5F5F5"/>
<path d="M309.088 259.136H312.576V264.28H309.088C308.647 264.28 308.224 264.105 307.911 263.793C307.599 263.481 307.424 263.057 307.424 262.616V260.8C307.424 260.359 307.599 259.935 307.911 259.623C308.224 259.311 308.647 259.136 309.088 259.136Z" fill="#F5F5F5"/>
<path d="M353 264.28H349.512V259.136H353C353.441 259.136 353.865 259.311 354.177 259.623C354.489 259.935 354.664 260.359 354.664 260.8V262.616C354.664 263.057 354.489 263.481 354.177 263.793C353.865 264.105 353.441 264.28 353 264.28Z" fill="#F5F5F5"/>
<path d="M340.976 299.2H321.12V243.44C321.12 242.136 321.377 240.845 321.876 239.641C322.375 238.436 323.106 237.342 324.028 236.42C324.95 235.498 326.044 234.767 327.249 234.268C328.453 233.769 329.744 233.512 331.048 233.512C332.352 233.511 333.644 233.767 334.849 234.266C336.054 234.764 337.148 235.495 338.071 236.417C338.993 237.34 339.724 238.434 340.222 239.639C340.721 240.844 340.977 242.136 340.976 243.44V299.2Z" fill="#F5F5F5"/>
<path d="M322.456 295.848H339.648C340.296 295.849 340.938 295.978 341.536 296.228C342.134 296.477 342.677 296.843 343.133 297.303C343.59 297.763 343.951 298.309 344.195 298.909C344.44 299.509 344.564 300.152 344.56 300.8V306.056H317.536V300.8C317.532 300.151 317.656 299.508 317.901 298.907C318.147 298.307 318.508 297.761 318.966 297.3C319.423 296.84 319.967 296.475 320.566 296.225C321.165 295.976 321.807 295.848 322.456 295.848Z" fill="#EBEBEB"/>
<path d="M331.048 270.168C335.74 270.168 339.544 266.364 339.544 261.672C339.544 256.98 335.74 253.176 331.048 253.176C326.356 253.176 322.552 256.98 322.552 261.672C322.552 266.364 326.356 270.168 331.048 270.168Z" fill="#FAFAFA"/>
<path d="M333.072 261.672C333.074 262.073 332.956 262.465 332.735 262.799C332.513 263.133 332.198 263.393 331.828 263.548C331.458 263.702 331.051 263.743 330.658 263.666C330.265 263.589 329.904 263.397 329.62 263.114C329.336 262.831 329.142 262.471 329.064 262.078C328.985 261.685 329.024 261.278 329.177 260.907C329.33 260.537 329.59 260.22 329.923 259.998C330.256 259.775 330.647 259.656 331.048 259.656C331.583 259.656 332.097 259.868 332.476 260.246C332.856 260.624 333.07 261.137 333.072 261.672Z" fill="#EBEBEB"/>
<path d="M317.536 246.264C317.536 245.581 317.807 244.926 318.291 244.443C318.774 243.959 319.429 243.688 320.112 243.688H341.992C342.674 243.69 343.327 243.962 343.808 244.445C344.29 244.928 344.56 245.582 344.56 246.264C344.56 246.946 344.29 247.6 343.808 248.083C343.327 248.566 342.674 248.838 341.992 248.84H320.112C319.429 248.84 318.774 248.569 318.291 248.085C317.807 247.602 317.536 246.947 317.536 246.264Z" fill="#F0F0F0"/>
<path d="M326.728 274.792C327.41 274.792 328.064 275.062 328.547 275.544C329.03 276.025 329.302 276.678 329.304 277.36V290.664C329.304 291.002 329.237 291.337 329.108 291.65C328.978 291.962 328.789 292.246 328.55 292.485C328.31 292.725 328.026 292.914 327.714 293.044C327.401 293.173 327.066 293.24 326.728 293.24C326.046 293.238 325.393 292.966 324.912 292.483C324.43 292 324.16 291.346 324.16 290.664V277.36C324.16 276.679 324.431 276.026 324.912 275.544C325.394 275.063 326.047 274.792 326.728 274.792Z" fill="#EBEBEB"/>
<path d="M335.368 274.792C336.05 274.792 336.704 275.062 337.187 275.544C337.67 276.025 337.942 276.678 337.944 277.36V290.664C337.944 291.002 337.877 291.337 337.748 291.65C337.619 291.962 337.429 292.246 337.19 292.485C336.95 292.725 336.666 292.914 336.354 293.044C336.041 293.173 335.706 293.24 335.368 293.24C334.686 293.238 334.033 292.966 333.552 292.483C333.07 292 332.8 291.346 332.8 290.664V277.36C332.8 276.679 333.071 276.026 333.552 275.544C334.034 275.063 334.687 274.792 335.368 274.792Z" fill="#EBEBEB"/>
<path d="M57.6401 306.136H55.6721C55.5352 306.136 55.3997 306.109 55.2738 306.055C55.1478 306.002 55.034 305.923 54.9391 305.824C54.8442 305.726 54.7702 305.609 54.7216 305.481C54.673 305.353 54.6507 305.217 54.6561 305.08L56.8001 256.736H61.8401L58.6401 305.192C58.622 305.446 58.5093 305.684 58.324 305.859C58.1388 306.034 57.8947 306.133 57.6401 306.136Z" fill="#F0F0F0"/>
<path d="M65.904 306.136H63.936C63.7995 306.136 63.6644 306.109 63.5389 306.055C63.4133 306.001 63.3 305.923 63.2057 305.824C63.1115 305.725 63.0383 305.608 62.9905 305.481C62.9428 305.353 62.9215 305.216 62.928 305.08L65.048 256.736H70.104L66.904 305.192C66.8878 305.447 66.7756 305.686 66.59 305.861C66.4044 306.036 66.1592 306.135 65.904 306.136Z" fill="#F0F0F0"/>
<path d="M88.8641 306.136H90.8321C90.9689 306.136 91.1044 306.109 91.2303 306.055C91.3563 306.002 91.4701 305.923 91.565 305.824C91.6599 305.726 91.7339 305.609 91.7825 305.481C91.8312 305.353 91.8534 305.217 91.8481 305.08L89.7201 256.736H84.6641L87.8641 305.192C87.8803 305.447 87.9925 305.686 88.1781 305.861C88.3637 306.036 88.6088 306.135 88.8641 306.136Z" fill="#F0F0F0"/>
<path d="M97.0081 306.136H98.976C99.1129 306.136 99.2484 306.109 99.3743 306.055C99.5003 306.002 99.6141 305.923 99.709 305.824C99.8039 305.726 99.8779 305.609 99.9265 305.481C99.9751 305.353 99.9974 305.217 99.992 305.08L97.872 256.736H92.8L96 305.192C96.0163 305.448 96.1297 305.688 96.317 305.864C96.5043 306.039 96.7514 306.137 97.0081 306.136Z" fill="#F0F0F0"/>
<path d="M70.32 228.296H66.032V250.952H70.32V228.296Z" fill="#F0F0F0"/>
<path d="M89.2799 228.296H84.9919V250.952H89.2799V228.296Z" fill="#F0F0F0"/>
<path d="M103.8 255.784C103.8 260.792 92.216 260.32 77.928 260.32C63.64 260.32 52.048 260.792 52.048 255.784C52.048 250.776 63.632 246.712 77.928 246.712C92.224 246.712 103.8 250.768 103.8 255.784Z" fill="#F5F5F5"/>
<path d="M90.232 230.76H65.6C63.7238 230.76 61.9167 230.052 60.5392 228.778C59.1617 227.505 58.315 225.758 58.168 223.888L57.368 214.064C57.2933 213.042 57.4299 212.016 57.7695 211.049C58.1091 210.082 58.6442 209.196 59.3416 208.445C60.039 207.695 60.8836 207.096 61.8227 206.686C62.7619 206.276 63.7754 206.065 64.8 206.064H90.952C91.977 206.063 92.9911 206.274 93.9308 206.684C94.8705 207.093 95.7156 207.692 96.4132 208.443C97.1108 209.194 97.6459 210.08 97.985 211.048C98.3242 212.015 98.46 213.042 98.384 214.064L97.584 223.888C97.44 225.745 96.6052 227.481 95.2442 228.753C93.8832 230.026 92.0949 230.742 90.232 230.76Z" fill="#F5F5F5"/>
<path d="M83.888 137.696H54.824V160.608H83.888V137.696Z" fill="#F0F0F0"/>
<path d="M54.824 137.696H53.256V160.608H54.824V137.696Z" fill="#E0E0E0"/>
<path d="M80.9201 140.032H57.7841V158.272H80.9201V140.032Z" fill="#FAFAFA"/>
<path d="M79.024 141.536H59.696V156.776H79.024V141.536Z" fill="#EBEBEB"/>
<path d="M121.872 100.512H89.88V141.08H121.872V100.512Z" fill="#EBEBEB"/>
<path d="M89.88 100.512H88.3521V141.08H89.88V100.512Z" fill="#E0E0E0"/>
<path d="M118.608 104.648H93.144V136.944H118.608V104.648Z" fill="#F5F5F5"/>
<path d="M116.512 107.312H95.24V134.296H116.512V107.312Z" fill="#FAFAFA"/>
<path d="M101.664 116.8C101.664 116.8 105.424 122.12 107.36 122.032C109.128 121.96 112.16 116.8 112.16 116.8C112.16 116.8 108.4 111.48 106.464 111.568C104.672 111.672 101.664 116.8 101.664 116.8Z" fill="#EBEBEB"/>
<path d="M111.504 128.608C112.616 126.464 106.808 121.96 104.392 122.064C102.176 122.16 97.56 126.568 98.424 128.608C99.688 131.624 110 131.512 111.504 128.608Z" fill="#F0F0F0"/>
<path d="M63.72 125.608C71.695 125.608 78.16 116.593 78.16 105.472C78.16 94.3511 71.695 85.3359 63.72 85.3359C55.745 85.3359 49.28 94.3511 49.28 105.472C49.28 116.593 55.745 125.608 63.72 125.608Z" fill="#E0E0E0"/>
<path d="M65.44 125.608C73.415 125.608 79.88 116.593 79.88 105.472C79.88 94.3511 73.415 85.3359 65.44 85.3359C57.465 85.3359 51 94.3511 51 105.472C51 116.593 57.465 125.608 65.44 125.608Z" fill="#EBEBEB"/>
<path d="M65.44 122.624C72.2353 122.624 77.744 114.945 77.744 105.472C77.744 95.9993 72.2353 88.3201 65.44 88.3201C58.6447 88.3201 53.136 95.9993 53.136 105.472C53.136 114.945 58.6447 122.624 65.44 122.624Z" fill="#E6E6E6"/>
<path d="M65.44 120.8C71.5107 120.8 76.432 113.937 76.432 105.472C76.432 97.0066 71.5107 90.144 65.44 90.144C59.3693 90.144 54.448 97.0066 54.448 105.472C54.448 113.937 59.3693 120.8 65.44 120.8Z" fill="#FAFAFA"/>
<path d="M68.888 113.8C70.0332 112.706 70.929 111.378 71.5144 109.906C72.0998 108.434 72.3609 106.854 72.28 105.272C72.28 105.272 67.744 104.736 67.88 112.336C67.88 112.336 62.768 107.032 64.28 103.672C66.68 98.416 66.68 98.416 64.968 95.136C64.968 95.136 60.512 96.936 62.568 103C62.6087 104.581 62.8479 106.151 63.28 107.672C63.28 107.672 58.792 103.368 57.344 106.184C57.344 106.184 59.744 110.736 63.28 108.848C63.256 108.848 67.2 115.816 68.888 113.8Z" fill="#EBEBEB"/>
<path d="M196.144 338.968C281.81 338.968 351.256 334.913 351.256 329.912C351.256 324.91 281.81 320.856 196.144 320.856C110.478 320.856 41.032 324.91 41.032 329.912C41.032 334.913 110.478 338.968 196.144 338.968Z" fill="#F5F5F5"/>
<path d="M257.424 156.488C255.272 154.248 253.744 150.088 253 147.408L249.6 155.52C250.147 156.151 250.543 156.898 250.759 157.705C250.975 158.511 251.006 159.356 250.848 160.176C250.848 160.248 250.728 161.608 248.448 163C248.448 163 248.856 171.208 253.744 170.048C258.632 168.888 261.288 159.144 261.288 159.144L261.64 156.384C261.64 156.384 259.416 158.256 257.424 156.488Z" fill="#FFC3BD"/>
<path opacity="0.1" d="M250.456 153.536L249.656 155.52C250.296 156.287 250.73 157.203 250.92 158.184C253.16 155.544 253.408 151.272 253.408 151.272L250.456 153.536Z" fill="black"/>
<path d="M214.968 193.016C214.968 193.016 228.16 193.552 234.016 191.952C239.872 190.352 244.848 180.104 244.848 180.104L238.168 176.416L231.528 186.296L214.984 188.944L210.232 185.6C210.232 185.6 200.632 183.552 200.632 184.8C200.632 186.048 205.584 187.056 205.584 187.056C205.584 187.056 205.88 192.96 207.912 193.144C209.944 193.328 214.968 193.016 214.968 193.016Z" fill="#FFC3BD"/>
<path d="M247.256 164.8C247.256 164.8 241.544 165.6 237.808 172.52C234.072 179.44 237.264 179.72 240.424 181.672C243.584 183.624 245.168 184.072 246.624 179.8C248.08 175.528 250.952 164.36 247.256 164.8Z" fill="#00B071"/>
<path opacity="0.1" d="M247.24 177.848L245.12 173.528L241.56 173.256C241.388 176.312 241.449 179.377 241.744 182.424C244.056 183.632 245.392 183.392 246.624 179.784C246.808 179.24 247.024 178.584 247.24 177.848Z" fill="black"/>
<path d="M235.864 137.232C235.864 137.232 231.704 138.704 234.456 142.936C237.208 147.168 231.656 150.048 240.976 151.216C250.296 152.384 241.304 135.528 241.304 135.528L235.864 137.232Z" fill="#263238"/>
<path opacity="0.3" d="M235.864 137.232C235.864 137.232 231.704 138.704 234.456 142.936C237.208 147.168 231.656 150.048 240.976 151.216C250.296 152.384 241.304 135.528 241.304 135.528L235.864 137.232Z" fill="black"/>
<path d="M271.696 163.792C270.304 154.736 265.032 154.896 259.896 156.92C260.256 160.328 260.264 164.68 255.328 167.392C250.888 169.792 249.16 165.792 249.064 162.416C244.408 165.064 240.52 168.456 241.792 175.216C242.52 179.056 245.912 183.272 249.384 188.624C253.536 195.024 257.808 202.288 257.808 202.288L281.536 190.208C281.536 190.208 273.208 173.6 271.696 163.792Z" fill="#00B071"/>
<path opacity="0.2" d="M271.696 163.792C271.528 162.625 271.241 161.477 270.84 160.368L267.248 159.76L265.376 162.736C265.376 162.736 269.336 169.712 274.6 174.12C273.315 170.775 272.342 167.317 271.696 163.792Z" fill="black"/>
<path d="M278.04 160.912C278.04 160.912 286.184 166.512 288.672 168.632C292.376 171.832 302.352 182.608 302.352 182.608L308.472 185.952V189.824L305.576 191.824C305.365 191.97 305.126 192.073 304.875 192.126C304.623 192.179 304.363 192.181 304.111 192.133C303.859 192.084 303.618 191.986 303.404 191.844C303.19 191.702 303.006 191.518 302.864 191.304L299.152 185.76C299.152 185.76 290 177.4 286.632 175.016C283.784 173 274.552 168.048 274.552 168.048L278.04 160.912Z" fill="#FFC3BD"/>
<path d="M263.008 156.08C263.008 156.08 268.256 153.72 272.728 156.08C277.2 158.44 279.176 159.736 278.736 162.584C278.296 165.432 276.656 171.32 273.712 170.344C270.768 169.368 261.376 160.048 263.008 156.08Z" fill="#00B071"/>
<path d="M254.24 140.656C254.848 146.792 255.24 149.368 252.68 152.976C248.824 158.408 241.16 157.816 238.736 151.992C236.544 146.744 235.92 137.592 241.472 134.232C242.691 133.473 244.084 133.038 245.518 132.971C246.952 132.904 248.38 133.206 249.664 133.848C250.948 134.49 252.046 135.451 252.853 136.639C253.66 137.827 254.148 139.202 254.272 140.632L254.24 140.656Z" fill="#FFC3BD"/>
<path d="M241.352 145.344C241.095 146.542 240.675 147.7 240.104 148.784C240.383 148.925 240.689 149.003 241.002 149.013C241.314 149.023 241.625 148.964 241.912 148.84L241.352 145.344Z" fill="#ED893E"/>
<path d="M245.448 141.248C245.485 141.227 245.515 141.197 245.536 141.16C245.566 141.104 245.573 141.039 245.557 140.978C245.541 140.918 245.502 140.865 245.448 140.832C245.056 140.595 244.613 140.456 244.157 140.427C243.7 140.398 243.243 140.479 242.824 140.664C242.767 140.696 242.725 140.749 242.705 140.811C242.686 140.874 242.691 140.941 242.72 141C242.749 141.056 242.799 141.098 242.859 141.117C242.919 141.137 242.984 141.132 243.04 141.104C243.39 140.957 243.769 140.895 244.147 140.922C244.526 140.95 244.892 141.067 245.216 141.264C245.253 141.282 245.293 141.29 245.334 141.287C245.375 141.284 245.414 141.271 245.448 141.248Z" fill="#263238"/>
<path d="M236.288 142.8L236.392 142.72C236.629 142.429 236.932 142.198 237.275 142.045C237.618 141.892 237.993 141.822 238.368 141.84C238.433 141.849 238.498 141.832 238.551 141.793C238.603 141.754 238.638 141.696 238.648 141.632C238.651 141.567 238.629 141.503 238.588 141.453C238.547 141.403 238.488 141.37 238.424 141.36C237.969 141.335 237.515 141.417 237.098 141.601C236.681 141.784 236.313 142.064 236.024 142.416C235.979 142.462 235.955 142.524 235.955 142.588C235.955 142.652 235.979 142.714 236.024 142.76C236.06 142.791 236.103 142.811 236.149 142.82C236.196 142.828 236.244 142.824 236.288 142.808V142.8Z" fill="#263238"/>
<path d="M244.712 144C244.792 144.488 244.592 144.928 244.264 144.984C243.936 145.04 243.616 144.688 243.544 144.184C243.472 143.68 243.656 143.256 243.976 143.2C244.296 143.144 244.624 143.472 244.712 144Z" fill="#263238"/>
<path d="M239.12 144.872C239.2 145.36 239 145.8 238.68 145.856C238.36 145.912 238.04 145.552 237.952 145.056C237.864 144.56 238.072 144.12 238.392 144.072C238.712 144.024 239.048 144.368 239.12 144.872Z" fill="#263238"/>
<path d="M238.536 144.072L237.296 143.928C237.296 143.928 238.056 144.752 238.536 144.072Z" fill="#263238"/>
<path d="M244.128 143.2L242.888 143.056C242.888 143.056 243.648 143.848 244.128 143.2Z" fill="#263238"/>
<path d="M245.904 151.112C246.208 150.964 246.497 150.787 246.768 150.584C246.787 150.57 246.803 150.553 246.816 150.533C246.828 150.514 246.836 150.491 246.84 150.468C246.844 150.445 246.843 150.422 246.837 150.399C246.832 150.376 246.822 150.355 246.808 150.336C246.774 150.305 246.73 150.288 246.684 150.288C246.638 150.288 246.594 150.305 246.56 150.336C245.963 150.793 245.267 151.104 244.527 151.243C243.788 151.382 243.026 151.345 242.304 151.136C242.282 151.127 242.259 151.122 242.236 151.122C242.213 151.122 242.189 151.126 242.168 151.135C242.146 151.144 242.127 151.157 242.11 151.174C242.094 151.191 242.081 151.21 242.072 151.232C242.062 151.254 242.056 151.278 242.056 151.302C242.056 151.326 242.061 151.35 242.071 151.372C242.081 151.394 242.095 151.413 242.113 151.429C242.131 151.445 242.153 151.457 242.176 151.464C243.417 151.836 244.754 151.709 245.904 151.112Z" fill="#263238"/>
<path d="M241.008 137.296C238.608 137.584 232.208 139.408 233.224 133.44C234.24 127.472 245.672 124.488 250.984 128.344C256.296 132.2 260.376 131.912 264.584 128.784C268.792 125.656 270.84 126.888 276.232 129.8C276.232 129.8 273.32 134.824 274.704 137.88C274.704 137.88 271.504 134.68 265.528 138.096C265.528 138.096 272.44 136.264 275.064 141.04C275.064 141.04 274.336 146.312 276.88 149.448C279.424 152.584 276.808 156.296 267.056 152.512C257.304 148.728 256.264 152.2 254.016 150.528C251.768 148.856 250.08 144.328 249.728 141.04C249.504 138.672 248.44 136.416 241.008 137.296Z" fill="#263238"/>
<path d="M255.08 144.872C255.004 145.458 254.812 146.023 254.517 146.535C254.222 147.047 253.829 147.496 253.36 147.856C252.104 148.8 250.896 147.856 250.768 146.328C250.648 144.992 251.16 142.88 252.656 142.512C252.986 142.444 253.327 142.459 253.649 142.556C253.971 142.652 254.265 142.827 254.503 143.065C254.741 143.303 254.916 143.597 255.012 143.919C255.109 144.241 255.124 144.582 255.056 144.912L255.08 144.872Z" fill="#FFC3BD"/>
<path d="M287.2 314.4C287.408 319.512 287.56 323.568 287.56 323.568L281.88 324.216C281.88 324.216 281.336 320.76 280.52 315.456L287.2 314.4Z" fill="#FFC3BD"/>
<path d="M279.384 322.984C278.798 323.091 278.194 322.977 277.688 322.664C277.627 322.579 277.595 322.477 277.595 322.372C277.595 322.267 277.627 322.165 277.688 322.08C277.727 321.998 277.783 321.925 277.852 321.866C277.921 321.807 278.001 321.762 278.088 321.736C279.024 321.416 281.072 322.416 281.16 322.464C281.185 322.476 281.206 322.496 281.22 322.52C281.234 322.544 281.241 322.572 281.24 322.6C281.237 322.627 281.225 322.653 281.206 322.673C281.188 322.693 281.163 322.707 281.136 322.712C280.561 322.856 279.975 322.947 279.384 322.984ZM278.416 321.944C278.328 321.944 278.241 321.96 278.16 321.992C278.105 322.003 278.053 322.027 278.008 322.061C277.964 322.096 277.928 322.141 277.904 322.192C277.816 322.368 277.856 322.448 277.904 322.488C278.192 322.84 279.624 322.76 280.672 322.56C279.96 322.214 279.189 322.005 278.4 321.944H278.416Z" fill="#00B071"/>
<path d="M281.088 322.712H281.032C280.336 322.456 278.896 321.312 278.976 320.664C278.976 320.512 279.08 320.32 279.448 320.256C279.587 320.227 279.73 320.229 279.868 320.261C280.006 320.292 280.136 320.354 280.248 320.44C280.806 321.025 281.162 321.774 281.264 322.576C281.269 322.596 281.269 322.616 281.264 322.636C281.259 322.656 281.248 322.673 281.233 322.687C281.218 322.701 281.2 322.711 281.18 322.715C281.16 322.72 281.139 322.719 281.12 322.712H281.088ZM279.552 320.504H279.48C279.24 320.504 279.224 320.64 279.224 320.672C279.224 321.056 280.168 321.968 280.896 322.336C280.789 321.698 280.487 321.108 280.032 320.648C279.894 320.545 279.724 320.494 279.552 320.504Z" fill="#00B071"/>
<path d="M281.64 321.88L287.832 321.488C287.946 321.48 288.059 321.512 288.152 321.577C288.245 321.643 288.313 321.738 288.344 321.848L289.792 326.816C289.827 326.92 289.841 327.031 289.831 327.141C289.822 327.251 289.79 327.357 289.737 327.454C289.685 327.551 289.613 327.636 289.526 327.704C289.439 327.772 289.339 327.821 289.232 327.848C289.174 327.856 289.114 327.856 289.056 327.848C286.824 327.952 284.824 327.96 282.048 328.136C278.768 328.352 279.648 328.688 275.768 328.992C273.448 329.168 272.856 326.592 273.832 326.36C278.304 325.504 278.688 324.112 280.32 322.36C280.691 322.051 281.158 321.881 281.64 321.88Z" fill="#263238"/>
<path d="M283.76 193.744L282.68 189.864C282.646 189.755 282.589 189.654 282.513 189.568C282.437 189.483 282.344 189.415 282.239 189.369C282.135 189.322 282.021 189.299 281.907 189.3C281.792 189.302 281.68 189.327 281.576 189.376L257.368 201.6C257.27 201.653 257.185 201.725 257.117 201.813C257.049 201.9 256.999 202.001 256.972 202.109C256.945 202.216 256.941 202.328 256.959 202.438C256.978 202.547 257.019 202.651 257.08 202.744L259.528 206.304C259.528 206.304 265.536 247.2 268 260.8C270.544 274.664 279.648 316.152 279.648 316.152C279.677 316.3 279.763 316.43 279.887 316.515C280.011 316.601 280.164 316.634 280.312 316.608L287.36 315.472C287.494 315.45 287.616 315.382 287.705 315.28C287.794 315.177 287.844 315.047 287.848 314.912C287.928 311.376 287.848 289.024 285.624 273.208C284.824 267.56 282.92 263.032 282.272 259.92C281.56 256.488 282.664 254.184 283.072 245.92C283.952 230.4 284.928 205.84 283.76 193.744Z" fill="#263238"/>
<path opacity="0.5" d="M283.128 245.952C283.408 240.744 283.696 234.536 283.928 228.12L276.904 216.28L273.776 209.288L270.816 213.288C270.816 213.288 276.048 235.296 282.92 249.12C282.992 248.192 283.072 247.136 283.128 245.952Z" fill="black"/>
<path d="M336.4 294.832C339.344 299.016 341.256 301.768 341.256 301.768L336.8 305.384L330.912 298.76L336.4 294.832Z" fill="#FFC3BD"/>
<path d="M333.728 305.664C333.293 306.071 332.723 306.302 332.128 306.312C332.027 306.278 331.94 306.214 331.878 306.128C331.817 306.042 331.784 305.938 331.784 305.832C331.768 305.651 331.822 305.47 331.936 305.328C332.552 304.528 334.816 304.288 334.92 304.272C334.948 304.268 334.977 304.274 335.002 304.289C335.026 304.303 335.046 304.326 335.056 304.352C335.071 304.375 335.079 304.401 335.079 304.428C335.079 304.455 335.071 304.482 335.056 304.504C334.646 304.927 334.202 305.315 333.728 305.664ZM332.344 305.312C332.273 305.362 332.208 305.421 332.152 305.488C332.115 305.531 332.088 305.58 332.071 305.634C332.055 305.688 332.05 305.744 332.056 305.8C332.056 305.992 332.152 306.04 332.208 306.056C332.64 306.192 333.808 305.352 334.608 304.616C333.816 304.701 333.047 304.937 332.344 305.312Z" fill="#00B071"/>
<path d="M335.016 304.512H334.968C334.24 304.672 332.408 304.512 332.128 303.904C332.048 303.768 332.024 303.552 332.304 303.304C332.403 303.213 332.519 303.142 332.645 303.097C332.771 303.052 332.906 303.032 333.04 303.04C333.829 303.233 334.537 303.67 335.064 304.288C335.076 304.309 335.082 304.332 335.082 304.356C335.082 304.38 335.076 304.403 335.064 304.424C335.058 304.458 335.041 304.489 335.016 304.512ZM332.528 303.488L332.464 303.528C332.28 303.688 332.32 303.776 332.336 303.808C332.536 304.136 333.832 304.384 334.648 304.296C334.206 303.821 333.632 303.49 333 303.344C332.831 303.335 332.663 303.386 332.528 303.488Z" fill="#00B071"/>
<path d="M335.024 303.52L340.024 299.832C340.112 299.761 340.222 299.722 340.336 299.722C340.449 299.722 340.56 299.761 340.648 299.832L344.544 303.232C344.63 303.3 344.702 303.385 344.754 303.482C344.806 303.579 344.837 303.686 344.846 303.795C344.855 303.905 344.842 304.015 344.806 304.119C344.771 304.223 344.714 304.319 344.64 304.4C344.601 304.444 344.558 304.484 344.512 304.52C342.688 305.816 341.008 306.92 338.768 308.56C336.128 310.512 337.032 310.336 333.968 312.672C332.112 314.08 330.2 312.2 330.912 311.512C334.216 308.368 333.784 306.992 334.224 304.656C334.348 304.195 334.631 303.792 335.024 303.52Z" fill="#263238"/>
<path d="M266.032 203.616C266.032 203.616 284.568 246.344 293.328 259.08C301.112 270.392 330.664 299.336 330.664 299.336C330.882 299.571 331.183 299.713 331.503 299.732C331.823 299.752 332.139 299.647 332.384 299.44L336.488 295.952C336.713 295.758 336.862 295.492 336.908 295.199C336.955 294.906 336.897 294.606 336.744 294.352C334.224 290.248 323.616 273.184 314.304 262.08C310.592 257.656 307.024 254.408 305.264 251.968C302.952 248.768 303.496 246.16 301.664 237.208C298.256 220.56 291.616 196.08 281.536 192.168L266.032 203.616Z" fill="#263238"/>
<path opacity="0.3" d="M230.248 324.344H154.736C153.525 324.366 152.323 324.13 151.21 323.651C150.097 323.172 149.1 322.462 148.283 321.567C147.466 320.672 146.849 319.614 146.474 318.462C146.098 317.311 145.972 316.092 146.104 314.888L162.696 125.288C162.956 122.725 164.147 120.346 166.043 118.602C167.939 116.858 170.408 115.87 172.984 115.824H248.496C249.708 115.802 250.911 116.038 252.024 116.518C253.137 116.997 254.136 117.708 254.953 118.604C255.769 119.499 256.386 120.559 256.761 121.711C257.136 122.864 257.261 124.083 257.128 125.288L240.536 314.888C240.274 317.449 239.083 319.826 237.187 321.569C235.291 323.311 232.823 324.299 230.248 324.344Z" fill="#00B071"/>
<path d="M248.496 115.792H172.984C170.408 115.838 167.939 116.826 166.043 118.57C164.147 120.314 162.956 122.693 162.696 125.256L146.104 314.856C145.972 316.06 146.098 317.279 146.474 318.43C146.849 319.582 147.466 320.64 148.283 321.535C149.1 322.43 150.097 323.14 151.21 323.619C152.323 324.098 153.525 324.334 154.736 324.312H230.248C232.823 324.267 235.291 323.279 237.187 321.537C239.083 319.794 240.274 317.418 240.536 314.856L257.128 125.256C257.261 124.051 257.136 122.832 256.761 121.679C256.386 120.527 255.769 119.467 254.953 118.572C254.136 117.676 253.137 116.965 252.024 116.486C250.911 116.006 249.708 115.77 248.496 115.792ZM236.336 314.888C236.19 316.312 235.527 317.632 234.473 318.601C233.419 319.569 232.047 320.118 230.616 320.144H155.104C154.431 320.156 153.763 320.024 153.144 319.758C152.526 319.492 151.971 319.097 151.517 318.6C151.063 318.103 150.72 317.514 150.511 316.874C150.302 316.234 150.231 315.557 150.304 314.888L166.896 125.288C167.041 123.863 167.703 122.54 168.757 121.57C169.811 120.6 171.184 120.05 172.616 120.024H248.128C248.802 120.012 249.471 120.144 250.09 120.41C250.709 120.677 251.264 121.073 251.718 121.571C252.172 122.069 252.515 122.658 252.724 123.299C252.932 123.94 253.002 124.618 252.928 125.288L236.336 314.888Z" fill="#00B071"/>
<path opacity="0.6" d="M248.496 115.792H172.984C170.408 115.838 167.939 116.826 166.043 118.57C164.147 120.314 162.956 122.693 162.696 125.256L146.104 314.856C145.972 316.06 146.098 317.279 146.474 318.43C146.849 319.582 147.466 320.64 148.283 321.535C149.1 322.43 150.097 323.14 151.21 323.619C152.323 324.098 153.525 324.334 154.736 324.312H230.248C232.823 324.267 235.291 323.279 237.187 321.537C239.083 319.794 240.274 317.418 240.536 314.856L257.128 125.256C257.261 124.051 257.136 122.832 256.761 121.679C256.386 120.527 255.769 119.467 254.953 118.572C254.136 117.676 253.137 116.965 252.024 116.486C250.911 116.006 249.708 115.77 248.496 115.792ZM236.336 314.888C236.19 316.312 235.527 317.632 234.473 318.601C233.419 319.569 232.047 320.118 230.616 320.144H155.104C154.431 320.156 153.763 320.024 153.144 319.758C152.526 319.492 151.971 319.097 151.517 318.6C151.063 318.103 150.72 317.514 150.511 316.874C150.302 316.234 150.231 315.557 150.304 314.888L166.896 125.288C167.041 123.863 167.703 122.54 168.757 121.57C169.811 120.6 171.184 120.05 172.616 120.024H248.128C248.802 120.012 249.471 120.144 250.09 120.41C250.709 120.677 251.264 121.073 251.718 121.571C252.172 122.069 252.515 122.658 252.724 123.299C252.932 123.94 253.002 124.618 252.928 125.288L236.336 314.888Z" fill="white"/>
<path d="M203.832 312.632H183.032C182.715 312.638 182.411 312.761 182.178 312.976C181.945 313.191 181.799 313.484 181.768 313.8C181.752 313.948 181.768 314.098 181.814 314.239C181.861 314.381 181.937 314.511 182.038 314.621C182.138 314.73 182.261 314.817 182.398 314.876C182.535 314.935 182.683 314.963 182.832 314.96H203.632C203.949 314.956 204.254 314.836 204.488 314.622C204.723 314.408 204.871 314.116 204.904 313.8C204.92 313.651 204.904 313.5 204.857 313.358C204.81 313.215 204.733 313.084 204.632 312.974C204.531 312.863 204.407 312.776 204.269 312.717C204.131 312.658 203.982 312.629 203.832 312.632Z" fill="white"/>
<path opacity="0.1" d="M203.32 204H181.304C180.597 204.013 179.895 203.876 179.245 203.596C178.595 203.317 178.012 202.902 177.535 202.38C177.058 201.858 176.698 201.24 176.479 200.567C176.26 199.895 176.187 199.183 176.264 198.48L178.192 176.456C178.344 174.962 179.039 173.575 180.145 172.557C181.25 171.54 182.69 170.963 184.192 170.936H206.216C206.923 170.924 207.624 171.062 208.273 171.342C208.923 171.622 209.505 172.037 209.982 172.559C210.458 173.081 210.818 173.698 211.038 174.37C211.258 175.042 211.332 175.753 211.256 176.456L209.328 198.48C209.176 199.976 208.48 201.364 207.373 202.381C206.265 203.399 204.823 203.974 203.32 204Z" fill="black"/>
<path d="M200.92 201.6H178.904C178.197 201.613 177.495 201.476 176.845 201.196C176.195 200.917 175.612 200.502 175.135 199.98C174.658 199.458 174.298 198.84 174.079 198.167C173.86 197.494 173.787 196.783 173.864 196.08L175.792 174.056C175.944 172.561 176.639 171.174 177.745 170.157C178.85 169.14 180.29 168.563 181.792 168.536H203.816C204.523 168.524 205.224 168.662 205.873 168.942C206.523 169.222 207.105 169.637 207.582 170.159C208.058 170.681 208.418 171.298 208.638 171.97C208.858 172.642 208.932 173.353 208.856 174.056L206.928 196.08C206.776 197.576 206.08 198.964 204.973 199.981C203.865 200.998 202.423 201.574 200.92 201.6Z" fill="#00B071"/>
<path d="M195.056 183.056C195.432 178.784 191.856 175.328 186.976 175.328C182.096 175.328 177.92 178.784 177.552 183.056C177.256 186.424 179.456 189.288 182.776 190.336C182.316 191.232 181.581 191.958 180.68 192.408C180.84 192.506 181.008 192.589 181.184 192.656C182.08 192.946 183.049 192.916 183.924 192.57C184.8 192.224 185.528 191.584 185.984 190.76C190.656 190.6 194.696 187.2 195.056 183.056Z" fill="white"/>
<path d="M205.192 186.752C205.504 183.232 202.52 180.352 198.528 180.352C197.826 180.354 197.128 180.442 196.448 180.616C196.614 181.405 196.666 182.213 196.6 183.016C196.427 184.541 195.904 186.005 195.071 187.295C194.239 188.584 193.119 189.663 191.8 190.448C192.407 191.231 193.179 191.871 194.061 192.323C194.943 192.775 195.914 193.028 196.904 193.064C197.026 193.386 197.21 193.68 197.445 193.93C197.681 194.18 197.964 194.382 198.278 194.522C198.591 194.663 198.93 194.74 199.273 194.749C199.617 194.758 199.959 194.699 200.28 194.576C200.422 194.523 200.561 194.462 200.696 194.392C200.093 194.048 199.635 193.496 199.408 192.84C202.504 192.12 204.936 189.672 205.192 186.752Z" fill="white"/>
<path opacity="0.1" d="M193.224 272.16H176.848C176.322 272.17 175.8 272.068 175.317 271.86C174.833 271.652 174.4 271.344 174.045 270.956C173.69 270.568 173.421 270.108 173.258 269.608C173.094 269.108 173.039 268.579 173.096 268.056L174.528 251.68C174.641 250.566 175.159 249.533 175.983 248.775C176.807 248.017 177.881 247.588 179 247.568H195.376C195.903 247.558 196.426 247.66 196.91 247.869C197.394 248.077 197.828 248.386 198.183 248.775C198.538 249.164 198.806 249.624 198.969 250.125C199.132 250.626 199.186 251.156 199.128 251.68L197.696 268.056C197.583 269.169 197.065 270.202 196.24 270.958C195.416 271.715 194.343 272.142 193.224 272.16Z" fill="black"/>
<path opacity="0.1" d="M217.256 240.288H196.8C196.143 240.3 195.49 240.172 194.886 239.912C194.282 239.651 193.741 239.265 193.298 238.779C192.855 238.293 192.521 237.718 192.318 237.093C192.114 236.467 192.047 235.806 192.12 235.152L193.904 214.68C194.047 213.287 194.696 211.994 195.728 211.048C196.76 210.101 198.104 209.566 199.504 209.544H219.984C220.641 209.533 221.293 209.663 221.896 209.923C222.5 210.184 223.041 210.57 223.483 211.056C223.926 211.541 224.26 212.116 224.464 212.741C224.667 213.366 224.736 214.027 224.664 214.68L222.88 235.152C222.737 236.549 222.084 237.845 221.047 238.792C220.01 239.739 218.661 240.272 217.256 240.288Z" fill="black"/>
<path d="M214.856 237.888H194.4C193.743 237.9 193.09 237.772 192.486 237.511C191.882 237.251 191.341 236.865 190.898 236.379C190.455 235.893 190.121 235.318 189.918 234.693C189.714 234.067 189.647 233.405 189.72 232.752L191.504 212.28C191.647 210.887 192.296 209.594 193.328 208.648C194.36 207.701 195.704 207.166 197.104 207.144H217.584C218.241 207.133 218.893 207.262 219.496 207.523C220.1 207.784 220.641 208.17 221.083 208.656C221.526 209.141 221.86 209.716 222.064 210.341C222.267 210.966 222.336 211.627 222.264 212.28L220.48 232.752C220.337 234.149 219.684 235.445 218.647 236.392C217.61 237.339 216.261 237.872 214.856 237.888Z" fill="#00B071"/>
<path d="M190.824 269.76H174.448C173.922 269.77 173.4 269.668 172.917 269.46C172.433 269.252 172 268.944 171.645 268.556C171.29 268.168 171.021 267.708 170.858 267.208C170.694 266.708 170.639 266.179 170.696 265.656L172.128 249.28C172.241 248.166 172.759 247.133 173.583 246.375C174.407 245.617 175.481 245.188 176.6 245.168H192.976C193.503 245.158 194.026 245.26 194.51 245.468C194.994 245.676 195.428 245.985 195.783 246.375C196.138 246.764 196.406 247.224 196.569 247.725C196.732 248.226 196.786 248.756 196.728 249.28L195.296 265.656C195.183 266.769 194.665 267.802 193.84 268.558C193.016 269.315 191.943 269.742 190.824 269.76Z" fill="#00B071"/>
<path d="M216.2 214.072H197.2C196.599 214.07 196.019 214.293 195.575 214.697C195.131 215.101 194.854 215.658 194.8 216.256L193.736 228.8C193.707 229.077 193.736 229.358 193.823 229.623C193.911 229.888 194.053 230.131 194.241 230.337C194.43 230.543 194.66 230.706 194.916 230.816C195.172 230.927 195.449 230.981 195.728 230.976H214.72C215.32 230.979 215.898 230.757 216.343 230.354C216.787 229.951 217.064 229.397 217.12 228.8L218.216 216.272C218.25 215.991 218.222 215.705 218.135 215.436C218.048 215.166 217.904 214.918 217.713 214.709C217.521 214.501 217.287 214.335 217.026 214.225C216.765 214.115 216.483 214.063 216.2 214.072ZM201.648 222.504L195.288 228.352L196.312 216.656L201.648 222.504ZM197.472 215.584H215.656L206.464 224.04C206.381 224.124 206.282 224.191 206.173 224.236C206.063 224.281 205.946 224.305 205.828 224.305C205.71 224.305 205.593 224.281 205.484 224.236C205.374 224.191 205.275 224.124 205.192 224.04L197.472 215.584ZM202.624 223.584L204.024 225.12C204.234 225.346 204.49 225.525 204.773 225.647C205.057 225.768 205.363 225.828 205.672 225.824C206.329 225.82 206.96 225.568 207.44 225.12L209.112 223.584L214.472 229.456H196.24L202.624 223.584ZM210.272 222.512L216.672 216.664L215.648 228.36L210.272 222.512Z" fill="white"/>
<path d="M176.2 253.056L181 255.008L186.28 251.392L182.312 256.088L185.224 260.2L189.84 248.744L176.2 253.056Z" fill="white"/>
<path d="M180.672 256.096L182.832 258.736H180.528L180.672 256.096Z" fill="white"/>
<path d="M178.76 259.544L178.256 259.224C178.403 258.986 178.566 258.759 178.744 258.544L179.2 258.936C179.04 259.128 178.893 259.331 178.76 259.544Z" fill="white"/>
<path d="M178.52 263.488C178.022 263.213 177.651 262.753 177.488 262.208L178.064 262.048C178.199 262.448 178.486 262.779 178.864 262.968L178.52 263.488ZM178.016 261.424L177.416 261.376C177.475 260.853 177.63 260.346 177.872 259.88L178.416 260.152C178.205 260.547 178.069 260.979 178.016 261.424Z" fill="white"/>
<path d="M190.616 265.6L190.024 265.496C190.052 265.351 190.065 265.204 190.064 265.056C190.082 264.8 190.005 264.547 189.848 264.344L190.312 263.96C190.553 264.273 190.678 264.661 190.664 265.056C190.663 265.238 190.646 265.42 190.616 265.6ZM182.112 264.216H181.488V263.616C181.965 263.64 182.443 263.64 182.92 263.616V264.216H182.112ZM183.712 264.152V263.552C184.2 263.552 184.688 263.472 185.16 263.424L185.216 264.024L183.712 264.152ZM180.744 264.152H180.496C180.075 264.097 179.66 264.003 179.256 263.872L179.448 263.304C179.815 263.426 180.192 263.512 180.576 263.56H180.808L180.744 264.152ZM189.384 264.032C188.955 263.894 188.506 263.829 188.056 263.84V263.2C188.58 263.186 189.103 263.265 189.6 263.432L189.384 264.032ZM185.904 263.96L185.848 263.36C186.36 263.312 186.856 263.272 187.312 263.248V263.848C186.888 263.848 186.4 263.888 185.896 263.936L185.904 263.96Z" fill="white"/>
<path d="M190.12 267.12L189.568 266.88C189.68 266.624 189.776 266.376 189.848 266.16L190.416 266.344C190.336 266.584 190.24 266.84 190.12 267.12Z" fill="white"/>
<path opacity="0.1" d="M212.32 166.456H193.92C193.328 166.466 192.741 166.351 192.197 166.116C191.653 165.882 191.166 165.534 190.767 165.097C190.368 164.659 190.067 164.142 189.884 163.579C189.7 163.016 189.639 162.42 189.704 161.832L191.304 143.432C191.431 142.18 192.012 141.018 192.938 140.166C193.864 139.314 195.07 138.831 196.328 138.808H214.728C215.32 138.798 215.907 138.913 216.451 139.148C216.995 139.382 217.482 139.73 217.881 140.167C218.28 140.605 218.581 141.122 218.764 141.685C218.948 142.248 219.009 142.844 218.944 143.432L217.344 161.832C217.217 163.084 216.636 164.246 215.71 165.098C214.784 165.95 213.578 166.433 212.32 166.456Z" fill="black"/>
<path d="M209.92 164.056H191.52C190.928 164.066 190.341 163.95 189.797 163.716C189.253 163.482 188.766 163.134 188.367 162.697C187.968 162.259 187.667 161.742 187.484 161.179C187.3 160.616 187.239 160.02 187.304 159.432L188.904 141.032C189.031 139.78 189.612 138.618 190.538 137.766C191.464 136.914 192.67 136.431 193.928 136.408H212.328C212.92 136.397 213.507 136.513 214.051 136.748C214.595 136.982 215.082 137.33 215.481 137.767C215.88 138.205 216.181 138.722 216.364 139.285C216.548 139.848 216.609 140.443 216.544 141.032L214.944 159.432C214.817 160.684 214.236 161.846 213.31 162.698C212.384 163.55 211.178 164.033 209.92 164.056Z" fill="#00B071"/>
<path d="M210.904 153.976C210.783 150.738 209.519 147.648 207.335 145.255C205.151 142.862 202.189 141.32 198.976 140.904C198.036 140.441 196.966 140.318 195.945 140.554C194.925 140.79 194.017 141.372 193.376 142.2C191.776 144.144 193.2 145.4 194.976 146.792C196.752 148.184 198.344 149.248 199.92 147.304C200.511 146.592 200.876 145.72 200.968 144.8C202.445 145.403 203.77 146.328 204.845 147.507C205.92 148.686 206.719 150.09 207.184 151.616C206.265 151.62 205.368 151.899 204.608 152.416C202.536 153.824 203.448 155.464 204.688 157.408C205.928 159.352 207.032 160.856 209.096 159.44C209.977 158.874 210.638 158.022 210.967 157.028C211.296 156.033 211.274 154.956 210.904 153.976Z" fill="white"/>
<path d="M203.2 112.608H215.76C216.384 112.608 216.464 111.648 215.848 111.648H203.304C202.688 111.648 202.6 112.608 203.216 112.608H203.2Z" fill="#00B071"/>
<path d="M220.36 112.608H224C224.624 112.608 224.704 111.648 224.088 111.648H220.48C219.864 111.648 219.776 112.608 220.4 112.608H220.36Z" fill="#00B071"/>
<g opacity="0.3">
<path d="M203.2 112.608H215.76C216.384 112.608 216.464 111.648 215.848 111.648H203.304C202.688 111.648 202.6 112.608 203.216 112.608H203.2Z" fill="white"/>
</g>
<g opacity="0.3">
<path d="M220.36 112.608H224C224.624 112.608 224.704 111.648 224.088 111.648H220.48C219.864 111.648 219.776 112.608 220.4 112.608H220.36Z" fill="white"/>
</g>
<path d="M244.56 209.656L243.456 222.2C243.445 222.327 243.486 222.454 243.568 222.551C243.651 222.649 243.769 222.709 243.896 222.72C244.023 222.731 244.15 222.69 244.247 222.608C244.345 222.525 244.405 222.407 244.416 222.28C244.779 218.104 245.144 213.923 245.512 209.736C245.51 209.617 245.464 209.503 245.383 209.415C245.302 209.328 245.191 209.275 245.072 209.265C244.954 209.255 244.835 209.289 244.741 209.362C244.646 209.434 244.582 209.539 244.56 209.656Z" fill="#00B071"/>
<path d="M243.056 226.792L242.744 230.4C242.746 230.519 242.792 230.633 242.873 230.72C242.954 230.807 243.065 230.861 243.184 230.871C243.303 230.881 243.421 230.847 243.515 230.774C243.61 230.702 243.674 230.597 243.696 230.48L244.008 226.88C244.008 226.76 243.964 226.645 243.883 226.556C243.802 226.467 243.691 226.412 243.572 226.401C243.453 226.39 243.334 226.424 243.238 226.496C243.143 226.569 243.078 226.674 243.056 226.792Z" fill="#00B071"/>
<g opacity="0.3">
<path d="M244.56 209.656L243.456 222.2C243.445 222.327 243.486 222.454 243.568 222.551C243.651 222.649 243.769 222.709 243.896 222.72C244.023 222.731 244.15 222.69 244.247 222.608C244.345 222.525 244.405 222.407 244.416 222.28C244.779 218.104 245.144 213.923 245.512 209.736C245.51 209.617 245.464 209.503 245.383 209.415C245.302 209.328 245.191 209.275 245.072 209.265C244.954 209.255 244.835 209.289 244.741 209.362C244.646 209.434 244.582 209.539 244.56 209.656Z" fill="white"/>
</g>
<g opacity="0.3">
<path d="M243.056 226.792L242.744 230.4C242.746 230.519 242.792 230.633 242.873 230.72C242.954 230.807 243.065 230.861 243.184 230.871C243.303 230.881 243.421 230.847 243.515 230.774C243.61 230.702 243.674 230.597 243.696 230.48L244.008 226.88C244.008 226.76 243.964 226.645 243.883 226.556C243.802 226.467 243.691 226.412 243.572 226.401C243.453 226.39 243.334 226.424 243.238 226.496C243.143 226.569 243.078 226.674 243.056 226.792Z" fill="white"/>
</g>
<path d="M133.48 153.832C133.48 153.832 128.84 153.2 129.4 155.616C129.808 157.376 131.368 153.912 133.48 153.832Z" fill="#263238"/>
<path d="M129.448 159.32C129.448 159.32 133.272 159.28 133.864 152.312C133.864 152.312 137.512 151.04 139.584 153.312C141.656 155.584 136.896 159.984 139.52 162.272C139.52 162.272 136.896 163.704 129.448 159.32Z" fill="#FF8B7B"/>
<path d="M143.6 134.704C143.6 134.704 148.528 133.648 149.808 137.272C151.088 140.896 142.512 139.304 142.512 139.304L143.6 134.704Z" fill="#263238"/>
<path opacity="0.3" d="M143.6 134.704C143.6 134.704 148.528 133.648 149.808 137.272C151.088 140.896 142.512 139.304 142.512 139.304L143.6 134.704Z" fill="black"/>
<path d="M147.632 143.736C147.712 143.272 148.016 142.936 148.32 142.992C148.624 143.048 148.808 143.456 148.728 143.92C148.648 144.384 148.336 144.72 148.04 144.672C147.744 144.624 147.552 144.2 147.632 143.736Z" fill="#263238"/>
<path d="M147.872 144.608L150.024 148.096C149.616 148.348 149.154 148.5 148.676 148.541C148.198 148.581 147.717 148.508 147.272 148.328L147.872 144.608Z" fill="#FF5652"/>
<path d="M131.576 141.496C131.304 147.424 131.064 149.936 133.712 153.272C137.928 156.84 145.048 157.336 147.08 151.6C148.912 146.448 149.048 137.64 143.528 134.648C142.315 133.99 140.953 133.653 139.573 133.669C138.193 133.685 136.84 134.054 135.643 134.74C134.445 135.426 133.443 136.407 132.731 137.589C132.019 138.772 131.622 140.117 131.576 141.496Z" fill="#FF8B7B"/>
<path d="M146.888 142.272C146.927 142.294 146.971 142.305 147.016 142.305C147.061 142.305 147.105 142.294 147.144 142.272C147.419 142.064 147.739 141.924 148.078 141.863C148.417 141.801 148.766 141.821 149.096 141.92C149.163 141.946 149.237 141.945 149.303 141.917C149.369 141.888 149.421 141.835 149.448 141.768C149.475 141.7 149.474 141.624 149.445 141.557C149.417 141.49 149.363 141.436 149.296 141.408C148.881 141.273 148.439 141.241 148.009 141.313C147.579 141.386 147.172 141.561 146.824 141.824C146.794 141.843 146.769 141.867 146.749 141.896C146.728 141.925 146.714 141.957 146.707 141.991C146.699 142.025 146.699 142.061 146.705 142.095C146.712 142.13 146.725 142.163 146.744 142.192C146.781 142.235 146.832 142.263 146.888 142.272Z" fill="#263238"/>
<path d="M126.76 160.52C126.76 160.52 128.408 155.968 135.232 158.872C142.056 161.776 142.696 165.776 142.696 165.776L126.76 160.52Z" fill="#263238"/>
<path opacity="0.4" d="M126.76 160.52C126.76 160.52 128.408 155.968 135.232 158.872C142.056 161.776 142.696 165.776 142.696 165.776L126.76 160.52Z" fill="black"/>
<path d="M129.824 246.792C129.824 246.792 128.856 255.088 128.392 257.832C127.976 260.232 114.792 323.192 114.792 323.192L108.8 322.2C108.8 322.2 108.136 290.304 112.752 269.192C113.704 264.872 115.616 261.256 116.312 257.952C116.872 255.304 116.024 247.112 116.024 247.112L129.824 246.792Z" fill="#FF8B7B"/>
<path d="M104.8 245.44C104.8 245.44 102.008 253.04 100.704 255.392C99.288 257.952 93.912 264.92 93.912 264.92L65.272 305.104L59.792 301.64C59.792 301.64 68.056 279.512 80.504 261.496C83.472 257.2 87.744 253.928 90.104 249.664C91.44 247.216 92.576 238.768 92.576 238.768L104.8 245.44Z" fill="#FF8B7B"/>
<path d="M112.48 168.512C112.48 168.512 105.624 177.256 106.208 180.928C106.792 184.6 117.536 189.072 117.536 189.072L120.264 185.192L113.208 180.04L119.928 172.336L112.48 168.512Z" fill="#FF8B7B"/>
<path d="M123.816 159.76C122.96 159.352 119.16 157.832 110.96 168.488C110.96 168.488 113.944 172.208 120.336 174.424C120.336 174.4 127.536 161.496 123.816 159.76Z" fill="#263238"/>
<path opacity="0.4" d="M120.336 174.4C120.336 174.4 121.536 172.256 122.736 169.6C122.544 165.032 121.984 159.36 120.384 161.4C118.256 164.104 115.312 169.552 114.344 171.376C116.196 172.649 118.212 173.667 120.336 174.4Z" fill="black"/>
<path d="M113.88 195.2C121.76 199.454 130.464 201.959 139.4 202.544L130.152 254.072C130.152 254.072 103.48 253.984 89.536 240.736C89.536 240.704 95.096 212.624 113.88 195.2Z" fill="#00B071"/>
<path d="M112.752 195.312C112.752 195.312 123.432 203.184 140.44 202.648C140.44 202.648 150.208 175.624 144.088 166.48C140.304 160.832 125.776 158.28 121.864 159.888C117.152 161.824 119.88 178.768 112.752 195.312Z" fill="#263238"/>
<path opacity="0.1" d="M115.312 223.072L103.432 249.048C107.597 250.561 111.878 251.735 116.232 252.56C116.232 252.56 116.632 228.296 115.312 223.072Z" fill="black"/>
<path opacity="0.4" d="M139.608 170.904L137.72 172.296C139.232 177.557 141.611 182.53 144.76 187.008C145.568 183.238 146.015 179.399 146.096 175.544L141.888 172L139.608 170.904Z" fill="black"/>
<path d="M150.312 174.808L156.712 183.728L172.8 184.8L175.752 182.344C175.948 182.178 176.192 182.077 176.448 182.056L185.04 181.376C185.102 181.373 185.164 181.382 185.222 181.404C185.279 181.426 185.332 181.46 185.376 181.504C185.42 181.548 185.454 181.601 185.476 181.659C185.498 181.716 185.507 181.778 185.504 181.84L185.456 182.568C185.447 182.672 185.402 182.77 185.329 182.844C185.256 182.919 185.16 182.965 185.056 182.976L180.984 183.296L180.184 187.464C180.137 187.699 180.026 187.916 179.862 188.09C179.697 188.264 179.488 188.388 179.256 188.448L176.056 189.248C175.852 189.304 175.636 189.304 175.432 189.248L173.176 188.68C173.176 188.68 160.64 191.208 154.888 190.192C149.136 189.176 143.464 179.792 143.464 179.792L150.312 174.808Z" fill="#FF8B7B"/>
<path d="M142.904 181.6C142.904 181.6 132.6 167.816 138.96 164.616C145.32 161.416 152 175.576 152 175.576C152 175.576 149.392 179.56 142.904 181.6Z" fill="#263238"/>
<path d="M116.104 322.832C116.073 322.826 116.045 322.81 116.024 322.787C116.002 322.764 115.988 322.735 115.984 322.704C115.979 322.671 115.984 322.638 115.999 322.608C116.013 322.578 116.036 322.553 116.064 322.536C116.168 322.488 118.528 321.248 119.624 321.6C119.725 321.629 119.82 321.678 119.902 321.744C119.985 321.81 120.053 321.892 120.104 321.984C120.176 322.083 120.215 322.202 120.215 322.324C120.215 322.446 120.176 322.565 120.104 322.664C119.527 323.046 118.828 323.2 118.144 323.096C117.457 323.073 116.774 322.985 116.104 322.832ZM116.624 322.64C117.848 322.84 119.52 322.896 119.824 322.472C119.872 322.424 119.92 322.328 119.824 322.128C119.795 322.07 119.753 322.019 119.702 321.979C119.651 321.939 119.591 321.911 119.528 321.896C119.43 321.864 119.327 321.848 119.224 321.848C118.315 321.945 117.433 322.213 116.624 322.64Z" fill="#00B071"/>
<path d="M116 322.824C115.976 322.809 115.958 322.787 115.946 322.762C115.935 322.736 115.931 322.708 115.936 322.68C115.936 322.592 116.192 320.816 117.056 320.152C117.181 320.056 117.324 319.986 117.476 319.946C117.629 319.906 117.788 319.897 117.944 319.92C118.376 319.976 118.496 320.2 118.512 320.384C118.624 321.128 116.976 322.504 116.168 322.832H116.104C116.069 322.841 116.033 322.838 116 322.824ZM117.824 320.208C117.627 320.198 117.433 320.26 117.28 320.384C116.761 320.936 116.426 321.634 116.32 322.384C117.12 321.928 118.248 320.848 118.224 320.392C118.224 320.352 118.224 320.24 117.92 320.208H117.824Z" fill="#00B071"/>
<path d="M115.464 321.88L108.264 321.608C108.131 321.604 108.001 321.645 107.895 321.725C107.788 321.805 107.713 321.919 107.68 322.048L106.152 327.88C106.086 328.127 106.12 328.391 106.248 328.612C106.375 328.834 106.585 328.997 106.832 329.064C106.901 329.076 106.971 329.076 107.04 329.064C109.648 329.12 111.968 329.064 115.216 329.192C119.048 329.336 118.056 329.752 122.56 329.992C125.272 330.128 125.88 327.064 124.736 326.872C119.496 326.016 119.008 324.4 117.048 322.44C116.605 322.069 116.042 321.87 115.464 321.88Z" fill="#263238"/>
<path d="M66.1679 305.496C66.1446 305.474 66.1278 305.446 66.1194 305.415C66.1109 305.384 66.1111 305.351 66.1199 305.32C66.13 305.29 66.1493 305.264 66.1752 305.245C66.201 305.226 66.2321 305.216 66.2639 305.216C66.3839 305.216 69.0479 305.216 69.8719 306.016C70.0263 306.166 70.1178 306.369 70.1279 306.584C70.1439 306.705 70.1217 306.828 70.0643 306.935C70.0069 307.043 69.9173 307.13 69.8079 307.184C69.1175 307.261 68.4228 307.082 67.8559 306.68C67.2586 306.337 66.6936 305.941 66.1679 305.496ZM66.7199 305.56C67.7199 306.288 69.1919 307.088 69.6719 306.856C69.7359 306.856 69.8159 306.776 69.8079 306.544C69.8086 306.478 69.7946 306.413 69.7669 306.354C69.7392 306.294 69.6986 306.242 69.6479 306.2C69.5741 306.13 69.4906 306.071 69.3999 306.024C68.5409 305.717 67.6319 305.573 66.7199 305.6V305.56Z" fill="#00B071"/>
<path d="M66.104 305.448C66.0882 305.424 66.0797 305.396 66.0797 305.368C66.0797 305.339 66.0882 305.312 66.104 305.288C66.152 305.224 67.168 303.744 68.248 303.544C68.4008 303.514 68.5581 303.515 68.7106 303.546C68.8631 303.578 69.0077 303.64 69.136 303.728C69.496 303.976 69.512 304.232 69.44 304.4C69.2 305.12 67.112 305.608 66.24 305.536C66.2193 305.543 66.1967 305.543 66.176 305.536C66.1415 305.517 66.1157 305.486 66.104 305.448ZM68.912 303.944C68.7411 303.843 68.5387 303.808 68.344 303.848C67.6318 304.11 67.0175 304.585 66.584 305.208C67.544 305.208 68.984 304.696 69.184 304.288C69.184 304.248 69.232 304.136 68.992 303.976H68.912V303.944Z" fill="#00B071"/>
<path d="M66.024 304.36L59.696 300.856C59.5802 300.791 59.4458 300.768 59.3149 300.79C59.1841 300.811 59.0645 300.877 58.976 300.976L54.976 305.496C54.8908 305.591 54.8251 305.701 54.7826 305.821C54.7401 305.941 54.7217 306.068 54.7284 306.195C54.7351 306.322 54.7667 306.447 54.8216 306.561C54.8764 306.676 54.9534 306.779 55.048 306.864L55.216 306.984C57.52 308.208 59.624 309.208 62.464 310.784C65.816 312.64 64.744 312.568 68.656 314.784C71.056 316.136 72.944 313.672 72.008 312.984C67.72 309.856 68.008 308.184 67.144 305.56C66.9233 305.041 66.5268 304.616 66.024 304.36Z" fill="#263238"/>
<path d="M141.6 146.592C141.6 146.592 144 145.792 143.12 142.312C143.12 142.312 144.536 139.912 144.312 138.64C144.312 138.64 151.512 134.488 147.4 129.936C143.288 125.384 135.824 128.424 132.52 134.24C132.52 134.24 114.96 139.952 127.184 150.688C139.08 161.176 141.6 146.592 141.6 146.592Z" fill="#263238"/>
<path d="M134.352 136.68C134.352 136.68 131.608 130.656 135.728 126.104C139.848 121.552 132.992 132.52 134.352 136.68Z" fill="#263238"/>
<path d="M141.6 146.592C141.668 146.57 141.735 146.543 141.8 146.512C141.8 142 140.064 136.592 133.408 132.912C133.088 133.344 132.792 133.793 132.52 134.256C132.52 134.256 132.016 134.424 131.24 134.744C133.544 137.192 139.872 145.296 132.76 154.152C139.888 156.376 141.6 146.592 141.6 146.592Z" fill="#00B071"/>
<path d="M141.88 144.48C142.697 145.375 143.126 146.558 143.072 147.768C142.984 149.368 141.416 149.68 140.168 148.816C139.04 148.016 137.728 146.256 138.432 144.816C138.59 144.51 138.823 144.249 139.108 144.056C139.393 143.863 139.722 143.744 140.065 143.711C140.407 143.678 140.753 143.73 141.07 143.865C141.387 143.999 141.666 144.211 141.88 144.48Z" fill="#FF8B7B"/>
<path d="M148.208 143L149.504 142.936C149.504 142.936 148.656 143.744 148.208 143Z" fill="#263238"/>
<path opacity="0.2" d="M136.344 154.936C136.993 156.248 137.993 157.356 139.232 158.136C139.512 157.41 139.755 156.671 139.96 155.92C138.707 155.803 137.484 155.47 136.344 154.936Z" fill="black"/>
</svg>
