<svg width="110" height="67" viewBox="0 0 110 67" fill="none" xmlns="http://www.w3.org/2000/svg">
<path d="M89.4461 0.528476C87.1054 1.3162 84.9467 3.07066 82.7621 6.04252C81.1236 8.26246 80.5514 9.33662 79.5631 12.2011C76.5462 20.7228 76.5462 31.6434 79.5631 40.0577C80.5774 42.8506 81.1496 43.9605 82.8921 46.3237C86.3511 51.0142 89.134 52.4106 94.3615 52.16C98.0026 51.9451 99.9792 51.0858 102.606 48.5794C109.68 41.7406 112.151 25.1985 107.938 12.7381C105.831 6.5438 102.086 2.06811 97.6905 0.49267C95.818 -0.187634 91.5007 -0.151828 89.4461 0.528476ZM94.5956 7.61796C95.792 8.29826 96.5202 9.44404 97.3784 11.9504C98.6008 15.531 98.9909 19.0399 98.9909 26.0936C98.9909 33.004 98.6008 36.513 97.4305 40.1651C95.5059 46.0372 91.9168 46.2879 89.9662 40.6664C88.5878 36.6204 88.3797 34.7943 88.3797 26.0936C88.3797 18.7535 88.4318 17.7867 88.9779 15.1729C89.9142 10.733 91.2146 8.15504 92.8271 7.47474C93.2432 7.33152 93.6073 7.15249 93.6593 7.15249C93.6853 7.11668 94.1275 7.33152 94.5956 7.61796Z" fill="white"/>
<path d="M37.2734 26.0936V50.7994H42.475H47.6766V26.0936V1.38782H42.475H37.2734V26.0936Z" fill="white"/>
<path d="M52.621 26.0936V50.7994H57.6925H62.764V39.3416V27.8839H67.9656H73.1931L73.1151 24.3749L73.0371 20.9018L67.9136 20.7944L62.764 20.7228V16.4261V12.1295H68.4857C72.8811 12.1295 74.2075 12.022 74.2075 11.664C74.2075 11.4492 73.9474 9.01438 73.6353 6.29317L73.0631 1.38782H62.842H52.621V26.0936Z" fill="white"/>
<path d="M6.76462 20.6154C2.94147 23.5156 -0.101441 25.9862 0.00259007 26.1294C0.366699 26.6307 13.5787 36.4772 13.8908 36.4772C14.0468 36.4772 16.7516 34.5437 19.8986 32.1805C23.0195 29.8174 25.6463 27.8839 25.7243 27.8839C25.7763 27.8839 25.8283 30.7125 25.8283 34.1498V40.4158H26.9987H28.169L28.117 33.1831L28.039 25.9146L21.0169 20.6512C17.1677 17.7509 13.9428 15.3878 13.8647 15.3878C13.7867 15.3878 10.6138 17.7509 6.76462 20.6154Z" fill="black"/>
<path d="M4.7561 37.3366V40.7024L9.33348 44.1039L13.8848 47.5412L18.4362 44.1039L22.9616 40.7024V37.3366C22.9616 35.4747 22.9095 33.9709 22.8315 33.9709C22.7535 33.9709 20.7769 35.4031 18.4362 37.1934C16.0955 38.9479 14.0669 40.4159 13.8848 40.4159C13.7288 40.4159 11.6742 38.9479 9.33348 37.1934C6.99277 35.4031 5.01618 33.9709 4.91215 33.9709C4.83413 33.9709 4.7561 35.4747 4.7561 37.3366Z" fill="black"/>
<path d="M73.189 55.8838C72.8509 56.6357 72.8509 56.6716 73.267 56.2061C73.6311 55.7764 73.7611 55.8122 74.2813 56.3851C74.7755 56.9938 74.7755 56.958 74.2293 56.0629C73.8652 55.5258 73.5791 55.0961 73.5791 55.0961C73.5531 55.0961 73.397 55.4542 73.189 55.8838Z" fill="white"/>
<path d="M41.8013 57.9962C41.7233 58.211 41.7493 58.4975 41.8793 58.6407C42.0093 58.7481 42.2694 59.6075 42.4255 60.5026C42.5815 61.4335 42.7896 62.4361 42.8936 62.7583C43.0236 63.2238 42.8676 63.3312 41.9833 63.3312C41.3852 63.3312 40.917 63.2954 40.917 63.2238C40.917 63.1522 41.0991 62.2571 41.3331 61.2187C42.0614 57.7456 41.5412 58.9988 40.6569 62.7942C40.1108 65.1215 39.6166 66.5895 39.3825 66.6611C39.1485 66.7686 39.4346 66.8402 40.0067 66.876C40.6829 66.876 40.917 66.8044 40.6829 66.5895C40.4229 66.3747 40.3708 65.9092 40.5009 64.9783C40.6829 63.7251 40.7089 63.6893 41.9313 63.6893C43.1797 63.6893 43.2057 63.6893 43.3878 64.9783C43.4918 65.9092 43.4398 66.3747 43.2057 66.5895C42.9976 66.7686 43.3097 66.876 44.0379 66.876C44.6881 66.8402 45.0262 66.7686 44.7662 66.6611C44.5321 66.5895 44.272 66.0883 44.168 65.5512C43.6738 62.6867 42.4255 57.6024 42.2174 57.6024C42.0874 57.6024 41.9053 57.7814 41.8013 57.9962Z" fill="white"/>
<path d="M49.3141 57.9604C48.3518 58.4975 47.8317 60.0371 47.8057 62.2929C47.8057 65.587 49.08 67.3057 51.1347 66.7686C52.0189 66.5537 52.097 66.4105 52.0709 65.3722C52.0449 64.6202 51.9929 64.477 51.9149 64.9425C51.6288 66.5179 50.6145 67.0192 49.4962 66.1957C48.3258 65.3364 48.1958 60.3952 49.2881 58.784C50.1984 57.4591 51.1867 57.7098 51.7588 59.3926L52.0709 60.2878V59.321C52.097 57.8172 50.7706 57.1727 49.3141 57.9604Z" fill="white"/>
<path d="M57.6157 58.0321C57.4857 58.2827 56.9915 60.1804 56.5234 62.2571C56.0552 64.3338 55.5091 66.2315 55.275 66.4463C54.9369 66.8402 55.0149 66.9118 55.8992 66.876C56.4454 66.8402 56.7054 66.7686 56.4714 66.6612C55.9252 66.4821 55.8992 66.3031 56.2893 64.7993C56.5494 63.7967 56.6794 63.6893 57.6937 63.6893C58.708 63.6893 58.8381 63.7967 59.0982 64.7993C59.4883 66.3031 59.4623 66.4821 58.9421 66.6612C58.682 66.7686 58.9681 66.8402 59.5923 66.876C60.5546 66.9118 60.6586 66.8402 60.3465 66.4105C60.1645 66.1241 59.5923 64.0474 59.1242 61.7558C58.63 59.4643 58.1619 57.6024 58.0578 57.6024C57.9798 57.6024 57.7718 57.8172 57.6157 58.0321ZM58.1879 60.61C58.7601 63.2239 58.7341 63.3313 57.6937 63.3313C57.1216 63.3313 56.7835 63.1522 56.7835 62.8658C56.7835 62.2571 57.5637 58.6766 57.6937 58.6766C57.7458 58.6766 57.9798 59.5359 58.1879 60.61Z" fill="white"/>
<path d="M95.5541 58.1038C94.6178 58.8199 94.2537 60.0731 94.2277 62.5437C94.2277 64.5846 94.3057 64.9426 94.9819 65.8736C95.5281 66.6255 95.9963 66.9119 96.6464 66.9119C97.9989 66.9119 98.389 66.5897 98.389 65.5155V64.5846L98.0509 65.4797C97.7908 66.16 97.5307 66.3748 96.8545 66.3748C95.5541 66.3748 94.8779 64.9784 94.8779 62.2572C94.8779 59.6434 95.5281 58.2112 96.8025 58.0322C97.5047 57.9247 97.6608 58.068 97.9989 59.1063C98.363 60.2879 98.363 60.2879 98.389 59.3212C98.389 57.7457 96.8805 57.0654 95.5541 58.1038Z" fill="white"/>
<path d="M103.152 58.0335C101.384 59.215 101.332 65.2662 103.048 66.5552C103.698 67.0206 104.791 67.0206 105.441 66.5552C106.585 65.6958 107.131 61.7572 106.403 59.5731C105.857 57.926 104.375 57.2099 103.152 58.0335ZM105.311 58.7138C105.675 59.2508 105.831 60.146 105.883 62.0079C105.961 64.2278 105.909 64.7291 105.415 65.5526C104.713 66.8416 103.802 66.8416 103.1 65.6242C102.658 64.8723 102.554 64.1562 102.554 62.2585C102.554 60.3608 102.658 59.6447 103.1 58.8928C103.75 57.7828 104.635 57.6754 105.311 58.7138Z" fill="white"/>
<path d="M64.0099 62.2214C64.088 66.0884 64.0359 66.5181 63.6198 66.6613C63.3597 66.7687 63.8539 66.8403 64.7122 66.8045C65.5704 66.8045 65.9345 66.7329 65.5444 66.6613L64.8162 66.5181L64.8942 62.2214C64.9722 58.1754 64.9462 57.9606 64.4521 57.9606C63.9579 57.9606 63.9319 58.1754 64.0099 62.2214Z" fill="white"/>
<path d="M66.4814 58.2111C67.9898 58.7482 68.1199 65.4796 66.6114 66.3032C66.3773 66.4464 66.4034 66.518 66.6894 66.518C66.8975 66.5538 67.3656 66.1241 67.7298 65.6229C68.2759 64.8351 68.3539 64.3697 68.3539 62.1855C68.3539 59.894 68.3019 59.6075 67.6257 58.8198C67.2356 58.3543 66.6894 57.9963 66.4554 57.9963C66.0653 58.0321 66.0653 58.0679 66.4814 58.2111Z" fill="white"/>
<path d="M72.3262 61.9708C72.4042 65.4797 72.3522 66.0526 71.9621 66.4465C71.5719 66.8403 71.832 66.9119 73.6266 66.9119H75.7592L75.7332 65.7303L75.7072 64.5846L75.4211 65.5871C75.161 66.4823 75.031 66.5897 74.0687 66.4823L73.0284 66.3748L72.9504 64.2981L72.8723 62.2572H73.7826C74.2768 62.2572 74.7449 62.472 74.7969 62.6869C74.8749 62.9375 74.9269 62.6511 74.9269 62.0782C74.9269 61.4695 74.8749 61.2189 74.7969 61.4337C74.7449 61.6843 74.2768 61.8992 73.7826 61.8992H72.8983V60.1089V58.3186H74.0427C75.031 58.3186 75.213 58.426 75.3171 59.1063C75.4211 59.8224 75.4211 59.7866 75.4731 58.9273C75.4991 57.9606 75.4731 57.9606 73.8866 57.9606H72.2481L72.3262 61.9708Z" fill="white"/>
<path d="M79.3538 59.6075C79.4318 60.5026 79.3798 62.4361 79.2758 63.8683C79.1457 65.9093 79.0157 66.5538 78.6776 66.6612C78.4435 66.7686 78.7036 66.8402 79.2498 66.876C80.108 66.9118 80.212 66.8402 79.8999 66.4463C79.5879 66.0883 79.5618 65.3006 79.6659 62.2571C79.7439 60.1804 79.8999 58.7482 80.004 59.0346C80.108 59.3211 80.5762 61.1471 81.0183 63.0448C81.4864 64.9783 81.9806 66.5538 82.1366 66.5538C82.3967 66.5896 83.1509 63.3671 82.9689 63.0806C82.8908 63.009 82.7608 63.4029 82.6568 64.0116C82.5527 64.6203 82.3967 65.1215 82.3187 65.1215C82.2146 65.1215 81.7725 63.5461 81.3564 61.6126C80.6542 58.5333 80.4981 58.1395 79.926 58.0321C79.3018 57.9246 79.2758 57.9962 79.3538 59.6075Z" fill="white"/>
<path d="M83.7212 58.7483C83.4871 60.0373 83.5651 60.3596 83.8772 59.3928C84.1633 58.5693 84.1893 58.6767 84.3714 60.646C84.6575 64.1908 84.6315 66.4823 84.2934 66.6613C84.1113 66.7688 84.4754 66.8404 85.1256 66.8404C85.7758 66.8404 86.0879 66.7688 85.8538 66.6613C85.4117 66.5181 85.1516 64.4772 85.0476 60.0373C84.9956 58.1754 84.9435 57.9606 84.4494 57.9606C84.0853 57.9606 83.8252 58.247 83.7212 58.7483Z" fill="white"/>
<path d="M89.5457 62.2215C89.5457 65.3007 89.4676 66.5539 89.2336 66.6613C89.0515 66.7688 89.4156 66.8404 90.0658 66.8404C90.716 66.8404 91.0281 66.7688 90.768 66.6613C90.3519 66.5181 90.2999 66.0884 90.3779 62.2215C90.4559 58.3545 90.4039 57.9606 90.0138 57.9606C89.5977 57.9606 89.5457 58.3903 89.5457 62.2215Z" fill="white"/>
<path d="M83.2032 61.398C83.0992 61.8993 83.0732 62.4005 83.1252 62.508C83.2032 62.5796 83.3333 62.2215 83.4113 61.6844C83.5153 61.1832 83.5413 60.6819 83.4893 60.5745C83.4113 60.5028 83.2812 60.8609 83.2032 61.398Z" fill="white"/>
</svg>
