<svg width="400" height="400" viewBox="0 0 400 400" fill="none" xmlns="http://www.w3.org/2000/svg">
<path d="M71.68 326.4C142.552 356.928 257.448 356.928 328.32 326.4C399.192 295.872 399.184 246.4 328.32 215.856C257.456 185.312 142.552 185.336 71.68 215.856C0.807953 246.376 0.799952 295.856 71.68 326.4Z" fill="#FAFAFA"/>
<path d="M123.064 249.952L71.152 279.928L67.256 277.632L119.168 247.704L123.064 249.952Z" fill="#EBEBEB"/>
<path d="M101.392 263.248L122.16 251.256L122.656 251.544L101.896 263.536L101.392 263.248Z" fill="#EBEBEB"/>
<path d="M373.6 281.664C377.208 279.576 377.208 276.2 373.6 274.112L233.232 193.072C229.624 190.992 223.76 190.992 220.144 193.072L157.648 229.136L163.784 232.68L196 214.128L337.176 295.624L307.624 312.664L314.168 315.968L373.6 281.664Z" fill="#EBEBEB"/>
<path d="M162.76 264.312L262.904 322.128C263.476 322.416 264.108 322.566 264.748 322.566C265.388 322.566 266.02 322.416 266.592 322.128L297.512 304.272C298.536 303.688 298.536 302.736 297.512 302.144L197.376 244.328C196.803 244.04 196.17 243.89 195.528 243.89C194.886 243.89 194.254 244.04 193.68 244.328L162.76 262.184C161.744 262.768 161.744 263.72 162.76 264.312Z" fill="#EBEBEB"/>
<path d="M69.8559 263.864C68.7999 257.824 68.0879 246.48 61.1679 236.912C56.1519 229.984 48.2479 223.776 42.2079 225.576C36.6079 227.248 37.5839 236.168 44.1199 241.264C50.6559 246.36 59.0959 253.52 62.9359 266.624L68.5999 275.856L69.8559 263.864Z" fill="#00B071"/>
<g opacity="0.1">
<path d="M69.8559 263.864C68.7999 257.824 68.0879 246.48 61.1679 236.912C56.1519 229.984 48.2479 223.776 42.2079 225.576C36.6079 227.248 37.5839 236.168 44.1199 241.264C50.6559 246.36 59.0959 253.52 62.9359 266.624L68.5999 275.856L69.8559 263.864Z" fill="black"/>
</g>
<path d="M68.5279 268.472C68.4243 268.469 68.3249 268.43 68.2473 268.361C68.1698 268.293 68.119 268.199 68.1039 268.096C65.8319 250.792 57.7759 237.496 44.7999 229.64C44.752 229.611 44.7102 229.573 44.677 229.528C44.6438 229.483 44.6198 229.432 44.6064 229.378C44.5931 229.324 44.5905 229.267 44.599 229.212C44.6075 229.157 44.6269 229.104 44.6559 229.056C44.717 228.96 44.8126 228.892 44.923 228.865C45.0333 228.838 45.1497 228.855 45.2479 228.912C58.4479 236.904 66.6399 250.4 68.9519 268C68.9598 268.056 68.9565 268.113 68.9422 268.167C68.9278 268.221 68.9028 268.273 68.8686 268.317C68.8343 268.362 68.7915 268.399 68.7426 268.427C68.6938 268.455 68.6398 268.473 68.5839 268.48L68.5279 268.472Z" fill="white"/>
<path d="M68 276.856C65.3539 279.564 62.0437 281.531 58.4 282.56C52.072 284.416 48.8 281.712 48.8 281.712C48.8 281.712 50.544 275.352 53.976 273.184C50.1539 274.584 46.5948 276.618 43.448 279.2C43.448 279.2 39.528 279.776 37.184 273.984C37.184 273.984 39.04 270.072 46.584 267.112C46.584 267.112 41.68 266.536 35.072 269.168C34.584 269.44 31.384 261.968 30.272 258.496C29.16 255.024 30.584 254.856 33.28 253.744C35.976 252.632 45.392 250.936 47.336 252.24C49.28 253.544 50.848 258.64 50.848 258.64C50.848 258.64 52.136 255.44 51.384 252.864C53.2572 252.052 55.3339 251.831 57.336 252.232C60.608 252.912 61.272 255.04 62.008 257.216C62.775 259.454 63.0479 261.831 62.808 264.184C62.808 264.184 64.48 260.08 63.36 256.44C65.493 257.307 67.3587 258.723 68.768 260.544C70.84 263.488 71.472 271.68 68 276.856Z" fill="#00B071"/>
<path d="M68 277.288C67.9291 277.287 67.8595 277.269 67.7969 277.235C67.7343 277.202 67.6805 277.154 67.64 277.096C61.056 267 40.16 257.008 33.088 256.568C32.9748 256.56 32.8693 256.507 32.7945 256.422C32.7196 256.337 32.6814 256.225 32.688 256.112C32.691 256.056 32.7053 256 32.73 255.95C32.7547 255.899 32.7893 255.853 32.8318 255.816C32.8743 255.779 32.9238 255.75 32.9774 255.733C33.031 255.715 33.0876 255.708 33.144 255.712C40.344 256.168 61.648 266.352 68.344 276.624C68.385 276.688 68.4083 276.763 68.4113 276.839C68.4144 276.915 68.3971 276.991 68.3614 277.059C68.3256 277.126 68.2725 277.183 68.2077 277.223C68.1428 277.263 68.0683 277.286 67.992 277.288H68Z" fill="white"/>
<path d="M166.872 78.528V230.896L163.784 232.68V80.312L166.872 78.528Z" fill="#37474F"/>
<path d="M163.784 80.312V232.68L157.648 229.136V76.776L163.784 80.312Z" fill="#263238"/>
<path d="M314.168 315.976L311.08 317.744V165.384L314.16 163.608L314.168 315.976Z" fill="#37474F"/>
<path d="M311.08 165.384V317.744L304.944 314.208V161.84L311.08 165.384Z" fill="#263238"/>
<path d="M312.672 157.376L312.584 157.328L165.448 72.384C161.912 70.2559 152.192 72.8639 140.728 79.4879L124 89.152C109.552 97.504 97.84 109.024 97.84 114.896V118.44L245.128 203.48L314.176 163.608V160.064C314.204 159.52 314.078 158.978 313.812 158.503C313.546 158.027 313.151 157.636 312.672 157.376Z" fill="#00B071"/>
<path opacity="0.4" d="M312.584 157.328C308.928 155.368 299.304 158.016 287.992 164.528L271.288 174.184C256.832 182.52 245.112 194.048 245.112 199.92L100.888 116.664L97.824 114.896C97.824 109.024 109.536 97.5039 123.984 89.1519L140.704 79.5039C152.168 72.8799 161.888 70.2719 165.424 72.3999L312.584 157.328Z" fill="white"/>
<path opacity="0.1" d="M245.112 199.936V203.472L97.824 118.44V114.896L245.112 199.936Z" fill="black"/>
<path d="M217.896 268.04C218.273 268.042 218.643 267.943 218.968 267.752L242.24 254.32C243.495 253.6 244.539 252.564 245.269 251.315C245.999 250.065 246.389 248.647 246.4 247.2V220.304C246.4 219.731 246.172 219.182 245.767 218.777C245.362 218.372 244.813 218.144 244.24 218.144C243.667 218.144 243.118 218.372 242.713 218.777C242.308 219.182 242.08 219.731 242.08 220.304V247.2C242.079 247.89 241.897 248.567 241.552 249.164C241.206 249.76 240.71 250.256 240.112 250.6L216.8 264C216.402 264.244 216.094 264.611 215.922 265.045C215.751 265.479 215.724 265.957 215.846 266.407C215.969 266.858 216.234 267.256 216.602 267.543C216.97 267.831 217.421 267.991 217.888 268L217.896 268.04Z" fill="#263238"/>
<path d="M265.4 294.864C265.779 294.862 266.151 294.763 266.48 294.576L289.744 281.136C290.997 280.411 292.038 279.369 292.762 278.115C293.487 276.862 293.869 275.44 293.872 273.992V247.12C293.872 246.547 293.644 245.998 293.239 245.593C292.834 245.188 292.285 244.96 291.712 244.96C291.139 244.96 290.59 245.188 290.185 245.593C289.779 245.998 289.552 246.547 289.552 247.12V273.992C289.551 274.682 289.369 275.359 289.023 275.956C288.678 276.552 288.181 277.048 287.584 277.392L264.32 290.832C263.923 291.076 263.615 291.442 263.443 291.875C263.271 292.308 263.243 292.786 263.365 293.236C263.486 293.686 263.75 294.084 264.117 294.372C264.484 294.66 264.934 294.821 265.4 294.832V294.864Z" fill="#263238"/>
<path d="M172 241.024C172.38 241.023 172.753 240.921 173.08 240.728L196.352 227.296C197.604 226.57 198.643 225.528 199.366 224.274C200.089 223.02 200.47 221.599 200.472 220.152V193.28C200.472 192.707 200.244 192.158 199.839 191.753C199.434 191.347 198.885 191.12 198.312 191.12C197.739 191.12 197.19 191.347 196.785 191.753C196.38 192.158 196.152 192.707 196.152 193.28V220.152C196.151 220.841 195.97 221.517 195.626 222.114C195.282 222.71 194.788 223.206 194.192 223.552L170.92 236.992C170.523 237.236 170.215 237.602 170.043 238.035C169.871 238.468 169.844 238.945 169.965 239.396C170.087 239.846 170.35 240.244 170.717 240.532C171.084 240.82 171.534 240.981 172 240.992V241.024Z" fill="#263238"/>
<path d="M261.368 292.184V317.056C261.389 317.271 261.466 317.478 261.593 317.653C261.719 317.829 261.89 317.968 262.088 318.056C262.626 318.328 263.221 318.47 263.824 318.47C264.427 318.47 265.022 318.328 265.56 318.056C265.758 317.968 265.928 317.829 266.055 317.653C266.181 317.478 266.259 317.271 266.28 317.056V292.184H261.368Z" fill="#263238"/>
<path d="M281.896 280.496V305.36C281.915 305.577 281.992 305.784 282.119 305.962C282.246 306.139 282.417 306.279 282.616 306.368C283.154 306.64 283.749 306.782 284.352 306.782C284.955 306.782 285.55 306.64 286.088 306.368C286.285 306.277 286.454 306.136 286.579 305.959C286.704 305.782 286.78 305.576 286.8 305.36V280.496H281.896Z" fill="#263238"/>
<path d="M168.072 238.32V263.2C168.091 263.416 168.168 263.623 168.295 263.799C168.421 263.975 168.593 264.113 168.792 264.2C169.328 264.476 169.921 264.62 170.524 264.62C171.126 264.62 171.72 264.476 172.256 264.2C172.455 264.113 172.626 263.975 172.753 263.799C172.88 263.623 172.957 263.416 172.976 263.2V238.32H168.072Z" fill="#263238"/>
<path d="M188.6 226.624V251.496C188.619 251.711 188.695 251.917 188.821 252.092C188.946 252.268 189.115 252.407 189.312 252.496C189.85 252.768 190.445 252.91 191.048 252.91C191.651 252.91 192.246 252.768 192.784 252.496C192.982 252.408 193.153 252.269 193.279 252.093C193.405 251.917 193.483 251.711 193.504 251.496V226.624H188.6Z" fill="#263238"/>
<path d="M298.68 253.216L299.112 252.968C299.476 252.732 299.779 252.413 299.996 252.038C300.213 251.662 300.337 251.241 300.36 250.808V246.936C300.335 246.503 300.21 246.083 299.993 245.707C299.776 245.332 299.474 245.013 299.112 244.776L196.544 185.6C196.157 185.403 195.73 185.3 195.296 185.3C194.862 185.3 194.434 185.403 194.048 185.6L193.616 185.848C193.252 186.084 192.95 186.403 192.733 186.778C192.516 187.154 192.391 187.575 192.368 188.008V191.88C192.392 192.313 192.518 192.733 192.735 193.108C192.952 193.484 193.253 193.803 193.616 194.04L296.192 253.24C296.579 253.433 297.006 253.532 297.439 253.528C297.871 253.524 298.297 253.417 298.68 253.216Z" fill="#455A64"/>
<path d="M294.512 248.872L299.992 245.712C300.221 246.08 300.348 246.502 300.36 246.936V250.808C300.337 251.241 300.213 251.662 299.996 252.038C299.779 252.413 299.476 252.732 299.112 252.968L298.68 253.216C298.295 253.413 297.869 253.516 297.436 253.516C297.003 253.516 296.577 253.413 296.192 253.216L294.512 252.248V248.872Z" fill="#263238"/>
<path d="M296.192 246.464L193.6 187.248C192.912 186.848 192.352 187.168 192.352 187.968V191.84C192.376 192.272 192.502 192.693 192.719 193.068C192.936 193.444 193.237 193.763 193.6 194L296.176 253.2C296.864 253.6 297.416 253.28 297.416 252.48V248.608C297.392 248.18 297.269 247.764 297.057 247.391C296.845 247.019 296.548 246.702 296.192 246.464Z" fill="#37474F"/>
<path d="M298.68 265.064L299.112 264.816C299.474 264.579 299.776 264.26 299.993 263.885C300.21 263.509 300.335 263.089 300.36 262.656V258.784C300.337 258.351 300.213 257.929 299.996 257.554C299.779 257.178 299.476 256.86 299.112 256.624L196.544 197.424C196.156 197.23 195.729 197.13 195.296 197.13C194.863 197.13 194.435 197.23 194.048 197.424L193.616 197.672C193.253 197.909 192.952 198.228 192.735 198.603C192.518 198.979 192.392 199.399 192.368 199.832V203.704C192.39 204.137 192.515 204.559 192.732 204.934C192.949 205.309 193.252 205.628 193.616 205.864L296.192 265.064C296.578 265.258 297.004 265.358 297.436 265.358C297.868 265.358 298.294 265.258 298.68 265.064Z" fill="#455A64"/>
<path d="M294.512 260.72L299.992 257.52C300.22 257.891 300.347 258.316 300.36 258.752V262.624C300.336 263.056 300.21 263.477 299.993 263.852C299.776 264.228 299.475 264.547 299.112 264.784L298.68 265.032C298.294 265.225 297.868 265.326 297.436 265.326C297.004 265.326 296.578 265.225 296.192 265.032L294.512 264.064V260.72Z" fill="#263238"/>
<path d="M296.192 258.312L193.6 199.088C192.912 198.696 192.352 199.016 192.352 199.808V203.68C192.374 204.113 192.499 204.534 192.716 204.91C192.933 205.285 193.236 205.604 193.6 205.84L296.176 265.04C296.864 265.432 297.416 265.112 297.416 264.32V260.448C297.393 260.021 297.27 259.605 297.058 259.234C296.845 258.864 296.549 258.548 296.192 258.312Z" fill="#37474F"/>
<path d="M298.68 276.904L299.112 276.656C299.474 276.419 299.776 276.1 299.993 275.725C300.21 275.349 300.335 274.929 300.36 274.496V270.624C300.337 270.191 300.212 269.77 299.995 269.394C299.778 269.019 299.475 268.7 299.112 268.464L196.544 209.264C196.157 209.067 195.73 208.964 195.296 208.964C194.862 208.964 194.434 209.067 194.048 209.264L193.616 209.512C193.252 209.748 192.949 210.067 192.732 210.442C192.515 210.817 192.39 211.239 192.368 211.672V215.544C192.392 215.977 192.518 216.397 192.735 216.773C192.952 217.148 193.253 217.467 193.616 217.704L296.192 276.904C296.577 277.101 297.003 277.204 297.436 277.204C297.869 277.204 298.295 277.101 298.68 276.904Z" fill="#455A64"/>
<path d="M294.512 272.56L299.992 269.36C300.22 269.731 300.347 270.156 300.36 270.592V274.464C300.336 274.896 300.21 275.317 299.993 275.692C299.776 276.068 299.475 276.387 299.112 276.624L298.68 276.872C298.295 277.069 297.869 277.172 297.436 277.172C297.003 277.172 296.577 277.069 296.192 276.872L294.512 275.904V272.56Z" fill="#263238"/>
<path d="M296.192 270.152L193.6 210.936C192.912 210.536 192.352 210.856 192.352 211.656V215.528C192.376 215.96 192.502 216.381 192.719 216.756C192.936 217.132 193.237 217.451 193.6 217.688L296.176 276.888C296.864 277.288 297.416 276.96 297.416 276.168V272.296C297.394 271.868 297.271 271.451 297.059 271.078C296.846 270.706 296.549 270.389 296.192 270.152Z" fill="#37474F"/>
<path d="M294.512 284.072V284.568C294.489 285.001 294.365 285.423 294.148 285.798C293.931 286.173 293.628 286.492 293.264 286.728L289.912 288.664C289.526 288.861 289.098 288.964 288.664 288.964C288.23 288.964 287.802 288.861 287.416 288.664L184.848 229.464C184.485 229.228 184.182 228.909 183.965 228.533C183.748 228.158 183.623 227.737 183.6 227.304V226.808C183.624 226.375 183.75 225.955 183.967 225.579C184.184 225.204 184.485 224.885 184.848 224.648L188.2 222.712C188.586 222.515 189.014 222.412 189.448 222.412C189.882 222.412 190.31 222.515 190.696 222.712L293.264 281.912C293.627 282.149 293.928 282.468 294.145 282.843C294.362 283.219 294.488 283.639 294.512 284.072Z" fill="#37474F"/>
<path d="M288.664 282.632V288.968C289.099 288.975 289.529 288.87 289.912 288.664L293.264 286.728C293.628 286.492 293.931 286.173 294.148 285.798C294.365 285.423 294.489 285.001 294.512 284.568V284.072C294.488 283.639 294.362 283.219 294.145 282.843C293.928 282.468 293.627 282.149 293.264 281.912L291.584 280.944L288.664 282.632Z" fill="#263238"/>
<path d="M287.416 285.288L184.848 226.088C184.713 226.022 184.599 225.92 184.519 225.793C184.439 225.666 184.397 225.518 184.397 225.368C184.397 225.218 184.439 225.07 184.519 224.943C184.599 224.816 184.713 224.713 184.848 224.648L188.2 222.712C188.586 222.515 189.014 222.412 189.448 222.412C189.882 222.412 190.309 222.515 190.696 222.712L293.264 281.912C293.399 281.977 293.513 282.08 293.593 282.207C293.673 282.334 293.715 282.482 293.715 282.632C293.715 282.782 293.673 282.929 293.593 283.057C293.513 283.184 293.399 283.286 293.264 283.352L289.912 285.288C289.525 285.485 289.098 285.588 288.664 285.588C288.23 285.588 287.802 285.485 287.416 285.288Z" fill="#455A64"/>
<path d="M284.28 289.984V290.48C284.255 290.912 284.13 291.333 283.913 291.708C283.696 292.084 283.394 292.403 283.032 292.64L279.68 294.576C279.294 294.773 278.866 294.876 278.432 294.876C277.998 294.876 277.57 294.773 277.184 294.576L174.608 235.376C174.246 235.138 173.946 234.819 173.73 234.444C173.515 234.068 173.391 233.648 173.368 233.216V232.72C173.389 232.287 173.512 231.866 173.728 231.491C173.943 231.115 174.245 230.796 174.608 230.56L177.968 228.624C178.353 228.427 178.779 228.324 179.212 228.324C179.645 228.324 180.071 228.427 180.456 228.624L283.032 287.824C283.395 288.06 283.698 288.379 283.915 288.754C284.132 289.13 284.257 289.551 284.28 289.984Z" fill="#37474F"/>
<path d="M278.4 288.544V294.872C278.834 294.881 279.264 294.78 279.648 294.576L283 292.64C283.362 292.403 283.664 292.084 283.881 291.709C284.098 291.333 284.223 290.913 284.248 290.48V289.984C284.225 289.551 284.1 289.13 283.883 288.754C283.666 288.379 283.363 288.06 283 287.824L281.32 286.856L278.4 288.544Z" fill="#263238"/>
<path d="M277.184 291.2L174.608 232C174.473 231.934 174.359 231.832 174.279 231.705C174.199 231.577 174.157 231.43 174.157 231.28C174.157 231.13 174.199 230.982 174.279 230.855C174.359 230.728 174.473 230.625 174.608 230.56L177.968 228.624C178.353 228.427 178.779 228.324 179.212 228.324C179.645 228.324 180.071 228.427 180.456 228.624L283.032 287.824C283.167 287.889 283.281 287.992 283.361 288.119C283.441 288.246 283.483 288.394 283.483 288.544C283.483 288.694 283.441 288.841 283.361 288.969C283.281 289.096 283.167 289.198 283.032 289.264L279.68 291.2C279.293 291.397 278.866 291.5 278.432 291.5C277.998 291.5 277.57 291.397 277.184 291.2Z" fill="#455A64"/>
<path d="M274.04 295.888V296.392C274.018 296.823 273.894 297.243 273.678 297.617C273.463 297.991 273.162 298.308 272.8 298.544L269.44 300.488C269.054 300.681 268.628 300.782 268.196 300.782C267.764 300.782 267.338 300.681 266.952 300.488L164.376 241.288C164.012 241.052 163.71 240.733 163.493 240.357C163.276 239.982 163.151 239.561 163.128 239.128V238.632C163.152 238.199 163.278 237.778 163.495 237.403C163.712 237.028 164.013 236.709 164.376 236.472L167.736 234.536C168.121 234.339 168.547 234.236 168.98 234.236C169.413 234.236 169.839 234.339 170.224 234.536L272.8 293.736C273.16 293.973 273.46 294.291 273.676 294.665C273.891 295.038 274.016 295.457 274.04 295.888Z" fill="#37474F"/>
<path d="M268.192 294.448V300.8C268.626 300.806 269.055 300.705 269.44 300.504L272.8 298.56C273.162 298.324 273.463 298.007 273.678 297.633C273.894 297.259 274.018 296.839 274.04 296.408V295.904C274.017 295.472 273.893 295.051 273.677 294.676C273.462 294.301 273.161 293.982 272.8 293.744L271.12 292.8L268.192 294.448Z" fill="#263238"/>
<path d="M266.952 297.112L164.376 237.912C164.241 237.846 164.127 237.744 164.047 237.617C163.967 237.489 163.925 237.342 163.925 237.192C163.925 237.042 163.967 236.894 164.047 236.767C164.127 236.64 164.241 236.537 164.376 236.472L167.736 234.536C168.121 234.339 168.547 234.236 168.98 234.236C169.413 234.236 169.839 234.339 170.224 234.536L272.8 293.736C272.935 293.801 273.049 293.904 273.129 294.031C273.209 294.158 273.251 294.306 273.251 294.456C273.251 294.606 273.209 294.753 273.129 294.881C273.049 295.008 272.935 295.11 272.8 295.176L269.44 297.12C269.053 297.312 268.627 297.412 268.195 297.41C267.763 297.409 267.337 297.307 266.952 297.112Z" fill="#455A64"/>
<path d="M291.712 246.192C291.945 246.345 292.138 246.551 292.277 246.793C292.416 247.035 292.497 247.306 292.512 247.584C292.512 248.096 292.152 248.304 291.712 248.048C291.479 247.895 291.285 247.689 291.147 247.447C291.008 247.205 290.927 246.934 290.912 246.656C290.912 246.144 291.272 245.936 291.712 246.192Z" fill="#263238"/>
<path d="M291.712 258.016C291.945 258.168 292.138 258.372 292.277 258.612C292.416 258.853 292.497 259.123 292.512 259.4C292.512 259.912 292.152 260.12 291.712 259.864C291.479 259.71 291.285 259.505 291.147 259.263C291.008 259.021 290.927 258.75 290.912 258.472C290.912 257.96 291.272 257.76 291.712 258.016Z" fill="#263238"/>
<path d="M291.712 269.832C291.945 269.985 292.138 270.191 292.277 270.433C292.416 270.675 292.497 270.946 292.512 271.224C292.512 271.728 292.152 271.936 291.712 271.68C291.479 271.528 291.286 271.324 291.147 271.084C291.008 270.843 290.927 270.573 290.912 270.296C290.912 269.784 291.272 269.6 291.712 269.832Z" fill="#263238"/>
<path d="M198.328 192.384C198.562 192.535 198.756 192.739 198.895 192.979C199.034 193.22 199.114 193.49 199.128 193.768C199.128 194.28 198.768 194.488 198.328 194.232C198.095 194.08 197.902 193.876 197.763 193.636C197.624 193.395 197.543 193.125 197.528 192.848C197.528 192.336 197.888 192.128 198.328 192.384Z" fill="#263238"/>
<path d="M198.328 204.2C198.562 204.352 198.756 204.558 198.895 204.8C199.034 205.042 199.114 205.313 199.128 205.592C199.128 206.104 198.768 206.312 198.328 206.056C198.095 205.903 197.901 205.697 197.763 205.455C197.624 205.213 197.543 204.942 197.528 204.664C197.528 204.152 197.888 203.944 198.328 204.2Z" fill="#263238"/>
<path d="M198.328 216C198.562 216.152 198.756 216.358 198.895 216.6C199.034 216.842 199.114 217.113 199.128 217.392C199.128 217.904 198.768 218.112 198.328 217.856C198.095 217.703 197.901 217.497 197.763 217.255C197.624 217.013 197.543 216.742 197.528 216.464C197.528 216 197.888 215.76 198.328 216Z" fill="#263238"/>
<path d="M285.056 279.576C285.44 279.808 285.448 280.168 285.056 280.376C284.837 280.483 284.596 280.539 284.352 280.539C284.108 280.539 283.867 280.483 283.648 280.376C283.256 280.152 283.256 279.792 283.648 279.576C283.867 279.469 284.108 279.413 284.352 279.413C284.596 279.413 284.837 279.469 285.056 279.576Z" fill="#263238"/>
<path d="M274.792 285.536C274.871 285.568 274.939 285.624 274.987 285.695C275.035 285.766 275.061 285.85 275.061 285.936C275.061 286.022 275.035 286.106 274.987 286.177C274.939 286.248 274.871 286.303 274.792 286.336C274.573 286.443 274.332 286.499 274.088 286.499C273.844 286.499 273.603 286.443 273.384 286.336C273.304 286.303 273.236 286.248 273.189 286.177C273.141 286.106 273.115 286.022 273.115 285.936C273.115 285.85 273.141 285.766 273.189 285.695C273.236 285.624 273.304 285.568 273.384 285.536C273.603 285.429 273.844 285.373 274.088 285.373C274.332 285.373 274.573 285.429 274.792 285.536Z" fill="#263238"/>
<path d="M264.528 291.496C264.92 291.72 264.92 292.08 264.528 292.296C264.311 292.41 264.069 292.47 263.824 292.47C263.579 292.47 263.337 292.41 263.12 292.296C262.728 292.072 262.728 291.712 263.12 291.496C263.339 291.389 263.58 291.333 263.824 291.333C264.068 291.333 264.309 291.389 264.528 291.496Z" fill="#263238"/>
<path d="M191.752 225.744C191.831 225.776 191.899 225.832 191.947 225.903C191.995 225.974 192.021 226.058 192.021 226.144C192.021 226.23 191.995 226.314 191.947 226.385C191.899 226.456 191.831 226.511 191.752 226.544C191.533 226.651 191.292 226.707 191.048 226.707C190.804 226.707 190.563 226.651 190.344 226.544C190.264 226.511 190.196 226.456 190.149 226.385C190.101 226.314 190.075 226.23 190.075 226.144C190.075 226.058 190.101 225.974 190.149 225.903C190.196 225.832 190.264 225.776 190.344 225.744C190.563 225.637 190.804 225.581 191.048 225.581C191.292 225.581 191.533 225.637 191.752 225.744Z" fill="#263238"/>
<path d="M181.488 231.696C181.88 231.928 181.88 232.288 181.488 232.496C181.268 232.605 181.026 232.661 180.78 232.661C180.534 232.661 180.292 232.605 180.072 232.496C179.68 232.272 179.68 231.912 180.072 231.696C180.292 231.587 180.534 231.531 180.78 231.531C181.026 231.531 181.268 231.587 181.488 231.696Z" fill="#263238"/>
<path d="M171.2 237.656C171.279 237.688 171.347 237.744 171.395 237.815C171.443 237.886 171.469 237.97 171.469 238.056C171.469 238.142 171.443 238.226 171.395 238.297C171.347 238.368 171.279 238.423 171.2 238.456C170.98 238.565 170.738 238.621 170.492 238.621C170.246 238.621 170.004 238.565 169.784 238.456C169.704 238.423 169.636 238.368 169.589 238.297C169.541 238.226 169.515 238.142 169.515 238.056C169.515 237.97 169.541 237.886 169.589 237.815C169.636 237.744 169.704 237.688 169.784 237.656C170.004 237.547 170.246 237.491 170.492 237.491C170.738 237.491 170.98 237.547 171.2 237.656Z" fill="#263238"/>
<path d="M244.208 219.408C244.441 219.56 244.634 219.764 244.773 220.004C244.912 220.245 244.993 220.515 245.008 220.792C245.008 221.304 244.648 221.512 244.208 221.256C243.974 221.104 243.78 220.898 243.641 220.656C243.502 220.414 243.422 220.143 243.408 219.864C243.4 219.352 243.76 219.152 244.208 219.408Z" fill="#263238"/>
<path d="M244.208 231.2C244.44 231.352 244.633 231.557 244.772 231.797C244.911 232.038 244.991 232.307 245.008 232.584C245.008 233.096 244.648 233.304 244.208 233.048C243.974 232.897 243.78 232.693 243.641 232.452C243.502 232.212 243.422 231.942 243.408 231.664C243.4 231.2 243.76 230.968 244.208 231.2Z" fill="#263238"/>
<path d="M244.208 243.04C244.441 243.193 244.634 243.399 244.773 243.641C244.912 243.883 244.993 244.154 245.008 244.432C245.008 244.944 244.648 245.152 244.208 244.896C243.974 244.744 243.78 244.538 243.641 244.296C243.502 244.054 243.422 243.783 243.408 243.504C243.4 242.992 243.76 242.784 244.208 243.04Z" fill="#263238"/>
<path d="M237.6 252.8C237.683 252.829 237.755 252.883 237.805 252.955C237.856 253.026 237.883 253.112 237.883 253.2C237.883 253.288 237.856 253.373 237.805 253.445C237.755 253.517 237.683 253.571 237.6 253.6C237.383 253.714 237.141 253.774 236.896 253.774C236.651 253.774 236.409 253.714 236.192 253.6C235.8 253.376 235.8 253.016 236.192 252.8C236.411 252.693 236.652 252.637 236.896 252.637C237.14 252.637 237.381 252.693 237.6 252.8Z" fill="#263238"/>
<path d="M227.368 258.72C227.447 258.752 227.515 258.808 227.563 258.879C227.611 258.95 227.637 259.034 227.637 259.12C227.637 259.206 227.611 259.29 227.563 259.361C227.515 259.432 227.447 259.487 227.368 259.52C227.149 259.627 226.908 259.683 226.664 259.683C226.42 259.683 226.179 259.627 225.96 259.52C225.88 259.487 225.812 259.432 225.765 259.361C225.717 259.29 225.691 259.206 225.691 259.12C225.691 259.034 225.717 258.95 225.765 258.879C225.812 258.808 225.88 258.752 225.96 258.72C226.179 258.612 226.42 258.557 226.664 258.557C226.908 258.557 227.149 258.612 227.368 258.72Z" fill="#263238"/>
<path d="M217.104 264.68C217.183 264.712 217.251 264.768 217.299 264.839C217.347 264.91 217.373 264.994 217.373 265.08C217.373 265.166 217.347 265.25 217.299 265.321C217.251 265.392 217.183 265.448 217.104 265.48C216.885 265.587 216.644 265.643 216.4 265.643C216.156 265.643 215.915 265.587 215.696 265.48C215.616 265.448 215.548 265.392 215.501 265.321C215.453 265.25 215.427 265.166 215.427 265.08C215.427 264.994 215.453 264.91 215.501 264.839C215.548 264.768 215.616 264.712 215.696 264.68C215.915 264.573 216.156 264.517 216.4 264.517C216.644 264.517 216.885 264.573 217.104 264.68Z" fill="#263238"/>
<path d="M71 126.928V279.192L67.912 277.408V125.112L71 126.928Z" fill="#263238"/>
<path d="M75.936 124.048V276.344L71 279.192V126.928L75.936 124.048Z" fill="#37474F"/>
<path d="M75.936 124.048L71 126.928L67.912 125.112L72.848 122.264L75.936 124.048Z" fill="#455A64"/>
<path d="M58.928 142.288L86.4 126.4C87.416 125.816 88.24 126.288 88.24 127.464V167.2C88.207 167.841 88.0232 168.464 87.7034 169.02C87.3837 169.577 86.9371 170.049 86.4 170.4L58.928 186.248C57.912 186.84 57.088 186.36 57.088 185.184V145.48C57.1228 144.841 57.3076 144.219 57.6272 143.664C57.9468 143.11 58.3924 142.638 58.928 142.288Z" fill="#00B071"/>
<path d="M84.104 145.16L82.856 145.88C82.805 145.914 82.7626 145.958 82.732 146.011C82.7015 146.064 82.6836 146.123 82.68 146.184V149.08V150.4L82.136 150.704V141.4C82.136 139.76 80.984 139.096 79.568 139.912L65.752 147.912C65.011 148.401 64.3945 149.057 63.9514 149.826C63.5084 150.595 63.2511 151.458 63.2 152.344V161.6L62.656 161.92V160.632V157.736C62.656 157.624 62.584 157.576 62.488 157.632L61.24 158.352C61.189 158.386 61.1466 158.43 61.116 158.483C61.0855 158.536 61.0676 158.595 61.064 158.656V161.312C61.064 161.72 61.352 161.888 61.704 161.68L62.04 161.488V162.288C62.04 162.68 62.312 162.832 62.648 162.64L63.2 162.32V168.864H63.128C62.9258 168.997 62.7575 169.176 62.6367 169.385C62.5158 169.595 62.4457 169.83 62.432 170.072V170.304C62.432 171.368 63.176 171.8 64.096 171.264L64.448 171.064V172.8C64.448 173.088 64.648 173.2 64.896 173.056L67.056 171.808C67.191 171.721 67.303 171.603 67.3824 171.464C67.4618 171.325 67.5063 171.168 67.512 171.008V169.312L77.848 163.344V165.04C77.848 165.328 78.048 165.44 78.296 165.296L80.456 164.048C80.591 163.961 80.703 163.843 80.7824 163.704C80.8618 163.565 80.9063 163.408 80.912 163.248V161.6L81.256 161.4C81.741 161.084 82.1445 160.657 82.4337 160.155C82.7228 159.653 82.8894 159.09 82.92 158.512V158.28C82.92 157.84 82.616 157.656 82.232 157.88L82.152 157.92V151.376L82.704 151.056C82.8807 150.942 83.0279 150.787 83.1336 150.605C83.2393 150.423 83.3004 150.218 83.312 150.008V149.208L83.648 149.016C83.8339 148.892 83.9885 148.726 84.0996 148.531C84.2106 148.337 84.2751 148.119 84.288 147.896V145.24C84.272 145.152 84.2 145.104 84.104 145.16ZM81.4 153.72C81.3773 154.091 81.2687 154.452 81.0827 154.774C80.8966 155.096 80.6383 155.371 80.328 155.576C79.736 155.92 79.256 155.64 79.256 154.96C79.2774 154.587 79.3854 154.225 79.5715 153.901C79.7576 153.578 80.0166 153.302 80.328 153.096C80.92 152.752 81.4 153.032 81.4 153.72ZM79.928 141.176C80.296 140.96 80.6 141.136 80.6 141.56C80.5859 141.792 80.5178 142.018 80.4012 142.22C80.2845 142.421 80.1225 142.592 79.928 142.72C79.56 142.936 79.256 142.72 79.256 142.336C79.2681 142.103 79.3354 141.877 79.4522 141.675C79.5691 141.473 79.7321 141.302 79.928 141.176ZM80.6 145.88V150.4C80.5935 150.509 80.562 150.614 80.5079 150.709C80.4537 150.803 80.3785 150.884 80.288 150.944L72.984 155.2V147.92L78.584 144.72C79.688 144.048 80.6 144.576 80.6 145.88ZM78.4 158.016L66.872 164.672V164.136L78.4 157.48V158.016ZM78.4 154.888V155.512L66.872 162.168V161.544L78.4 154.888ZM78.4 156.8L66.872 163.456V162.92L78.4 156.232V156.8ZM67.496 148.472C67.4981 148.419 67.513 148.367 67.5395 148.321C67.5659 148.275 67.6032 148.236 67.648 148.208L77.672 142.4C77.76 142.352 77.832 142.4 77.832 142.488V143.8C77.8283 143.854 77.8119 143.906 77.7841 143.952C77.7562 143.997 77.7178 144.036 77.672 144.064L67.648 149.856C67.56 149.904 67.496 149.856 67.496 149.768V148.472ZM65.392 149.6C65.76 149.384 66.064 149.56 66.064 149.984C66.0511 150.217 65.9836 150.443 65.8668 150.644C65.7501 150.846 65.5874 151.017 65.392 151.144C65.024 151.36 64.72 151.184 64.72 150.76C64.7328 150.527 64.8003 150.301 64.9171 150.1C65.0339 149.898 65.1966 149.727 65.392 149.6ZM64.72 155.08C64.7588 154.372 64.9636 153.683 65.318 153.069C65.6724 152.454 66.1664 151.932 66.76 151.544L72.36 148.344V155.6L65.064 159.816C64.888 159.912 64.744 159.816 64.744 159.632L64.72 155.08ZM64.992 161.984C65.584 161.64 66.072 161.92 66.072 162.6C66.0496 162.973 65.9404 163.336 65.7529 163.66C65.5653 163.984 65.3048 164.259 64.992 164.464C64.4 164.808 63.92 164.528 63.92 163.84C63.9377 163.463 64.044 163.096 64.2303 162.768C64.4165 162.44 64.6775 162.16 64.992 161.952V161.984ZM67.856 165.488C67.48 165.704 67.152 165.632 67 165.36L78.328 158.816C78.1767 159.277 77.8717 159.673 77.464 159.936L67.856 165.488Z" fill="white"/>
<path d="M235.04 265.152C236.248 264.84 242.688 261.152 243.344 260.728C244 260.304 245.296 259.36 245.296 257.776C245.296 256.36 245.152 243.096 244 236.688C243.619 234.694 242.835 232.798 241.696 231.117C240.557 229.436 239.087 228.005 237.376 226.912C233.376 224.432 229.376 222.632 225.944 224.04C222.512 225.448 219.456 228.04 218.12 231.176C216.784 234.312 215.864 240.584 215.776 243.008C215.688 245.432 215.776 253.752 215.776 254.488C215.776 255.224 215.904 256.192 219.888 258.656C223.872 261.12 229.36 264.08 231.088 264.84C232.341 265.353 233.722 265.462 235.04 265.152Z" fill="#00B071"/>
<path d="M236 228.64C236.368 228.848 237.432 228.328 237.6 228.064C237.816 226.767 237.608 225.434 237.008 224.264C236.208 223.008 231.264 220.696 230.04 220.864C229.582 220.939 229.144 221.107 228.753 221.357C228.363 221.607 228.027 221.935 227.768 222.32C227.616 222.64 227.448 224.76 227.768 225.192C228.088 225.624 229.216 224.96 229.312 224.776C229.408 224.592 228.944 223.04 229.744 222.72C230.544 222.4 233.912 223.888 235.344 225.072C235.952 225.584 235.92 226.856 235.896 227.472C235.872 228.088 235.848 228.528 236 228.64Z" fill="#00B071"/>
<path opacity="0.1" d="M236 228.64C236.368 228.848 237.432 228.328 237.6 228.064C237.816 226.767 237.608 225.434 237.008 224.264C236.208 223.008 231.264 220.696 230.04 220.864C229.582 220.939 229.144 221.107 228.753 221.357C228.363 221.607 228.027 221.935 227.768 222.32C227.616 222.64 227.448 224.76 227.768 225.192C228.088 225.624 229.216 224.96 229.312 224.776C229.408 224.592 228.944 223.04 229.744 222.72C230.544 222.4 233.912 223.888 235.344 225.072C235.952 225.584 235.92 226.856 235.896 227.472C235.872 228.088 235.848 228.528 236 228.64Z" fill="black"/>
<path opacity="0.1" d="M237.032 243.584C236.32 236.688 235.04 232.664 228.296 229.656C221.552 226.648 218.936 229.216 217.984 231.512C216.72 234.712 215.864 240.664 215.776 243.008C215.688 245.352 215.776 253.752 215.776 254.488C215.776 255.224 215.904 256.192 219.888 258.656C223.872 261.12 229.36 264.08 231.088 264.84C232.355 265.364 233.755 265.473 235.088 265.152C235.362 265.069 235.63 264.965 235.888 264.84C237.92 262.16 237.68 249.872 237.032 243.584Z" fill="black"/>
<path opacity="0.1" d="M221.312 226.968C223.072 225.936 225.96 225.256 230.2 227.144C237.784 230.52 239.712 234.752 240.472 242.16C240.616 243.52 240.816 245.136 240.904 246.88L241.528 246.504C241.44 244.624 241.264 243.016 241.104 241.56C240.304 234.08 238.024 229.952 230.776 226.72C226.776 224.936 224.128 225.176 222.384 226.048C222.011 226.336 221.653 226.643 221.312 226.968Z" fill="black"/>
<path d="M221.048 227.2C222.808 226.168 225.696 225.488 229.936 227.376C237.52 230.752 239.448 234.984 240.208 242.392C240.352 243.752 240.552 245.368 240.64 247.112L241.264 246.736C241.176 244.856 241 243.248 240.84 241.792C240.04 234.312 237.76 230.184 230.512 226.952C226.512 225.168 223.792 225.464 222.056 226.344C221.703 226.608 221.366 226.894 221.048 227.2Z" fill="white"/>
<path d="M223.504 233.712L225.792 232.4C225.906 232.338 226.04 232.323 226.165 232.357C226.29 232.392 226.397 232.473 226.464 232.584L228.816 236.672C228.849 236.728 228.87 236.79 228.878 236.854C228.887 236.919 228.882 236.984 228.865 237.047C228.848 237.109 228.818 237.168 228.778 237.219C228.738 237.27 228.689 237.312 228.632 237.344L226.4 238.664C226.287 238.729 226.154 238.746 226.028 238.713C225.902 238.68 225.795 238.6 225.728 238.488L223.328 234.376C223.295 234.321 223.274 234.26 223.265 234.197C223.256 234.133 223.26 234.069 223.276 234.007C223.292 233.945 223.321 233.887 223.36 233.837C223.399 233.786 223.448 233.744 223.504 233.712Z" fill="#37474F"/>
<path d="M225.96 238.2L223.704 234.304C223.687 234.276 223.676 234.246 223.671 234.214C223.666 234.181 223.668 234.149 223.676 234.117C223.684 234.086 223.699 234.056 223.719 234.031C223.739 234.005 223.764 233.984 223.792 233.968L225.872 232.784C225.929 232.754 225.995 232.746 226.057 232.762C226.119 232.779 226.173 232.818 226.208 232.872L228.432 236.752C228.449 236.78 228.46 236.811 228.465 236.843C228.47 236.875 228.468 236.908 228.46 236.939C228.452 236.97 228.437 237 228.417 237.025C228.397 237.051 228.372 237.072 228.344 237.088L226.296 238.288C226.239 238.318 226.173 238.326 226.111 238.31C226.048 238.293 225.995 238.254 225.96 238.2Z" fill="#455A64"/>
<path d="M225.472 236.336C225.412 236.299 225.361 236.249 225.324 236.189C225.286 236.13 225.263 236.062 225.256 235.992V234.128C225.256 234.008 225.352 233.968 225.472 234.032C225.533 234.068 225.585 234.118 225.624 234.178C225.663 234.238 225.688 234.305 225.696 234.376V236.24C225.696 236.36 225.6 236.4 225.472 236.336Z" fill="#37474F"/>
<path d="M226.688 237.032C226.627 236.996 226.575 236.946 226.538 236.886C226.5 236.827 226.478 236.759 226.472 236.688V234.824C226.472 234.704 226.568 234.664 226.688 234.736C226.748 234.773 226.799 234.823 226.836 234.883C226.874 234.942 226.897 235.01 226.904 235.08V236.944C226.904 237.064 226.808 237.104 226.688 237.032Z" fill="#37474F"/>
<path d="M240.496 245.6C240.301 246.317 240.175 247.051 240.12 247.792C240.12 247.944 240.32 248.024 240.384 248.024C240.862 247.922 241.304 247.692 241.664 247.36C241.597 246.728 241.482 246.102 241.32 245.488L240.496 245.6Z" fill="#263238"/>
<path d="M240.864 245.792C241.306 245.792 241.664 245.434 241.664 244.992C241.664 244.55 241.306 244.192 240.864 244.192C240.422 244.192 240.064 244.55 240.064 244.992C240.064 245.434 240.422 245.792 240.864 245.792Z" fill="#263238"/>
<path opacity="0.1" d="M230.064 222.68C229.192 222.6 228.368 222.68 228.16 223.552C227.968 224.131 227.968 224.757 228.16 225.336C228.602 225.281 229.015 225.085 229.336 224.776C229.44 224.584 228.968 223.04 229.768 222.72C229.866 222.702 229.966 222.702 230.064 222.72V222.68Z" fill="black"/>
<path d="M238.976 251.2L243.632 248.488C243.756 248.419 243.898 248.387 244.04 248.397C244.182 248.407 244.318 248.458 244.432 248.544C245.384 249.396 246.016 250.547 246.224 251.808C246.904 254.76 246.72 258.664 245.96 259.112L240.92 262.048C240.168 262.496 239.096 261.56 238.824 261.248C238.312 260.584 238.448 253.6 238.976 251.2Z" fill="#00B071"/>
<path opacity="0.1" d="M238.976 251.2C238.976 251.2 239.928 252 240.576 254.936C241.224 257.872 241.68 261.608 240.92 262.048C240.16 262.488 239.096 261.56 238.824 261.248C238.312 260.584 238.448 253.6 238.976 251.2Z" fill="black"/>
<path opacity="0.1" d="M244.216 248.984C244.776 249.264 245.712 250.008 246.128 252.008C246.199 252.28 246.193 252.567 246.109 252.836C246.026 253.104 245.869 253.344 245.656 253.528C245.272 253.8 243.528 254.632 242.456 255.28C241.512 255.848 241.024 255.096 240.816 254.632C240.472 253.832 240.168 253.152 239.904 252.656C239.707 252.113 239.399 251.617 239 251.2L243.488 249.024C243.597 248.96 243.72 248.923 243.847 248.916C243.974 248.909 244.1 248.933 244.216 248.984Z" fill="black"/>
<path d="M243.696 248.448C243.812 248.386 243.941 248.354 244.072 248.354C244.203 248.354 244.332 248.386 244.448 248.448C245 248.72 245.944 249.472 246.36 251.472C246.433 251.743 246.427 252.029 246.343 252.296C246.26 252.564 246.102 252.803 245.888 252.984C245.504 253.256 243.76 254.088 242.688 254.744C241.744 255.304 241.256 254.56 241.048 254.088C239.904 251.688 239 251.224 239 251.224L243.696 248.448Z" fill="#00B071"/>
<path opacity="0.4" d="M243.696 248.448C243.812 248.386 243.941 248.354 244.072 248.354C244.203 248.354 244.332 248.386 244.448 248.448C245 248.72 245.944 249.472 246.36 251.472C246.433 251.743 246.427 252.029 246.343 252.296C246.26 252.564 246.102 252.803 245.888 252.984C245.504 253.256 243.76 254.088 242.688 254.744C241.744 255.304 241.256 254.56 241.048 254.088C239.904 251.688 239 251.224 239 251.224L243.696 248.448Z" fill="white"/>
<path d="M218.744 244.704L232.584 252.704V253.52L218.744 245.52V244.704Z" fill="white"/>
<path opacity="0.1" d="M218.744 246L232.584 253.992V253.52L218.744 245.52V246Z" fill="black"/>
<path d="M233.04 253.864C233.231 254.582 233.354 255.316 233.408 256.056C233.408 256.208 233.208 256.288 233.152 256.288C232.673 256.186 232.231 255.956 231.872 255.624C231.939 254.992 232.054 254.366 232.216 253.752L233.04 253.864Z" fill="#263238"/>
<path d="M232.672 254.08C233.114 254.08 233.472 253.722 233.472 253.28C233.472 252.838 233.114 252.48 232.672 252.48C232.23 252.48 231.872 252.838 231.872 253.28C231.872 253.722 232.23 254.08 232.672 254.08Z" fill="#263238"/>
<path d="M247.44 325.52L241.84 324.944L243 316.384L249.064 316.952L247.44 325.52Z" fill="#FFA8A7"/>
<path d="M242.312 321.472L242.416 320.712C241.864 320.92 238.768 326.56 236.872 328.896C234.976 331.232 231.784 333.352 231.088 335.12C230.392 336.888 235.088 338.128 236.744 337.912C238.68 337.656 242.064 336.464 242.952 335.248C243.84 334.032 244.32 332.216 245.04 331.328C245.76 330.44 248.544 328.584 248.976 327.056C249.095 325.69 249.025 324.315 248.768 322.968C248.56 321.968 248.648 320.872 248.304 320.952L248.152 321.752C247.728 322.184 246.384 322.368 245.112 322.352C244.296 322.4 242.272 322.096 242.312 321.472Z" fill="#263238"/>
<path d="M228.48 314.44L222.56 313.84L225.616 304.624L231.896 304.456L228.48 314.44Z" fill="#FFA8A7"/>
<path d="M223.2 311.864C222.92 311.864 222.488 312.176 221.744 312.816C219.735 314.225 217.64 315.508 215.472 316.656C213.464 317.664 209.568 319.208 207.808 320C206.704 320.496 206.752 321.824 207.896 322.584C208.938 323.319 210.117 323.84 211.363 324.115C212.609 324.389 213.897 324.413 215.152 324.184C216.952 323.784 222.632 320.696 224.12 320.792C225.608 320.888 228.368 320.856 229.464 320.104C230.56 319.352 230.056 316.68 229.744 315.304C229.408 313.792 229.696 312.184 229.192 312.288L228.84 313.32C228.2 314.296 222.856 313.536 222.936 312.656L223.2 311.864Z" fill="#263238"/>
<path d="M277.6 264.216C278.776 272.48 277.192 274.072 269.336 281.992C265.104 286.256 256.168 292.184 256.168 292.184C256.615 295.675 256.307 299.222 255.264 302.584C253.352 308.84 248.608 319.856 248.608 319.856C247.599 320.242 246.523 320.42 245.443 320.379C244.364 320.337 243.304 320.078 242.328 319.616C242.328 319.616 243.76 310.424 244.424 303.848C245.464 293.448 246.368 289.96 246.824 288.04C247.224 286.352 256.264 276.92 258.104 274.088L239.832 283.2C239.832 283.2 239.744 288.8 238.64 291.872C235.784 299.712 229.744 311.632 229.744 311.632C229.744 311.632 225.144 312.096 223.216 310.592C223.216 310.592 229.072 281.872 229.8 279.44C231.08 275.2 246.56 264.072 249.728 261.392C251.536 259.856 253.56 258.192 253.56 258.192L277.6 264.216Z" fill="#37474F"/>
<path d="M277.6 264.216L272.76 263.016L272.904 264.512C272.846 270.327 270.511 275.887 266.4 280C259.528 286.776 253.672 290.736 253.328 292.2C252.984 293.664 252.584 306.312 246.4 320.336C247.15 320.274 247.888 320.107 248.592 319.84C248.592 319.84 253.336 308.824 255.248 302.568C256.291 299.206 256.599 295.659 256.152 292.168C256.152 292.168 265.088 286.24 269.32 281.976C277.176 274.072 278.76 272.48 277.6 264.216Z" fill="#263238"/>
<path d="M258.088 274.056C256.299 272.61 254.954 270.688 254.208 268.512C254.301 269.931 254.501 271.34 254.808 272.728C255.272 274.568 239.832 283.232 239.832 283.232L258.088 274.056Z" fill="#263238"/>
<path d="M254.568 242.688C254.568 242.688 243.664 231.936 241.672 230.152C239.086 228.159 235.829 227.244 232.584 227.6C229.768 228.08 229.92 230.24 232.36 231.272C236.36 232.968 237.592 234.528 237.488 234.704C237.384 234.88 234.6 233.552 233.416 234.216C232.232 234.88 232.848 235.728 233.416 235.888C233.984 236.048 236.416 237.192 237.72 237.592C239.024 237.992 240.92 238.024 242.696 239.264C244.472 240.504 251.44 251.2 254.4 252.912C257.36 254.624 257.76 242.928 257.76 242.928L254.568 242.688Z" fill="#FFA8A7"/>
<path d="M261.672 226.032C258.968 225.672 256.968 226.248 255.384 228.688C253.8 231.128 252.872 241.024 252.872 241.024C252.872 241.024 253.44 243.424 255.272 244.224C257.104 245.024 261.672 226.032 261.672 226.032Z" fill="#E0E0E0"/>
<path d="M276.112 230.632C276.112 230.632 277.984 232.168 277.984 237.032V247.52L277.72 265.12C273.968 269.2 257.088 267.656 252.92 258.72C252.92 258.72 253.528 239.88 254.088 235.752C254.888 230.152 256.264 226.096 261.672 225.976L269.928 227.896L276.112 230.632Z" fill="#F0F0F0"/>
<path d="M281.016 281.6C280.391 282.413 279.593 283.077 278.68 283.544C277.483 284.059 276.18 284.281 274.88 284.192C274.308 284.198 273.74 284.092 273.208 283.88C272.972 283.786 272.759 283.643 272.583 283.459C272.408 283.276 272.275 283.056 272.192 282.816C272.112 282.336 272.608 281.928 272.944 281.656C273.508 281.167 274.029 280.632 274.504 280.056C274.744 279.784 274.984 279.504 275.2 279.208C275.416 278.912 275.68 278.408 275.92 278.08C276.056 277.88 276.4 277.28 276.064 277.136C275.927 277.084 275.776 277.084 275.64 277.136C275.208 277.24 274.792 277.392 274.352 277.488C273.918 277.595 273.462 277.573 273.04 277.424C272.943 277.392 272.853 277.34 272.777 277.271C272.701 277.202 272.641 277.118 272.6 277.024C272.57 276.926 272.565 276.822 272.584 276.722C272.604 276.622 272.648 276.527 272.712 276.448C272.837 276.285 272.989 276.145 273.16 276.032L274.656 274.928C275.64 274.192 276.808 273.752 277.536 272.696C277.978 271.893 278.251 271.008 278.336 270.096C278.912 267.144 279.528 255.488 279.528 255.488L275.72 241.928C275.72 241.928 272.2 234.656 276.104 230.672C277.904 231.472 280.016 231.312 282.328 239.304C283.984 245.04 286.88 252.768 286.88 255.304C286.876 256.378 286.772 257.449 286.568 258.504C285.504 264.104 284.432 268.968 283.48 274.608C283.4 275.096 283.416 275.584 283.328 276.056C282.736 279.408 281.648 280.8 281.016 281.6Z" fill="#FFA8A7"/>
<path d="M276.112 230.632C277.476 230.859 278.733 231.511 279.704 232.496C281.299 234.693 282.466 237.171 283.144 239.8C284.08 243.264 285.544 247.696 285.544 247.696C284.505 248.737 283.25 249.537 281.867 250.037C280.484 250.538 279.008 250.727 277.544 250.592L274.68 241.264C274.68 241.264 271.944 233.056 276.112 230.632Z" fill="#E0E0E0"/>
<path d="M268.31 212.912C269.274 208.827 266.744 204.734 262.659 203.77C258.574 202.806 254.48 205.336 253.516 209.421C252.552 213.506 255.082 217.599 259.167 218.563C263.252 219.527 267.345 216.997 268.31 212.912Z" fill="#263238"/>
<path d="M273.352 215.712C273.352 215.712 272.192 221.184 271.752 222.112C271.44 222.666 270.928 223.078 270.32 223.264L270.4 219.416L273.352 215.712Z" fill="#263238"/>
<path d="M271.896 207.864C272.304 207.82 272.717 207.869 273.104 208.007C273.491 208.146 273.841 208.37 274.128 208.664C275.088 209.64 274.552 212.712 273.328 215.72L271.2 216L271.896 207.864Z" fill="#263238"/>
<path d="M270.504 216C270.944 216.264 271.568 215.416 272.104 214.848C272.318 214.604 272.59 214.419 272.895 214.309C273.2 214.2 273.528 214.17 273.848 214.222C274.168 214.274 274.469 214.406 274.724 214.607C274.979 214.807 275.178 215.069 275.304 215.368C276.208 217.264 274.504 219.768 273.128 220.208C270.728 220.968 270.36 219.408 270.36 219.408L270.176 228.08C268.104 230.392 261.024 229.84 262.36 227.848V225.208C261.287 225.382 260.198 225.438 259.112 225.376C257.344 225.104 256.232 223.704 255.696 221.792C254.84 218.72 254.512 216.24 255.24 210.192C256.04 203.568 263.752 203.496 267.912 206.112C272.072 208.728 270.504 216 270.504 216Z" fill="#FFA8A7"/>
<path d="M270.504 216.704C270.72 216.704 271.568 215.312 272.104 214.816C272.864 214.12 271.888 207.864 271.888 207.864C272.086 207.323 272.122 206.736 271.991 206.174C271.861 205.613 271.569 205.102 271.152 204.704C270.112 203.56 268.376 203.432 265.408 202.968C263.848 202.72 261.488 202.288 259.936 201.992C258.08 201.648 256.536 201.288 255.232 202.424C254.717 202.869 254.353 203.462 254.189 204.123C254.026 204.784 254.072 205.479 254.32 206.112C254.45 206.406 254.628 206.677 254.848 206.912C255.201 207.337 255.663 207.657 256.184 207.84C256.184 207.84 256.984 208.552 259.808 208.896C262.407 209.091 265.018 209.043 267.608 208.752C268.408 208.64 268.6 209.432 269.04 211.592C269.44 213.472 269.76 216.688 270.504 216.704Z" fill="#263238"/>
<path d="M271.888 208.352L274.552 206.928C274.468 206.748 274.348 206.587 274.199 206.454C274.051 206.322 273.877 206.222 273.688 206.159C273.5 206.096 273.3 206.072 273.102 206.089C272.904 206.105 272.711 206.162 272.536 206.256C272.181 206.457 271.917 206.786 271.796 207.175C271.676 207.565 271.709 207.986 271.888 208.352Z" fill="#263238"/>
<path d="M262.4 225.192C262.4 225.192 266.344 224.392 267.72 223.664C268.534 223.243 269.2 222.584 269.632 221.776C269.426 222.584 269.055 223.341 268.544 224C267.536 225.296 262.4 226.248 262.4 226.248V225.192Z" fill="#F28F8F"/>
<path d="M263.32 214.976C263.32 215.134 263.367 215.289 263.455 215.42C263.543 215.552 263.668 215.655 263.814 215.715C263.96 215.776 264.121 215.792 264.276 215.761C264.431 215.73 264.574 215.654 264.686 215.542C264.798 215.43 264.874 215.287 264.905 215.132C264.935 214.977 264.92 214.816 264.859 214.67C264.799 214.524 264.696 214.399 264.564 214.311C264.433 214.223 264.278 214.176 264.12 214.176C263.908 214.176 263.704 214.26 263.554 214.41C263.404 214.56 263.32 214.764 263.32 214.976Z" fill="#263238"/>
<path d="M264.592 211.704L266.28 212.64C266.402 212.408 266.429 212.137 266.356 211.885C266.283 211.633 266.115 211.419 265.888 211.288C265.776 211.228 265.653 211.191 265.527 211.179C265.4 211.167 265.272 211.181 265.151 211.22C265.03 211.259 264.918 211.322 264.822 211.405C264.726 211.488 264.648 211.59 264.592 211.704Z" fill="#263238"/>
<path d="M262.728 220.44L260.92 221.12C260.959 221.242 261.023 221.354 261.107 221.451C261.191 221.547 261.294 221.626 261.408 221.682C261.523 221.738 261.649 221.77 261.776 221.777C261.904 221.783 262.032 221.764 262.152 221.72C262.395 221.623 262.592 221.436 262.699 221.197C262.807 220.958 262.817 220.686 262.728 220.44Z" fill="#F28F8F"/>
<path d="M256.064 212.4L257.6 211.2C257.527 211.096 257.434 211.008 257.325 210.941C257.217 210.874 257.097 210.83 256.971 210.811C256.845 210.792 256.717 210.799 256.594 210.832C256.471 210.864 256.356 210.922 256.256 211C256.05 211.164 255.915 211.401 255.88 211.662C255.844 211.922 255.91 212.187 256.064 212.4Z" fill="#263238"/>
<path d="M256.744 214.752C256.744 214.964 256.828 215.168 256.978 215.318C257.128 215.468 257.332 215.552 257.544 215.552C257.756 215.552 257.96 215.468 258.11 215.318C258.26 215.168 258.344 214.964 258.344 214.752C258.344 214.54 258.26 214.336 258.11 214.186C257.96 214.036 257.756 213.952 257.544 213.952C257.332 213.952 257.128 214.036 256.978 214.186C256.828 214.336 256.744 214.54 256.744 214.752Z" fill="#263238"/>
<path d="M260.648 214.12L260.56 218.912L257.72 218.288L260.648 214.12Z" fill="#F28F8F"/>
<path d="M313.6 109.24L319.448 112.616C319.416 112.351 319.4 112.083 319.4 111.816V110.12C319.4 107.104 321.512 105.88 324.128 107.392C325.251 108.082 326.212 109.007 326.944 110.104C327.368 106.312 330.344 104.896 333.96 106.984C337.864 109.24 341.032 114.72 341.032 119.232V121.768C341.058 122.779 340.853 123.784 340.432 124.704L345.288 127.504C346.051 128.002 346.687 128.673 347.142 129.463C347.598 130.252 347.862 131.138 347.912 132.048C347.912 133.72 346.736 134.4 345.288 133.56L313.6 115.288C312.837 114.792 312.201 114.122 311.745 113.334C311.289 112.546 311.026 111.661 310.976 110.752C310.984 109.08 312.16 108.4 313.6 109.24Z" fill="#EBEBEB"/>
</svg>
