<svg width="118" height="56" viewBox="0 0 118 56" fill="none" xmlns="http://www.w3.org/2000/svg">
<path d="M97.4459 0.44228C95.1052 1.10154 92.9466 2.5699 90.7619 5.05711C89.1234 6.91502 88.5513 7.81401 87.563 10.2113C84.5461 17.3433 84.5461 26.4831 87.563 33.5252C88.5773 35.8626 89.1494 36.7915 90.892 38.7693C94.351 42.6949 97.1338 43.8636 102.361 43.6538C106.003 43.474 107.979 42.7548 110.606 40.6572C117.68 34.9336 120.151 21.0891 115.937 10.6608C113.831 5.47663 110.086 1.73083 105.69 0.412315C103.818 -0.157047 99.5006 -0.127079 97.4459 0.44228ZM102.595 6.37563C103.792 6.94499 104.52 7.90391 105.378 10.0016C106.601 12.9982 106.991 15.9349 106.991 21.8383C106.991 27.6218 106.601 30.5585 105.43 33.6151C103.506 38.5296 99.9167 38.7393 97.9661 34.0346C96.5877 30.6484 96.3796 29.1201 96.3796 21.8383C96.3796 15.6952 96.4316 14.8861 96.9778 12.6985C97.9141 8.9827 99.2145 6.82512 100.827 6.25576C101.243 6.13589 101.607 5.98606 101.659 5.98606C101.685 5.9561 102.127 6.13589 102.595 6.37563Z" fill="black"/>
<path d="M45.2734 21.8383V42.5151H50.475H55.6766V21.8383V1.16148H50.475H45.2734V21.8383Z" fill="black"/>
<path d="M60.6208 21.8383V42.5151H65.6924H70.7639V32.9259V23.3366H75.9655H81.193L81.115 20.3999L81.037 17.4932L75.9134 17.4033L70.7639 17.3433V13.7474V10.1514H76.4856C80.8809 10.1514 82.2073 10.0615 82.2073 9.76184C82.2073 9.58204 81.9473 7.54433 81.6352 5.26688L81.063 1.16148H70.8419H60.6208V21.8383Z" fill="black"/>
<path d="M8.88535 9.74669C3.86363 12.9349 -0.133243 15.6508 0.00340207 15.8083C0.481661 16.3593 17.8356 27.1836 18.2456 27.1836C18.4505 27.1836 22.0033 25.0581 26.1368 22.4603C30.2362 19.8624 33.6865 17.737 33.789 17.737C33.8573 17.737 33.9256 20.8465 33.9256 24.6251V31.5133H35.4629H37.0001L36.9318 23.5624L36.8293 15.5721L27.6058 9.78605C22.5499 6.59781 18.3139 3.99999 18.2114 3.99999C18.1089 3.99999 13.9412 6.59781 8.88535 9.74669Z" fill="#00B071"/>
<path d="M6.24756 28.1283V31.8283L12.26 35.5676L18.2382 39.3462L24.2164 35.5676L30.1605 31.8283V28.1283C30.1605 26.0816 30.0922 24.4284 29.9897 24.4284C29.8872 24.4284 27.2909 26.0029 24.2164 27.9709C21.1419 29.8996 18.4773 31.5134 18.2382 31.5134C18.0332 31.5134 15.3345 29.8996 12.26 27.9709C9.18543 26.0029 6.58917 24.4284 6.45253 24.4284C6.35004 24.4284 6.24756 26.0816 6.24756 28.1283Z" fill="#00B071"/>
<path d="M81.1889 46.7704C80.8508 47.3997 80.8508 47.4297 81.2669 47.0401C81.631 46.6805 81.7611 46.7105 82.2812 47.1899C82.7754 47.6994 82.7754 47.6694 82.2292 46.9202C81.8651 46.4707 81.579 46.1111 81.579 46.1111C81.553 46.1111 81.397 46.4108 81.1889 46.7704Z" fill="black"/>
<path d="M49.8012 48.5383C49.7231 48.7181 49.7491 48.9578 49.8792 49.0777C50.0092 49.1676 50.2693 49.8868 50.4253 50.636C50.5814 51.4151 50.7894 52.2541 50.8935 52.5238C51.0235 52.9134 50.8675 53.0033 49.9832 53.0033C49.385 53.0033 48.9169 52.9733 48.9169 52.9134C48.9169 52.8535 49.0989 52.1043 49.333 51.2353C50.0612 48.3285 49.5411 49.3774 48.6568 52.5538C48.1106 54.5016 47.6165 55.7302 47.3824 55.7902C47.1484 55.8801 47.4344 55.94 48.0066 55.97C48.6828 55.97 48.9169 55.91 48.6828 55.7302C48.4227 55.5504 48.3707 55.1609 48.5008 54.3818C48.6828 53.3329 48.7088 53.303 49.9312 53.303C51.1796 53.303 51.2056 53.303 51.3876 54.3818C51.4917 55.1609 51.4396 55.5504 51.2056 55.7302C50.9975 55.8801 51.3096 55.97 52.0378 55.97C52.688 55.94 53.0261 55.8801 52.766 55.7902C52.532 55.7302 52.2719 55.3107 52.1679 54.8612C51.6737 52.4639 50.4253 48.2087 50.2173 48.2087C50.0872 48.2087 49.9052 48.3585 49.8012 48.5383Z" fill="black"/>
<path d="M57.3141 48.5083C56.3518 48.9578 55.8317 50.2464 55.8057 52.1343C55.8057 54.8912 57.08 56.3296 59.1347 55.8801C60.0189 55.7003 60.097 55.5804 60.0709 54.7114C60.0449 54.0821 59.9929 53.9622 59.9149 54.3518C59.6288 55.6703 58.6145 56.0898 57.4962 55.4006C56.3258 54.6814 56.1958 50.5461 57.2881 49.1976C58.1984 48.0888 59.1867 48.2986 59.7588 49.707L60.0709 50.4562V49.6471C60.097 48.3885 58.7706 47.8491 57.3141 48.5083Z" fill="black"/>
<path d="M65.6157 48.5683C65.4856 48.7781 64.9915 50.3663 64.5233 52.1043C64.0552 53.8424 63.509 55.4306 63.275 55.6104C62.9369 55.94 63.0149 56 63.8991 55.97C64.4453 55.94 64.7054 55.8801 64.4713 55.7902C63.9251 55.6404 63.8991 55.4905 64.2893 54.2319C64.5493 53.3929 64.6794 53.303 65.6937 53.303C66.708 53.303 66.838 53.3929 67.0981 54.2319C67.4882 55.4905 67.4622 55.6404 66.9421 55.7902C66.682 55.8801 66.9681 55.94 67.5922 55.97C68.5545 56 68.6586 55.94 68.3465 55.5804C68.1644 55.3407 67.5922 53.6026 67.1241 51.6848C66.63 49.7669 66.1618 48.2087 66.0578 48.2087C65.9798 48.2087 65.7717 48.3885 65.6157 48.5683ZM66.1878 50.7259C66.76 52.9134 66.734 53.0033 65.6937 53.0033C65.1215 53.0033 64.7834 52.8535 64.7834 52.6138C64.7834 52.1043 65.5636 49.1077 65.6937 49.1077C65.7457 49.1077 65.9798 49.8269 66.1878 50.7259Z" fill="black"/>
<path d="M103.554 48.6283C102.618 49.2277 102.254 50.2765 102.228 52.3442C102.228 54.0522 102.306 54.3519 102.982 55.131C103.528 55.7603 103.996 56.0001 104.647 56.0001C105.999 56.0001 106.389 55.7304 106.389 54.8314V54.0522L106.051 54.8014C105.791 55.3708 105.531 55.5506 104.855 55.5506C103.554 55.5506 102.878 54.3819 102.878 52.1044C102.878 49.9169 103.528 48.7182 104.803 48.5684C105.505 48.4785 105.661 48.5984 105.999 49.4674C106.363 50.4563 106.363 50.4563 106.389 49.6472C106.389 48.3287 104.881 47.7593 103.554 48.6283Z" fill="black"/>
<path d="M111.152 48.5695C109.384 49.5584 109.331 54.6227 111.048 55.7015C111.698 56.091 112.791 56.091 113.441 55.7015C114.585 54.9823 115.131 51.686 114.403 49.858C113.857 48.4796 112.374 47.8802 111.152 48.5695ZM113.311 49.1388C113.675 49.5883 113.831 50.3375 113.883 51.8957C113.961 53.7537 113.909 54.1732 113.415 54.8624C112.713 55.9412 111.802 55.9412 111.1 54.9224C110.658 54.2931 110.554 53.6937 110.554 52.1055C110.554 50.5173 110.658 49.918 111.1 49.2887C111.75 48.3597 112.634 48.2698 113.311 49.1388Z" fill="black"/>
<path d="M72.0098 52.0745C72.0878 55.3108 72.0358 55.6704 71.6197 55.7903C71.3596 55.8802 71.8538 55.9401 72.712 55.9102C73.5703 55.9102 73.9344 55.8502 73.5443 55.7903L72.8161 55.6704L72.8941 52.0745C72.9721 48.6883 72.9461 48.5085 72.452 48.5085C71.9578 48.5085 71.9318 48.6883 72.0098 52.0745Z" fill="black"/>
<path d="M74.4814 48.7182C75.9899 49.1677 76.1199 54.8013 74.6115 55.4906C74.3774 55.6104 74.4034 55.6704 74.6895 55.6704C74.8976 55.7003 75.3657 55.3407 75.7298 54.9212C76.276 54.262 76.354 53.8724 76.354 52.0444C76.354 50.1266 76.302 49.8869 75.6258 49.2276C75.2357 48.838 74.6895 48.5384 74.4554 48.5384C74.0653 48.5683 74.0653 48.5983 74.4814 48.7182Z" fill="black"/>
<path d="M80.3262 51.8647C80.4042 54.8014 80.3522 55.2809 79.9621 55.6105C79.572 55.9401 79.8321 56.0001 81.6266 56.0001H83.7593L83.7332 55.0112L83.7072 54.0522L83.4212 54.8913C83.1611 55.6405 83.031 55.7304 82.0687 55.6405L81.0284 55.5506L80.9504 53.8125L80.8724 52.1044H81.7827C82.2768 52.1044 82.745 52.2842 82.797 52.464C82.875 52.6738 82.927 52.4341 82.927 51.9546C82.927 51.4452 82.875 51.2354 82.797 51.4152C82.745 51.625 82.2768 51.8048 81.7827 51.8048H80.8984V50.3064V48.8081H82.0427C83.031 48.8081 83.2131 48.898 83.3171 49.4674C83.4212 50.0667 83.4212 50.0367 83.4732 49.3176C83.4992 48.5085 83.4732 48.5085 81.8867 48.5085H80.2482L80.3262 51.8647Z" fill="black"/>
<path d="M87.3537 49.8868C87.4317 50.636 87.3797 52.2542 87.2756 53.4528C87.1456 55.1609 87.0156 55.7003 86.6775 55.7902C86.4434 55.8801 86.7035 55.94 87.2496 55.97C88.1079 56 88.2119 55.94 87.8998 55.6104C87.5877 55.3107 87.5617 54.6515 87.6658 52.1043C87.7438 50.3663 87.8998 49.1676 88.0039 49.4073C88.1079 49.6471 88.576 51.1754 89.0182 52.7636C89.4863 54.3818 89.9804 55.7003 90.1365 55.7003C90.3966 55.7303 91.1508 53.0333 90.9687 52.7936C90.8907 52.7336 90.7607 53.0632 90.6567 53.5727C90.5526 54.0821 90.3966 54.5016 90.3186 54.5016C90.2145 54.5016 89.7724 53.1831 89.3563 51.5649C88.6541 48.9878 88.498 48.6582 87.9258 48.5683C87.3016 48.4784 87.2756 48.5383 87.3537 49.8868Z" fill="black"/>
<path d="M91.7211 49.1677C91.487 50.2465 91.565 50.5162 91.8771 49.7071C92.1632 49.0179 92.1892 49.1078 92.3713 50.756C92.6573 53.7226 92.6313 55.6405 92.2932 55.7903C92.1112 55.8802 92.4753 55.9402 93.1255 55.9402C93.7757 55.9402 94.0878 55.8802 93.8537 55.7903C93.4116 55.6705 93.1515 53.9624 93.0475 50.2465C92.9954 48.6883 92.9434 48.5085 92.4493 48.5085C92.0852 48.5085 91.8251 48.7482 91.7211 49.1677Z" fill="black"/>
<path d="M97.5457 52.0745C97.5457 54.6516 97.4676 55.7004 97.2336 55.7903C97.0515 55.8802 97.4156 55.9402 98.0658 55.9402C98.716 55.9402 99.0281 55.8802 98.768 55.7903C98.3519 55.6705 98.2999 55.3109 98.3779 52.0745C98.4559 48.8381 98.4039 48.5085 98.0138 48.5085C97.5977 48.5085 97.5457 48.8681 97.5457 52.0745Z" fill="black"/>
<path d="M91.2032 51.3853C91.0991 51.8049 91.0731 52.2244 91.1251 52.3143C91.2032 52.3742 91.3332 52.0746 91.4112 51.6251C91.5152 51.2055 91.5413 50.786 91.4892 50.6961C91.4112 50.6362 91.2812 50.9358 91.2032 51.3853Z" fill="black"/>
</svg>
