<svg width="400" height="400" viewBox="0 0 400 400" fill="none" xmlns="http://www.w3.org/2000/svg">
<path d="M400 305.92H0V306.12H400V305.92Z" fill="#EBEBEB"/>
<path d="M189.6 270.24H35.128C33.9179 270.238 32.758 269.756 31.9031 268.899C31.0482 268.043 30.568 266.882 30.568 265.672V48.528C30.5785 47.3248 31.0633 46.1744 31.9171 45.3266C32.7709 44.4788 33.9248 44.0021 35.128 44H189.6C190.811 44 191.973 44.4813 192.83 45.3379C193.687 46.1946 194.168 47.3565 194.168 48.568V265.672C194.168 266.884 193.687 268.045 192.83 268.902C191.973 269.759 190.811 270.24 189.6 270.24ZM35.128 44.16C33.9709 44.1621 32.862 44.6233 32.0445 45.4422C31.2271 46.2611 30.768 47.3709 30.768 48.528V265.672C30.768 266.829 31.2271 267.939 32.0445 268.758C32.862 269.577 33.9709 270.038 35.128 270.04H189.6C190.758 270.038 191.868 269.577 192.686 268.758C193.505 267.94 193.966 266.83 193.968 265.672V48.528C193.966 47.3702 193.505 46.2604 192.686 45.4417C191.868 44.623 190.758 44.1621 189.6 44.16H35.128Z" fill="#EBEBEB"/>
<path d="M362.648 270.24H208.168C206.957 270.238 205.796 269.756 204.94 268.9C204.084 268.044 203.602 266.883 203.6 265.672V48.528C203.613 47.3241 204.099 46.1737 204.954 45.3261C205.809 44.4785 206.964 44.002 208.168 44H362.648C363.85 44.0042 365.002 44.4818 365.854 45.3294C366.706 46.177 367.189 47.3262 367.2 48.528V265.672C367.2 266.881 366.721 268.04 365.868 268.896C365.014 269.753 363.857 270.236 362.648 270.24ZM208.168 44.16C207.01 44.1621 205.9 44.623 205.082 45.4417C204.263 46.2604 203.802 47.3702 203.8 48.528V265.672C203.802 266.83 204.263 267.94 205.082 268.758C205.9 269.577 207.01 270.038 208.168 270.04H362.648C363.806 270.038 364.916 269.577 365.734 268.758C366.553 267.94 367.014 266.83 367.016 265.672V48.528C367.014 47.3702 366.553 46.2604 365.734 45.4417C364.916 44.623 363.806 44.1621 362.648 44.16H208.168Z" fill="#EBEBEB"/>
<path d="M68.536 318.792H41.968V318.992H68.536V318.792Z" fill="#EBEBEB"/>
<path d="M160.344 318H117.064V318.2H160.344V318Z" fill="#EBEBEB"/>
<path d="M84.6239 311.368H69.3359V311.568H84.6239V311.368Z" fill="#EBEBEB"/>
<path d="M359.92 312.712H348.096V312.912H359.92V312.712Z" fill="#EBEBEB"/>
<path d="M340.968 312.712H313.176V312.912H340.968V312.712Z" fill="#EBEBEB"/>
<path d="M250.224 316.088H213.864V316.288H250.224V316.088Z" fill="#EBEBEB"/>
<path d="M290.824 135.928H308.224L306.168 94.064H290.824V135.928Z" fill="#F5F5F5"/>
<path d="M333.48 139.992L338.4 155.336H333.48L303.296 139.992H333.48Z" fill="#F5F5F5"/>
<path d="M338.4 139.992V155.336L308.224 139.992H338.4Z" fill="#E6E6E6"/>
<path d="M255.296 139.992L260.216 155.336H255.296L225.12 139.992H255.296Z" fill="#F5F5F5"/>
<path d="M260.216 139.992V155.336L230.04 139.992H260.216Z" fill="#E6E6E6"/>
<path d="M347.208 136.008H327.736V140.616H347.208V136.008Z" fill="#E6E6E6"/>
<path d="M217.944 140.624H327.728V136.016H217.944V140.624Z" fill="#F5F5F5"/>
<path d="M270.048 135.928H302.608L307.232 85.192H274.664L270.048 135.928Z" fill="#E6E6E6"/>
<path d="M268.112 135.928H300.68L305.296 85.192H272.728L268.112 135.928Z" fill="#F0F0F0"/>
<path d="M297.544 130.312L301.76 90.808H275.864L271.64 130.312H297.544Z" fill="white"/>
<path d="M60.2481 199.104H172.008L172.008 69.64H60.2481L60.2481 199.104Z" fill="#E6E6E6"/>
<path d="M56.008 199.104H170.024L170.024 69.64H56.008L56.008 199.104Z" fill="#F0F0F0"/>
<path d="M60.2481 206.992H172.008V199.104H60.2481V206.992Z" fill="#E6E6E6"/>
<path d="M48.936 206.992H162.952V199.104H48.936V206.992Z" fill="#F0F0F0"/>
<path d="M164.08 193.16V75.584H61.944L61.944 193.16H164.08Z" fill="#FAFAFA"/>
<path d="M121.64 193.16L112.12 75.584H95.6641L105.176 193.16H121.64Z" fill="white"/>
<path d="M133.48 193.16L123.968 75.584H107.504L117.016 193.16H133.48Z" fill="white"/>
<path d="M161.328 140.896C161.449 140.896 161.565 140.848 161.65 140.762C161.736 140.677 161.784 140.561 161.784 140.44V79.448C161.784 79.3271 161.736 79.2111 161.65 79.1256C161.565 79.0401 161.449 78.992 161.328 78.992C161.208 78.9941 161.093 79.0428 161.008 79.1278C160.923 79.2129 160.874 79.3277 160.872 79.448V140.44C160.874 140.56 160.923 140.675 161.008 140.76C161.093 140.845 161.208 140.894 161.328 140.896Z" fill="#F0F0F0"/>
<path d="M101.64 193.16L92.12 75.584H85.704L95.224 193.16H101.64Z" fill="white"/>
<path d="M62.704 193.16L62.704 75.584H61.952L61.952 193.16H62.704Z" fill="#E6E6E6"/>
<path opacity="0.5" d="M54.6 86.352H166.36L166.904 77.888H55.144L54.6 86.352Z" fill="#E0E0E0"/>
<path opacity="0.5" d="M54.6 100.272H166.36L166.904 91.808H55.144L54.6 100.272Z" fill="#E0E0E0"/>
<path opacity="0.5" d="M54.6 114.184H166.36L166.904 105.72H55.144L54.6 114.184Z" fill="#E0E0E0"/>
<path opacity="0.5" d="M54.6 128.096H166.36L166.904 119.632H55.144L54.6 128.096Z" fill="#E0E0E0"/>
<path opacity="0.5" d="M54.6 142.008H166.36L166.904 133.544H55.144L54.6 142.008Z" fill="#E0E0E0"/>
<path opacity="0.5" d="M54.6 155.92H166.36L166.904 147.456H55.144L54.6 155.92Z" fill="#E0E0E0"/>
<path d="M327.064 300.072H350.296V196.528H327.064V300.072Z" fill="#F0F0F0"/>
<path d="M231.28 305.92H345.84V300.08H231.28V305.92Z" fill="#F0F0F0"/>
<path d="M327.072 196.536H226.824V300.08H327.072V196.536Z" fill="#F5F5F5"/>
<path d="M317.936 234.104H235.952V258.824H317.936V234.104Z" fill="#F0F0F0"/>
<path d="M317.936 264.336H235.952V289.056H317.936V264.336Z" fill="#F0F0F0"/>
<path d="M267.432 237.408H286.448C287.53 237.408 288.408 236.53 288.408 235.448V235.224C288.408 234.142 287.53 233.264 286.448 233.264H267.432C266.349 233.264 265.472 234.142 265.472 235.224V235.448C265.472 236.53 266.349 237.408 267.432 237.408Z" fill="#F5F5F5"/>
<path d="M317.936 203.872H235.952V228.592H317.936V203.872Z" fill="#F0F0F0"/>
<path d="M267.432 207.176H286.448C287.53 207.176 288.408 206.299 288.408 205.216V204.992C288.408 203.91 287.53 203.032 286.448 203.032H267.432C266.349 203.032 265.472 203.91 265.472 204.992V205.216C265.472 206.299 266.349 207.176 267.432 207.176Z" fill="#F5F5F5"/>
<path d="M267.432 267.64H286.448C287.53 267.64 288.408 266.763 288.408 265.68V265.456C288.408 264.374 287.53 263.496 286.448 263.496H267.432C266.349 263.496 265.472 264.374 265.472 265.456V265.68C265.472 266.763 266.349 267.64 267.432 267.64Z" fill="#F5F5F5"/>
<path d="M223.72 196.536H327.064V192.672H223.72V196.536Z" fill="#F0F0F0"/>
<path d="M353.552 192.664H327.072V196.528H353.552V192.664Z" fill="#E6E6E6"/>
<path d="M152.432 245.12H140.112V305.92H152.432V245.12Z" fill="#F0F0F0"/>
<path d="M62.5601 305.92H140.112V245.12H62.5601L62.5601 305.92Z" fill="#F5F5F5"/>
<path d="M62.296 297.6H115.928V280.904H62.296V297.6Z" fill="#FAFAFA"/>
<path d="M62.296 275.52H115.928V258.824H62.296V275.52Z" fill="#FAFAFA"/>
<g style="mix-blend-mode:multiply" opacity="0.7">
<path d="M152.432 249.12H62.296V251.264H152.432V249.12Z" fill="#E6E6E6"/>
</g>
<path d="M153.872 243.824H140.112V250.024H153.872V243.824Z" fill="#F0F0F0"/>
<path d="M61.136 250.024H140.12V243.824H61.136V250.024Z" fill="#F5F5F5"/>
<path d="M200 342.048C285.666 342.048 355.112 337.994 355.112 332.992C355.112 327.991 285.666 323.936 200 323.936C114.334 323.936 44.8879 327.991 44.8879 332.992C44.8879 337.994 114.334 342.048 200 342.048Z" fill="#F5F5F5"/>
<path d="M292.44 177.064C292.656 175.349 292.501 173.608 291.984 171.958C291.467 170.309 290.602 168.79 289.446 167.505C288.29 166.22 286.871 165.199 285.285 164.512C283.699 163.824 281.984 163.486 280.256 163.52H330.144C331.873 163.485 333.589 163.822 335.175 164.509C336.762 165.196 338.182 166.217 339.339 167.502C340.496 168.787 341.362 170.307 341.88 171.957C342.397 173.606 342.552 175.348 342.336 177.064H292.44Z" fill="#00B071"/>
<path opacity="0.2" d="M292.44 177.064C292.656 175.349 292.501 173.608 291.984 171.958C291.467 170.309 290.602 168.79 289.446 167.505C288.29 166.22 286.871 165.199 285.285 164.512C283.699 163.824 281.984 163.486 280.256 163.52H330.144C331.873 163.485 333.589 163.822 335.175 164.509C336.762 165.196 338.182 166.217 339.339 167.502C340.496 168.787 341.362 170.307 341.88 171.957C342.397 173.606 342.552 175.348 342.336 177.064H292.44Z" fill="black"/>
<path d="M280.256 163.52H330.144C326.445 163.598 322.899 165.012 320.162 167.502C317.425 169.992 315.682 173.389 315.256 177.064L310.936 220.328C310.509 224.003 308.766 227.398 306.029 229.887C303.292 232.375 299.746 233.788 296.048 233.864H273.232C271.503 233.905 269.785 233.571 268.197 232.886C266.609 232.201 265.187 231.181 264.03 229.896C262.873 228.61 262.007 227.089 261.492 225.438C260.978 223.787 260.826 222.043 261.048 220.328L265.36 177.064C265.788 173.388 267.533 169.991 270.271 167.502C273.009 165.012 276.556 163.598 280.256 163.52Z" fill="#00B071"/>
<path d="M283.864 220.328C283.642 222.043 283.794 223.787 284.308 225.438C284.823 227.089 285.689 228.61 286.846 229.896C288.003 231.181 289.424 232.201 291.013 232.886C292.601 233.571 294.319 233.905 296.048 233.864H246.152C244.423 233.905 242.705 233.571 241.117 232.886C239.528 232.201 238.107 231.181 236.95 229.896C235.793 228.61 234.927 227.089 234.412 225.438C233.898 223.787 233.746 222.043 233.968 220.328H283.864Z" fill="#00B071"/>
<path opacity="0.2" d="M283.864 220.328C283.642 222.043 283.794 223.787 284.308 225.438C284.823 227.089 285.689 228.61 286.846 229.896C288.003 231.181 289.424 232.201 291.013 232.886C292.601 233.571 294.319 233.905 296.048 233.864H246.152C244.423 233.905 242.705 233.571 241.117 232.886C239.528 232.201 238.107 231.181 236.95 229.896C235.793 228.61 234.927 227.089 234.412 225.438C233.898 223.787 233.746 222.043 233.968 220.328H283.864Z" fill="black"/>
<path d="M271.912 192.264H305.672C305.962 192.256 306.24 192.145 306.454 191.949C306.668 191.754 306.805 191.488 306.84 191.2V191.088C306.856 190.953 306.843 190.817 306.802 190.687C306.761 190.558 306.692 190.439 306.601 190.338C306.51 190.237 306.399 190.157 306.275 190.103C306.15 190.049 306.016 190.022 305.88 190.024H272.128C271.839 190.032 271.562 190.144 271.349 190.339C271.136 190.535 271.001 190.801 270.968 191.088V191.2C270.952 191.333 270.965 191.469 271.005 191.597C271.045 191.725 271.112 191.843 271.201 191.944C271.29 192.044 271.4 192.125 271.522 192.18C271.645 192.235 271.778 192.264 271.912 192.264Z" fill="white"/>
<path d="M271.2 199.248H304.968C305.258 199.24 305.536 199.129 305.75 198.933C305.964 198.738 306.101 198.472 306.136 198.184V198.072C306.152 197.937 306.139 197.801 306.098 197.671C306.057 197.542 305.988 197.423 305.897 197.322C305.806 197.221 305.695 197.141 305.571 197.087C305.446 197.033 305.312 197.006 305.176 197.008H271.432C271.142 197.016 270.864 197.127 270.65 197.323C270.435 197.518 270.298 197.784 270.264 198.072V198.184C270.247 198.317 270.258 198.452 270.298 198.58C270.337 198.709 270.403 198.827 270.491 198.928C270.58 199.028 270.689 199.109 270.811 199.164C270.933 199.219 271.066 199.248 271.2 199.248Z" fill="white"/>
<path d="M270.512 206.232H304.28C304.569 206.225 304.845 206.114 305.06 205.92C305.274 205.727 305.412 205.463 305.448 205.176V205.056C305.465 204.922 305.453 204.785 305.413 204.656C305.373 204.527 305.305 204.407 305.215 204.306C305.125 204.205 305.014 204.125 304.89 204.071C304.766 204.017 304.631 203.99 304.496 203.992H270.736C270.446 204 270.168 204.111 269.954 204.307C269.739 204.502 269.602 204.768 269.568 205.056V205.176C269.552 205.309 269.565 205.444 269.605 205.572C269.645 205.7 269.712 205.817 269.801 205.917C269.891 206.017 270 206.097 270.123 206.151C270.245 206.205 270.378 206.233 270.512 206.232Z" fill="white"/>
<path d="M277.6 213.216H303.56C303.849 213.21 304.127 213.1 304.341 212.906C304.556 212.712 304.693 212.447 304.728 212.16V212.04C304.745 211.906 304.733 211.77 304.693 211.641C304.653 211.512 304.585 211.393 304.495 211.293C304.404 211.193 304.293 211.113 304.169 211.06C304.045 211.006 303.911 210.981 303.776 210.984H277.848C277.559 210.99 277.281 211.1 277.067 211.294C276.852 211.488 276.715 211.753 276.68 212.04V212.16C276.663 212.291 276.674 212.425 276.712 212.551C276.751 212.678 276.816 212.795 276.903 212.895C276.989 212.995 277.097 213.075 277.217 213.13C277.337 213.186 277.468 213.215 277.6 213.216Z" fill="white"/>
<path d="M273.304 178.296H307.072C307.362 178.288 307.64 178.177 307.854 177.981C308.069 177.786 308.206 177.52 308.24 177.232V177.112C308.256 176.978 308.243 176.843 308.202 176.714C308.162 176.586 308.094 176.468 308.004 176.368C307.914 176.268 307.803 176.188 307.68 176.134C307.556 176.081 307.423 176.054 307.288 176.056H273.528C273.239 176.063 272.963 176.174 272.748 176.368C272.534 176.561 272.396 176.825 272.36 177.112V177.232C272.344 177.365 272.357 177.501 272.397 177.629C272.437 177.757 272.504 177.875 272.593 177.976C272.682 178.076 272.792 178.157 272.914 178.212C273.037 178.267 273.17 178.296 273.304 178.296Z" fill="white"/>
<path d="M272.608 185.28H306.4C306.689 185.272 306.966 185.16 307.179 184.965C307.392 184.769 307.527 184.503 307.56 184.216V184.104C307.576 183.97 307.563 183.834 307.522 183.705C307.482 183.576 307.414 183.458 307.324 183.357C307.234 183.257 307.124 183.176 307 183.122C306.877 183.067 306.743 183.039 306.608 183.04H272.8C272.51 183.048 272.232 183.159 272.018 183.355C271.803 183.55 271.666 183.816 271.632 184.104V184.216C271.616 184.352 271.629 184.49 271.671 184.621C271.713 184.751 271.783 184.871 271.876 184.972C271.968 185.073 272.082 185.153 272.208 185.206C272.335 185.259 272.471 185.284 272.608 185.28Z" fill="white"/>
<path d="M168.744 164.912L165.696 195.44C165.614 196.016 165.659 196.602 165.828 197.159C165.996 197.715 166.283 198.229 166.67 198.663C167.057 199.097 167.534 199.441 168.068 199.672C168.601 199.903 169.179 200.015 169.76 200H239.248C240.481 199.97 241.662 199.497 242.575 198.667C243.487 197.836 244.07 196.705 244.216 195.48L247.264 164.952C247.323 164.384 247.266 163.809 247.096 163.264C246.842 162.432 246.323 161.705 245.619 161.193C244.914 160.682 244.062 160.415 243.192 160.432H173.712C172.781 160.454 171.873 160.728 171.085 161.225C170.298 161.723 169.66 162.425 169.24 163.256C168.976 163.773 168.808 164.335 168.744 164.912Z" fill="#00B071"/>
<path opacity="0.3" d="M169.24 163.2L201.496 187.344C202.747 188.216 204.235 188.684 205.76 188.684C207.285 188.684 208.773 188.216 210.024 187.344L247.096 163.2C246.842 162.367 246.323 161.641 245.619 161.129C244.914 160.618 244.062 160.351 243.192 160.368H173.712C172.78 160.39 171.871 160.666 171.084 161.165C170.296 161.663 169.659 162.367 169.24 163.2Z" fill="black"/>
<path d="M184.496 167.712H221.856C223.499 167.675 225.073 167.046 226.288 165.941C227.504 164.835 228.28 163.328 228.472 161.696L233.872 107.648C233.965 106.887 233.893 106.114 233.662 105.383C233.431 104.651 233.046 103.978 232.533 103.408C232.02 102.838 231.39 102.384 230.687 102.078C229.984 101.772 229.223 101.62 228.456 101.632H191.096C189.453 101.669 187.879 102.298 186.664 103.403C185.448 104.509 184.672 106.016 184.48 107.648L179.088 161.696C178.993 162.457 179.062 163.23 179.292 163.962C179.521 164.694 179.905 165.368 180.418 165.939C180.931 166.509 181.561 166.963 182.264 167.269C182.968 167.575 183.729 167.726 184.496 167.712Z" fill="#00B071"/>
<path opacity="0.5" d="M184.496 167.712H221.856C223.499 167.675 225.073 167.046 226.288 165.941C227.504 164.835 228.28 163.328 228.472 161.696L233.872 107.648C233.965 106.887 233.893 106.114 233.662 105.383C233.431 104.651 233.046 103.978 232.533 103.408C232.02 102.838 231.39 102.384 230.687 102.078C229.984 101.772 229.223 101.62 228.456 101.632H191.096C189.453 101.669 187.879 102.298 186.664 103.403C185.448 104.509 184.672 106.016 184.48 107.648L179.088 161.696C178.993 162.457 179.062 163.23 179.292 163.962C179.521 164.694 179.905 165.368 180.418 165.939C180.931 166.509 181.561 166.963 182.264 167.269C182.968 167.575 183.729 167.726 184.496 167.712Z" fill="white"/>
<path d="M190.896 130.704H222.856C223.224 130.695 223.577 130.553 223.849 130.305C224.121 130.056 224.294 129.718 224.336 129.352C224.358 129.181 224.343 129.007 224.291 128.842C224.24 128.677 224.153 128.526 224.038 128.397C223.922 128.269 223.781 128.167 223.622 128.098C223.464 128.03 223.293 127.996 223.12 128H191.2C190.832 128.007 190.478 128.147 190.205 128.394C189.931 128.641 189.756 128.978 189.712 129.344C189.691 129.513 189.705 129.684 189.755 129.847C189.804 130.01 189.887 130.161 189.999 130.289C190.111 130.418 190.249 130.521 190.403 130.593C190.558 130.664 190.726 130.702 190.896 130.704Z" fill="white"/>
<path d="M190.056 139.128H222.016C222.384 139.119 222.737 138.977 223.009 138.729C223.281 138.48 223.454 138.142 223.496 137.776C223.517 137.605 223.5 137.432 223.448 137.269C223.396 137.105 223.31 136.954 223.194 136.827C223.079 136.699 222.938 136.598 222.78 136.53C222.622 136.462 222.452 136.428 222.28 136.432H190.28C189.912 136.439 189.56 136.579 189.288 136.826C189.016 137.074 188.842 137.411 188.8 137.776C188.779 137.95 188.796 138.127 188.85 138.294C188.904 138.462 188.995 138.615 189.114 138.744C189.234 138.872 189.38 138.973 189.543 139.04C189.705 139.106 189.88 139.136 190.056 139.128Z" fill="white"/>
<path d="M221.304 144.848H189.352C188.605 144.848 188 145.452 188 146.196C188 146.941 188.605 147.544 189.352 147.544H221.304C222.051 147.544 222.656 146.941 222.656 146.196C222.656 145.452 222.051 144.848 221.304 144.848Z" fill="white"/>
<path d="M195.912 156H220.328C220.698 155.993 221.052 155.852 221.326 155.603C221.599 155.355 221.773 155.015 221.816 154.648C221.837 154.477 221.82 154.304 221.768 154.139C221.716 153.975 221.63 153.824 221.515 153.696C221.4 153.568 221.258 153.466 221.101 153.397C220.943 153.328 220.772 153.294 220.6 153.296H196.184C195.814 153.303 195.46 153.444 195.186 153.693C194.913 153.941 194.739 154.281 194.696 154.648C194.675 154.819 194.692 154.992 194.744 155.157C194.796 155.321 194.882 155.472 194.997 155.6C195.112 155.728 195.254 155.83 195.411 155.899C195.569 155.968 195.74 156.002 195.912 156Z" fill="white"/>
<path d="M192.576 113.856H224.576C224.944 113.847 225.297 113.705 225.569 113.457C225.841 113.208 226.014 112.87 226.056 112.504C226.071 112.333 226.049 112.161 225.992 111.999C225.935 111.837 225.844 111.69 225.725 111.566C225.606 111.442 225.462 111.346 225.302 111.283C225.143 111.22 224.971 111.191 224.8 111.2H192.848C192.48 111.209 192.127 111.349 191.854 111.596C191.581 111.842 191.406 112.179 191.36 112.544C191.345 112.712 191.366 112.881 191.421 113.04C191.476 113.2 191.563 113.346 191.677 113.469C191.792 113.593 191.931 113.691 192.086 113.758C192.241 113.824 192.408 113.858 192.576 113.856Z" fill="white"/>
<path d="M191.736 122.28H223.736C224.104 122.271 224.457 122.129 224.729 121.881C225.001 121.632 225.174 121.294 225.216 120.928C225.237 120.757 225.22 120.584 225.168 120.421C225.116 120.257 225.03 120.106 224.914 119.979C224.799 119.851 224.658 119.75 224.5 119.682C224.342 119.614 224.172 119.58 224 119.584H192C191.632 119.591 191.278 119.731 191.005 119.978C190.731 120.225 190.556 120.562 190.512 120.928C190.491 121.1 190.508 121.274 190.56 121.438C190.613 121.603 190.7 121.755 190.816 121.883C190.932 122.011 191.074 122.113 191.233 122.181C191.391 122.25 191.563 122.284 191.736 122.28Z" fill="white"/>
<path d="M213.752 253.536L215.776 233.28C215.848 232.683 215.791 232.077 215.61 231.504C215.428 230.93 215.126 230.402 214.724 229.955C214.322 229.508 213.828 229.152 213.277 228.912C212.726 228.671 212.129 228.551 211.528 228.56H169.128C167.839 228.59 166.604 229.083 165.651 229.95C164.697 230.818 164.088 232 163.936 233.28L161.912 253.536C161.839 254.133 161.894 254.74 162.075 255.314C162.256 255.888 162.558 256.416 162.961 256.864C163.363 257.311 163.857 257.667 164.409 257.907C164.961 258.147 165.558 258.266 166.16 258.256H208.56C209.849 258.228 211.085 257.735 212.039 256.868C212.993 256 213.602 254.817 213.752 253.536Z" fill="#00B071"/>
<path d="M188.384 247.88C188.568 247.88 188.749 247.828 188.904 247.728L212.104 233.936C212.326 233.814 212.492 233.612 212.571 233.371C212.65 233.131 212.634 232.87 212.528 232.64C212.467 232.534 212.384 232.442 212.286 232.369C212.187 232.296 212.075 232.245 211.956 232.217C211.837 232.189 211.713 232.186 211.593 232.208C211.472 232.23 211.358 232.276 211.256 232.344L188.624 245.824L168.68 232.344C168.463 232.215 168.204 232.173 167.957 232.228C167.71 232.283 167.494 232.431 167.352 232.64C167.274 232.735 167.217 232.844 167.183 232.962C167.149 233.08 167.14 233.203 167.155 233.324C167.171 233.446 167.212 233.563 167.274 233.668C167.337 233.773 167.421 233.864 167.52 233.936L187.928 247.728C188.061 247.824 188.22 247.877 188.384 247.88Z" fill="white"/>
<path d="M320.856 127.4L323.432 101.6C323.525 100.839 323.453 100.066 323.222 99.3347C322.991 98.6032 322.606 97.9298 322.093 97.3597C321.579 96.7896 320.95 96.3362 320.247 96.0299C319.544 95.7236 318.783 95.5715 318.016 95.584H264C262.358 95.6242 260.786 96.2545 259.571 97.3593C258.356 98.4641 257.58 99.9695 257.384 101.6L254.808 127.408C254.715 128.169 254.787 128.942 255.018 129.673C255.249 130.405 255.634 131.078 256.147 131.648C256.66 132.218 257.29 132.672 257.993 132.978C258.696 133.284 259.457 133.437 260.224 133.424H314.24C315.883 133.384 317.456 132.752 318.671 131.646C319.886 130.539 320.662 129.032 320.856 127.4Z" fill="#00B071"/>
<path opacity="0.5" d="M320.856 127.4L323.432 101.6C323.525 100.839 323.453 100.066 323.222 99.3347C322.991 98.6032 322.606 97.9298 322.093 97.3597C321.579 96.7896 320.95 96.3362 320.247 96.0299C319.544 95.7236 318.783 95.5715 318.016 95.584H264C262.358 95.6242 260.786 96.2545 259.571 97.3593C258.356 98.4641 257.58 99.9695 257.384 101.6L254.808 127.408C254.715 128.169 254.787 128.942 255.018 129.673C255.249 130.405 255.634 131.078 256.147 131.648C256.66 132.218 257.29 132.672 257.993 132.978C258.696 133.284 259.457 133.437 260.224 133.424H314.24C315.883 133.384 317.456 132.752 318.671 131.646C319.886 130.539 320.662 129.032 320.856 127.4Z" fill="black"/>
<path d="M288.528 120.192C288.763 120.191 288.993 120.124 289.192 120L318.712 102.4C318.993 102.244 319.205 101.987 319.304 101.681C319.403 101.376 319.383 101.044 319.248 100.752C319.169 100.62 319.065 100.506 318.941 100.415C318.818 100.325 318.677 100.26 318.528 100.225C318.378 100.19 318.224 100.185 318.072 100.211C317.921 100.237 317.777 100.293 317.648 100.376L288.8 117.6L263.384 100.4C263.109 100.234 262.781 100.179 262.467 100.248C262.153 100.316 261.877 100.502 261.696 100.768C261.596 100.888 261.522 101.028 261.478 101.178C261.434 101.328 261.422 101.486 261.441 101.641C261.461 101.796 261.512 101.946 261.591 102.08C261.671 102.215 261.777 102.332 261.904 102.424L287.904 120.024C288.091 120.141 288.308 120.2 288.528 120.192Z" fill="white"/>
<path d="M116.96 126.872C114.944 130.416 112.912 134.072 110.96 137.712C109.008 141.352 107.112 145.008 105.432 148.672C105.032 149.576 104.632 150.496 104.24 151.4L103.968 152.08L103.824 152.416C103.888 152.091 103.888 151.757 103.824 151.432C103.678 150.81 103.34 150.25 102.856 149.832C102.629 149.625 102.354 149.48 102.056 149.408C101.952 149.408 101.984 149.408 102.056 149.408C102.341 149.48 102.634 149.515 102.928 149.512C103.813 149.51 104.698 149.454 105.576 149.344C109.392 148.864 113.536 147.944 117.576 147.096L119.24 151.384C115.385 153.55 111.301 155.281 107.064 156.544C105.884 156.893 104.677 157.144 103.456 157.296C102.697 157.391 101.931 157.416 101.168 157.368C100.643 157.324 100.123 157.23 99.616 157.088C98.8146 156.865 98.0719 156.469 97.44 155.928C96.5502 155.16 95.9398 154.119 95.704 152.968C95.5411 152.123 95.5575 151.254 95.752 150.416L95.864 149.976L95.928 149.76V149.664L96.056 149.256L96.32 148.456C96.664 147.36 97.064 146.344 97.44 145.296C99.04 141.184 100.84 137.256 102.768 133.408C104.696 129.56 106.768 125.84 109.008 122.104L116.96 126.872Z" fill="#FFC3BD"/>
<path d="M140.608 99.544C140.48 100.024 140.608 100.48 140.952 100.56C141.296 100.64 141.616 100.312 141.752 99.832C141.888 99.352 141.752 98.904 141.408 98.824C141.064 98.744 140.728 99.064 140.608 99.544Z" fill="#263238"/>
<path d="M140.592 100.464C140.794 102.073 141.214 103.648 141.84 105.144C141.453 105.296 141.038 105.362 140.623 105.335C140.208 105.309 139.804 105.192 139.44 104.992L140.592 100.464Z" fill="#ED847E"/>
<path d="M139.528 96.44C139.495 96.4242 139.465 96.4019 139.44 96.3744C139.415 96.3469 139.396 96.3149 139.384 96.28C139.37 96.2448 139.362 96.2072 139.363 96.1692C139.363 96.1312 139.371 96.0937 139.386 96.0587C139.401 96.0238 139.422 95.9921 139.449 95.9656C139.477 95.939 139.509 95.9181 139.544 95.904C139.97 95.7262 140.433 95.6523 140.893 95.6885C141.354 95.7247 141.799 95.8698 142.192 96.112C142.254 96.1583 142.295 96.2268 142.307 96.303C142.319 96.3792 142.301 96.4571 142.256 96.52C142.211 96.5812 142.144 96.6222 142.069 96.6342C141.994 96.6462 141.918 96.6282 141.856 96.584C141.542 96.3975 141.189 96.2879 140.824 96.2642C140.46 96.2406 140.095 96.3036 139.76 96.448C139.723 96.4628 139.683 96.4698 139.643 96.4684C139.603 96.467 139.564 96.4574 139.528 96.44Z" fill="#263238"/>
<path d="M125.864 102.128C124.608 106.688 125.152 113.104 121.424 116.096C121.424 116.096 121.76 120.648 130.088 120.648C139.256 120.648 135.368 116.096 135.368 116.096C130.568 114.904 131.456 111.192 133.016 107.704L125.864 102.128Z" fill="#FFC3BD"/>
<path d="M121.096 117.104C120.432 116.224 119.704 115.224 121.216 114.912C122.872 114.56 131.944 114.208 135.072 114.856C138.2 115.504 137.32 117.256 137.32 117.256L121.096 117.104Z" fill="#263238"/>
<path d="M94.512 324.04C94.7593 324.129 95.0217 324.167 95.284 324.153C95.5463 324.14 95.8033 324.074 96.04 323.96C96.1309 323.877 96.1937 323.768 96.2195 323.647C96.2453 323.527 96.2329 323.401 96.184 323.288C96.157 323.193 96.1093 323.105 96.0443 323.03C95.9793 322.955 95.8986 322.896 95.808 322.856C95.008 322.464 93.08 323.24 93 323.272C92.9741 323.283 92.9517 323.301 92.9348 323.323C92.918 323.346 92.9073 323.372 92.904 323.4C92.9033 323.429 92.9113 323.457 92.927 323.482C92.9427 323.506 92.9654 323.525 92.992 323.536C93.4794 323.757 93.9889 323.926 94.512 324.04ZM95.512 323.064L95.68 323.12C95.7336 323.142 95.7816 323.175 95.8204 323.218C95.8592 323.261 95.8877 323.313 95.904 323.368C95.984 323.632 95.904 323.712 95.856 323.736C95.52 324.016 94.296 323.736 93.456 323.416C94.1063 323.146 94.8089 323.026 95.512 323.064Z" fill="#00B071"/>
<path d="M93.024 323.544H93.096C93.784 323.344 95.272 322.288 95.288 321.592C95.2892 321.483 95.2534 321.377 95.1866 321.292C95.1197 321.206 95.0257 321.145 94.92 321.12C94.8141 321.083 94.7017 321.069 94.59 321.079C94.4784 321.089 94.37 321.122 94.272 321.176C93.472 321.592 92.936 323.288 92.912 323.36C92.8985 323.382 92.8914 323.407 92.8914 323.432C92.8914 323.457 92.8985 323.482 92.912 323.504C92.9223 323.523 92.9395 323.538 92.9602 323.546C92.9809 323.553 93.0037 323.553 93.024 323.544ZM94.76 321.376H94.824C95 321.432 95 321.52 95 321.56C95 321.976 94.008 322.8 93.288 323.16C93.4807 322.485 93.8707 321.883 94.408 321.432C94.5146 321.371 94.6397 321.351 94.76 321.376Z" fill="#00B071"/>
<path d="M138.656 327.048C139.456 327.048 140.208 326.936 140.464 326.584C140.53 326.492 140.565 326.381 140.565 326.268C140.565 326.155 140.53 326.044 140.464 325.952C140.415 325.864 140.349 325.788 140.269 325.727C140.189 325.666 140.098 325.623 140 325.6C138.976 325.32 136.8 326.544 136.744 326.6C136.718 326.613 136.697 326.634 136.684 326.66C136.671 326.686 136.667 326.715 136.672 326.744C136.675 326.774 136.688 326.801 136.708 326.823C136.728 326.845 136.755 326.859 136.784 326.864C137.401 326.981 138.028 327.043 138.656 327.048ZM139.632 325.856C139.725 325.843 139.819 325.843 139.912 325.856C139.971 325.87 140.027 325.896 140.077 325.931C140.126 325.967 140.168 326.012 140.2 326.064C140.296 326.24 140.264 326.328 140.2 326.384C139.912 326.776 138.368 326.784 137.224 326.624C137.97 326.216 138.787 325.955 139.632 325.856Z" fill="#00B071"/>
<path d="M136.8 326.88H136.856C137.6 326.544 139.064 325.224 138.952 324.528C138.952 324.368 138.808 324.16 138.408 324.12C138.265 324.105 138.12 324.119 137.982 324.161C137.845 324.204 137.717 324.274 137.608 324.368C136.808 325.008 136.664 326.664 136.656 326.768C136.653 326.792 136.656 326.817 136.666 326.84C136.676 326.862 136.692 326.882 136.712 326.896C136.742 326.899 136.773 326.893 136.8 326.88ZM138.296 324.392H138.4C138.656 324.392 138.68 324.528 138.68 324.56C138.752 324.976 137.752 326.016 137 326.472C137.066 325.773 137.345 325.111 137.8 324.576C137.942 324.459 138.12 324.394 138.304 324.392H138.296Z" fill="#00B071"/>
<path d="M130.064 326.728H136.2L136.808 312.536H130.68L130.064 326.728Z" fill="#FFC3BD"/>
<path d="M86.184 321.92L92.176 323.216L98.2 309.992L92.2 308.696L86.184 321.92Z" fill="#FFC3BD"/>
<path d="M92.752 322.616L86.024 321.16C85.9051 321.131 85.7798 321.145 85.6701 321.199C85.5603 321.253 85.4732 321.344 85.424 321.456L83.088 326.528C83.0325 326.652 83.0056 326.787 83.0094 326.922C83.0131 327.058 83.0474 327.191 83.1097 327.312C83.1719 327.433 83.2605 327.538 83.369 327.619C83.4774 327.701 83.6028 327.757 83.736 327.784C86.136 328.248 87.264 328.36 90.224 329C92.048 329.392 96.16 330.392 98.672 330.936C101.184 331.48 102.056 329.072 101.072 328.624C96.68 326.608 94.84 324.84 93.648 323.192C93.4317 322.895 93.1121 322.689 92.752 322.616Z" fill="#263238"/>
<path d="M136.16 326.024H129.464C129.342 326.023 129.223 326.063 129.127 326.139C129.031 326.215 128.963 326.321 128.936 326.44L127.728 331.888C127.698 332.019 127.698 332.156 127.728 332.287C127.758 332.419 127.818 332.542 127.903 332.647C127.988 332.751 128.095 332.836 128.217 332.893C128.34 332.95 128.473 332.978 128.608 332.976C131.008 332.936 134.512 332.8 137.552 332.8C141.096 332.8 144.168 332.992 148.328 332.992C150.848 332.992 151.528 330.448 150.488 330.216C145.688 329.168 141.776 329.056 137.632 326.496C137.194 326.207 136.685 326.043 136.16 326.024Z" fill="#263238"/>
<path d="M111.376 117.48C105.632 118.8 102.144 129.256 102.144 129.256L112 140.264C114.256 136.755 116.333 133.135 118.224 129.416C121.6 122.248 117.248 116.136 111.376 117.48Z" fill="#00B071"/>
<path opacity="0.3" d="M113.944 127.304C112.344 129.576 110.872 132.904 112.528 139.368C113.824 137.288 115.096 135.16 116.192 133.232C116.488 127.92 115.472 125.472 113.944 127.304Z" fill="black"/>
<path d="M147.2 121.52C148.672 127.12 150.144 140.6 146.072 170.784H113.272C113.048 165.752 116.208 141.184 111.352 117.48C114.977 116.782 118.643 116.32 122.328 116.096C126.972 115.828 131.628 115.828 136.272 116.096C138.371 116.298 140.457 116.618 142.52 117.056C143.64 117.287 144.672 117.828 145.5 118.617C146.327 119.406 146.916 120.412 147.2 121.52Z" fill="#00B071"/>
<path opacity="0.3" d="M147.424 122.4C142.008 117.44 138.008 117.2 136.92 122.648C134.64 134.064 148.072 146.36 148.464 146.712C149.16 133.808 148.344 126.456 147.424 122.4Z" fill="black"/>
<path d="M144 119.592C145.76 121.544 147.416 123.528 149.104 125.512C150.792 127.496 152.424 129.512 154.032 131.56C155.64 133.608 157.232 135.664 158.832 137.776C160.432 139.888 161.936 142.024 163.424 144.296L160.8 142.592C162.12 142.928 163.448 143.288 164.8 143.568C166.152 143.848 167.544 144.136 168.936 144.368C170.328 144.6 171.744 144.84 173.168 145.056C174.592 145.272 176.04 145.456 177.408 145.664L177.696 150.256C176.096 150.616 174.632 150.816 173.088 151.056C171.544 151.296 170.016 151.328 168.464 151.384C165.327 151.482 162.187 151.305 159.08 150.856L157.624 150.64L156.496 149.152C155.016 147.2 153.392 145.248 151.792 143.288L146.872 137.44L136.936 125.728L144 119.592Z" fill="#FFC3BD"/>
<path d="M197.104 106.352C193.132 105.445 188.966 105.997 185.366 107.906C181.767 109.815 178.973 112.955 177.496 116.752C174.624 124.488 178.744 132.392 186.696 134.4C190.668 135.307 194.834 134.755 198.434 132.846C202.033 130.937 204.827 127.797 206.304 124C207.014 122.246 207.335 120.358 207.244 118.468C207.154 116.578 206.654 114.73 205.779 113.052C204.904 111.374 203.675 109.906 202.178 108.749C200.68 107.592 198.949 106.774 197.104 106.352ZM187.504 132.16C185.952 131.804 184.495 131.115 183.234 130.141C181.974 129.167 180.94 127.931 180.204 126.519C179.468 125.107 179.047 123.551 178.97 121.96C178.893 120.369 179.163 118.781 179.76 117.304C181.008 114.112 183.361 111.475 186.39 109.871C189.419 108.268 192.923 107.806 196.264 108.568C197.816 108.925 199.272 109.615 200.531 110.589C201.791 111.563 202.824 112.799 203.559 114.211C204.294 115.624 204.715 117.179 204.791 118.769C204.867 120.36 204.597 121.948 204 123.424C202.751 126.61 200.402 129.243 197.379 130.845C194.355 132.448 190.858 132.914 187.52 132.16H187.504Z" fill="#263238"/>
<path opacity="0.3" d="M187.888 131.2C186.467 130.873 185.134 130.243 183.981 129.351C182.827 128.459 181.881 127.328 181.207 126.035C180.533 124.742 180.148 123.318 180.078 121.862C180.007 120.406 180.254 118.952 180.8 117.6C181.944 114.676 184.1 112.261 186.875 110.793C189.649 109.324 192.859 108.901 195.92 109.6C197.342 109.926 198.676 110.556 199.83 111.447C200.985 112.339 201.932 113.47 202.607 114.762C203.283 116.055 203.67 117.479 203.741 118.935C203.813 120.392 203.569 121.847 203.024 123.2C201.88 126.127 199.721 128.545 196.943 130.013C194.165 131.482 190.951 131.903 187.888 131.2Z" fill="#00B071"/>
<g opacity="0.5">
<path d="M195.912 109.552L195.704 109.504L180.864 117.352L180.8 117.6C179.922 119.863 179.86 122.36 180.624 124.664L201.8 113.464C200.354 111.513 198.271 110.129 195.912 109.552Z" fill="#FAFAFA"/>
<path d="M202.568 114.656L181.184 125.968C181.558 126.707 182.029 127.393 182.584 128.008L203.44 116.968C203.251 116.163 202.958 115.385 202.568 114.656Z" fill="#FAFAFA"/>
</g>
<path d="M187.504 135.928L184.976 135.288C184.887 135.267 184.803 135.227 184.731 135.171C184.659 135.114 184.599 135.043 184.557 134.962C184.514 134.881 184.49 134.792 184.485 134.7C184.48 134.609 184.495 134.517 184.528 134.432C184.595 134.245 184.73 134.089 184.906 133.996C185.082 133.903 185.287 133.878 185.48 133.928L188.008 134.568C188.097 134.589 188.181 134.629 188.253 134.685C188.325 134.742 188.385 134.813 188.427 134.894C188.469 134.975 188.494 135.064 188.499 135.156C188.504 135.247 188.489 135.339 188.456 135.424C188.389 135.611 188.254 135.767 188.077 135.86C187.901 135.953 187.697 135.978 187.504 135.928Z" fill="#263238"/>
<path d="M187.576 134.816C187.416 135.928 187.184 137.016 186.92 138.104C186.656 139.192 186.36 140.256 186.04 141.304C185.72 142.352 185.368 143.432 185 144.504C184.632 145.576 184.632 146.712 182.896 147.424C182.613 147.513 182.314 147.536 182.021 147.49C181.728 147.444 181.45 147.331 181.208 147.16C181.126 147.098 181.054 147.026 180.992 146.944C180.032 145.552 180.92 144.624 181.224 143.552C181.528 142.48 182.064 141.472 182.528 140.44C182.992 139.408 183.464 138.376 183.984 137.36C184.504 136.344 185.048 135.328 185.672 134.336C185.837 134.187 186.043 134.089 186.263 134.055C186.484 134.021 186.709 134.052 186.912 134.144C187.344 134.288 187.608 134.568 187.576 134.816Z" fill="#263238"/>
<path d="M176 150.4L180.512 150.8L179.6 143.776C179.6 143.776 176.136 143.84 174.408 146.248L176 150.4Z" fill="#FFC3BD"/>
<path d="M186.448 149.152L184.936 144.608L179.568 143.768L180.48 150.8L186.448 149.152Z" fill="#FFC3BD"/>
<path d="M136.184 122.264C133.824 130.4 146.216 141.6 146.216 141.6L157.344 130.704C157.344 130.704 153.672 126.128 151.096 123.112C143.872 114.704 138.072 115.792 136.184 122.264Z" fill="#00B071"/>
<path opacity="0.2" d="M136.808 312.536L136.496 319.856H130.36L130.672 312.536H136.808Z" fill="black"/>
<path opacity="0.2" d="M92.1999 308.696L98.1919 310L95.0879 316.808L89.0959 315.512L92.1999 308.696Z" fill="black"/>
<path d="M124.88 94.472C123.744 100.448 122.776 103.888 124.984 107.664C128.296 113.344 136.248 112.464 139.144 106.976C141.752 102.008 143.144 93.064 138 89.264C136.866 88.4176 135.534 87.8757 134.131 87.6899C132.728 87.5042 131.301 87.6808 129.985 88.2029C128.67 88.7251 127.51 89.5754 126.616 90.6728C125.723 91.7702 125.125 93.0781 124.88 94.472Z" fill="#FFC3BD"/>
<path d="M135.2 99.688C136.448 99.2 144.712 88.664 126.848 88.536C119.072 88.48 119.928 103.904 125.432 106.936C130.936 109.968 136.52 103.736 135.2 99.688Z" fill="#263238"/>
<path d="M125.048 90.4C135.144 94.472 145.096 95.064 147.408 89.48C149.232 85.08 143.672 88.288 143.672 88.288C143.672 88.288 146.928 83.488 141.176 83.336C135.424 83.184 138.176 86.536 138.176 86.536C138.176 86.536 120.8 81.544 125.048 90.4Z" fill="#263238"/>
<path d="M125.056 88.664C125.056 88.664 122.12 88.48 121.424 91.064C122.288 90.064 123.344 89.224 124.072 90C125.12 89.192 125.056 88.664 125.056 88.664Z" fill="#263238"/>
<path d="M134.168 98.92C133.873 100.17 133.994 101.481 134.512 102.656C135.216 104.192 136.576 103.808 137.232 102.416C137.816 101.168 138.168 98.864 137.056 97.784C135.944 96.704 134.552 97.424 134.168 98.92Z" fill="#FFC3BD"/>
<path d="M134.456 170.784C134.456 170.784 127.496 217.64 123.68 235.192C119.496 254.4 98.184 316 98.184 316L87.208 313.6C87.208 313.6 102.896 255.904 105.288 236.88C107.872 216.224 113.288 170.728 113.288 170.728L134.456 170.784Z" fill="#263238"/>
<path d="M100.8 312.368L98.752 316.368L86.4 313.664L87.448 309.952L100.8 312.368Z" fill="#00B071"/>
<path opacity="0.3" d="M130.056 187.48C122.008 189.08 122.856 219.056 123.832 234.488C126.152 223.584 129.544 202.592 131.832 187.696C131.281 187.428 130.656 187.352 130.056 187.48Z" fill="black"/>
<path d="M146.088 170.784C146.088 170.784 146.888 216.624 146.264 235.32C145.568 254.768 138.776 318.44 138.776 318.44H128.376C128.376 318.44 127.992 255.904 127.536 236.84C127.032 216.04 124.512 170.816 124.512 170.816L146.088 170.784Z" fill="#263238"/>
<path d="M140.8 314.304C140.848 314.304 140.216 318.616 140.216 318.616H127.56L127.216 314.768L140.8 314.304Z" fill="#00B071"/>
</svg>
